<svg id="svg" version="1.1" xmlns="http://www.w3.org/2000/svg" xmlns:xlink="http://www.w3.org/1999/xlink" width="400" height="310.6666666666667" viewBox="0, 0, 400,310.6666666666667"><g id="svgg"><path id="path0" d="M194.262 18.278 C 193.074 18.345,192.701 18.461,193.019 18.662 C 193.352 18.873,193.184 18.963,192.385 19.001 C 191.787 19.030,191.158 19.086,190.987 19.126 C 190.816 19.165,190.423 19.214,190.114 19.234 C 189.805 19.253,189.628 19.394,189.723 19.546 C 189.817 19.699,189.405 19.915,188.808 20.027 C 188.212 20.139,187.723 20.349,187.723 20.493 C 187.723 20.638,187.374 20.844,186.946 20.951 C 186.519 21.059,186.169 21.292,186.169 21.469 C 186.169 21.647,186.028 21.706,185.856 21.599 C 185.684 21.493,185.324 21.624,185.057 21.892 C 184.790 22.159,184.395 22.378,184.180 22.378 C 183.964 22.378,183.601 22.727,183.372 23.155 C 183.143 23.582,182.766 23.932,182.532 23.932 C 182.045 23.932,179.953 25.931,179.953 26.397 C 179.953 26.568,179.569 27.124,179.099 27.633 C 177.695 29.155,177.333 29.627,177.276 30.014 C 177.157 30.827,176.745 31.868,176.473 32.043 C 176.314 32.145,176.110 32.705,176.018 33.286 C 175.927 33.868,175.726 34.421,175.573 34.516 C 175.420 34.611,175.203 35.565,175.091 36.635 C 174.963 37.859,174.791 38.429,174.628 38.172 C 174.479 37.937,174.366 39.130,174.364 40.966 C 174.361 42.768,174.480 44.095,174.636 43.999 C 174.789 43.905,175.015 45.260,175.140 47.011 C 175.264 48.762,175.474 50.264,175.607 50.350 C 175.739 50.435,175.937 51.828,176.046 53.445 C 176.155 55.063,176.363 56.461,176.508 56.553 C 176.653 56.646,176.955 58.915,177.180 61.597 C 177.404 64.279,177.686 66.413,177.805 66.339 C 177.924 66.265,178.122 67.603,178.244 69.311 C 178.366 71.019,178.576 72.416,178.710 72.416 C 178.844 72.416,179.054 73.815,179.176 75.524 C 179.299 77.234,179.502 78.632,179.629 78.632 C 179.755 78.632,180.046 80.942,180.274 83.765 C 180.502 86.587,180.788 88.736,180.910 88.539 C 181.031 88.342,181.232 89.667,181.356 91.483 C 181.480 93.299,181.688 94.719,181.818 94.639 C 181.949 94.558,182.155 95.959,182.277 97.751 C 182.400 99.544,182.603 101.010,182.730 101.010 C 182.856 101.010,183.142 103.073,183.365 105.594 C 183.587 108.116,183.869 110.249,183.990 110.334 C 184.111 110.420,184.297 111.549,184.404 112.843 L 184.598 115.197 183.678 115.062 C 183.143 114.983,182.841 114.791,182.957 114.603 C 183.089 114.389,182.719 114.339,181.866 114.453 C 181.156 114.548,180.575 114.500,180.575 114.345 C 180.575 113.977,172.584 113.978,172.357 114.345 C 172.261 114.500,171.889 114.550,171.530 114.456 C 171.170 114.362,170.786 114.429,170.675 114.605 C 170.565 114.780,169.845 115.003,169.075 115.100 C 168.306 115.196,167.634 115.282,167.581 115.291 C 167.528 115.300,167.562 115.431,167.656 115.584 C 167.750 115.736,167.338 115.952,166.742 116.064 C 166.145 116.176,165.657 116.379,165.657 116.515 C 165.657 116.651,165.093 116.931,164.404 117.138 C 163.716 117.344,163.234 117.646,163.335 117.808 C 163.435 117.971,163.310 118.104,163.055 118.104 C 162.801 118.104,162.348 118.349,162.049 118.648 C 161.750 118.947,161.425 119.195,161.328 119.199 C 160.979 119.214,157.922 122.387,158.093 122.558 C 158.188 122.653,157.901 123.070,157.455 123.484 C 157.009 123.898,156.643 124.390,156.643 124.578 C 156.643 124.766,156.394 125.053,156.090 125.216 C 155.785 125.379,155.512 125.836,155.482 126.233 C 155.452 126.629,155.293 126.998,155.127 127.053 C 154.962 127.108,154.650 127.844,154.433 128.689 C 154.217 129.534,153.936 130.225,153.810 130.225 C 153.683 130.225,153.484 130.995,153.367 131.935 C 153.249 132.875,153.029 133.644,152.878 133.644 C 152.727 133.644,152.603 134.774,152.603 136.154 L 152.603 138.665 151.647 137.708 C 151.121 137.182,150.571 136.752,150.426 136.752 C 150.280 136.752,149.922 136.513,149.630 136.221 C 149.337 135.929,148.806 135.645,148.449 135.590 C 148.092 135.536,147.685 135.286,147.544 135.034 C 147.404 134.782,147.007 134.577,146.664 134.577 C 146.270 134.577,146.122 134.444,146.262 134.217 C 146.414 133.970,146.273 133.912,145.814 134.032 C 145.446 134.129,145.069 134.085,144.976 133.935 C 144.883 133.785,144.114 133.570,143.266 133.458 C 142.418 133.345,141.725 133.149,141.725 133.023 C 141.725 132.627,136.860 132.346,133.949 132.574 C 132.421 132.693,131.235 132.895,131.313 133.023 C 131.392 133.150,130.771 133.346,129.932 133.457 C 129.093 133.568,128.338 133.831,128.253 134.040 C 128.157 134.278,128.090 134.291,128.074 134.076 C 128.060 133.874,127.714 133.795,127.244 133.884 C 126.718 133.985,126.570 134.120,126.819 134.274 C 127.062 134.424,126.848 134.586,126.226 134.723 C 125.691 134.840,125.253 135.054,125.253 135.198 C 125.253 135.342,124.833 135.552,124.320 135.664 C 123.807 135.777,123.388 136.001,123.388 136.162 C 123.388 136.323,123.003 136.626,122.533 136.837 C 122.063 137.047,121.347 137.568,120.942 137.995 C 120.536 138.423,120.069 138.733,119.902 138.685 C 119.736 138.637,119.657 138.768,119.726 138.976 C 119.898 139.492,118.788 140.557,118.356 140.290 C 118.164 140.172,118.092 140.211,118.196 140.378 C 118.299 140.545,118.111 140.915,117.777 141.200 C 117.444 141.485,117.172 141.923,117.172 142.173 C 117.172 142.422,116.997 142.738,116.783 142.875 C 116.363 143.144,115.836 143.914,115.231 145.144 C 115.020 145.571,114.672 146.106,114.456 146.331 C 114.240 146.557,114.064 147.082,114.064 147.497 C 114.064 147.912,113.908 148.252,113.717 148.252 C 113.514 148.252,113.431 148.575,113.518 149.029 C 113.600 149.456,113.557 149.806,113.424 149.806 C 113.290 149.806,113.083 150.715,112.964 151.826 C 112.845 152.937,112.625 153.846,112.474 153.846 C 112.316 153.846,112.199 167.538,112.199 185.859 C 112.199 203.465,112.318 217.871,112.463 217.871 C 112.608 217.871,112.824 219.584,112.941 221.678 C 113.059 223.772,113.275 225.528,113.422 225.579 C 113.569 225.630,113.613 226.246,113.519 226.947 C 113.406 227.787,113.458 228.155,113.670 228.023 C 113.873 227.898,114.072 228.572,114.208 229.841 C 114.327 230.950,114.543 231.857,114.688 231.857 C 114.833 231.857,115.047 232.626,115.165 233.566 C 115.282 234.507,115.490 235.276,115.626 235.276 C 115.762 235.276,115.973 235.870,116.095 236.597 C 116.216 237.323,116.473 238.020,116.666 238.146 C 116.923 238.314,116.921 238.376,116.657 238.379 C 116.452 238.382,116.367 238.649,116.459 239.002 C 116.548 239.342,116.729 239.553,116.861 239.471 C 116.994 239.390,117.200 239.974,117.319 240.771 C 117.457 241.692,117.627 242.072,117.786 241.814 C 117.948 241.552,118.112 241.861,118.253 242.696 C 118.372 243.403,118.587 243.908,118.730 243.820 C 118.874 243.731,119.151 244.430,119.346 245.373 C 119.542 246.315,119.829 247.086,119.985 247.086 C 120.141 247.086,120.356 247.436,120.463 247.863 C 120.570 248.291,120.771 248.640,120.910 248.640 C 121.049 248.640,121.255 249.060,121.368 249.573 C 121.480 250.085,121.701 250.505,121.858 250.505 C 122.016 250.505,122.145 250.719,122.145 250.981 C 122.145 251.243,122.339 251.532,122.576 251.623 C 122.840 251.724,122.942 252.042,122.838 252.439 C 122.729 252.856,122.788 253.015,123.003 252.882 C 123.200 252.760,123.419 253.047,123.537 253.584 C 123.647 254.084,123.938 254.571,124.184 254.665 C 124.430 254.760,124.631 255.051,124.631 255.313 C 124.631 255.574,124.757 255.789,124.911 255.789 C 125.066 255.789,125.338 256.208,125.517 256.721 C 125.696 257.234,125.989 257.653,126.169 257.653 C 126.349 257.653,126.496 257.832,126.496 258.051 C 126.496 258.269,126.775 258.687,127.117 258.980 C 127.459 259.273,127.739 259.708,127.739 259.948 C 127.739 260.188,127.949 260.465,128.205 260.563 C 128.462 260.661,128.671 260.891,128.671 261.073 C 128.671 261.255,129.075 261.799,129.569 262.281 C 130.062 262.763,130.554 263.436,130.661 263.775 C 130.769 264.114,131.203 264.577,131.625 264.803 C 132.048 265.029,132.565 265.601,132.774 266.073 C 132.983 266.546,133.265 266.865,133.399 266.781 C 133.534 266.698,133.644 266.782,133.644 266.968 C 133.644 267.344,137.864 271.590,138.799 272.154 C 139.126 272.352,139.356 272.677,139.309 272.877 C 139.262 273.076,139.342 273.167,139.486 273.077 C 139.631 272.988,139.957 273.152,140.211 273.442 C 140.464 273.733,141.059 274.250,141.533 274.592 C 142.007 274.934,142.740 275.528,143.163 275.913 C 143.586 276.298,144.065 276.612,144.227 276.612 C 144.607 276.612,145.759 277.758,145.570 277.948 C 145.490 278.027,145.782 278.181,146.217 278.290 C 146.652 278.400,147.009 278.626,147.009 278.794 C 147.009 278.961,147.213 279.099,147.464 279.099 C 147.714 279.099,148.079 279.397,148.274 279.762 C 148.526 280.233,148.698 280.315,148.864 280.047 C 149.036 279.767,149.147 279.797,149.287 280.160 C 149.390 280.431,149.690 280.653,149.951 280.653 C 150.213 280.653,150.427 280.793,150.427 280.963 C 150.427 281.134,150.642 281.274,150.903 281.274 C 151.165 281.274,151.456 281.476,151.551 281.721 C 151.645 281.967,152.132 282.259,152.632 282.368 C 153.132 282.478,153.474 282.676,153.393 282.807 C 153.312 282.939,153.800 283.229,154.478 283.453 C 155.156 283.677,155.711 283.967,155.711 284.097 C 155.711 284.227,156.131 284.425,156.643 284.538 C 157.156 284.650,157.576 284.860,157.576 285.004 C 157.576 285.148,157.995 285.357,158.508 285.470 C 159.021 285.583,159.441 285.777,159.441 285.902 C 159.441 286.027,160.140 286.309,160.995 286.528 C 161.849 286.747,162.549 287.041,162.549 287.181 C 162.549 287.321,163.109 287.530,163.793 287.646 C 164.478 287.762,164.969 287.968,164.884 288.105 C 164.800 288.241,165.358 288.447,166.126 288.562 C 166.893 288.677,167.521 288.890,167.521 289.035 C 167.521 289.180,168.500 289.474,169.697 289.687 C 170.894 289.901,171.873 290.180,171.873 290.307 C 171.873 290.434,172.712 290.635,173.737 290.754 C 174.762 290.873,175.531 291.084,175.444 291.224 C 175.358 291.363,176.372 291.578,177.698 291.700 C 179.024 291.823,180.182 292.037,180.273 292.177 C 180.889 293.132,203.577 293.131,204.186 292.176 C 204.315 291.975,207.016 291.615,208.954 291.540 C 209.092 291.535,209.130 291.409,209.038 291.259 C 208.945 291.110,209.706 290.893,210.729 290.778 C 211.751 290.662,212.587 290.457,212.587 290.322 C 212.587 290.187,213.566 289.901,214.763 289.687 C 215.960 289.474,216.939 289.180,216.939 289.035 C 216.939 288.890,217.568 288.677,218.337 288.562 C 219.106 288.446,219.736 288.234,219.736 288.091 C 219.736 287.947,220.225 287.737,220.824 287.625 C 221.422 287.513,221.911 287.311,221.911 287.176 C 221.911 287.041,222.611 286.763,223.465 286.558 C 224.320 286.353,225.019 286.066,225.019 285.919 C 225.019 285.773,225.508 285.562,226.105 285.450 C 226.701 285.338,227.122 285.137,227.039 285.003 C 226.956 284.869,227.237 284.672,227.663 284.565 C 228.090 284.458,228.438 284.233,228.438 284.066 C 228.438 283.898,228.611 283.761,228.822 283.761 C 229.359 283.761,232.479 282.155,232.479 281.879 C 232.479 281.754,232.828 281.565,233.256 281.457 C 233.683 281.350,234.033 281.136,234.033 280.982 C 234.033 280.828,234.453 280.610,234.968 280.497 C 235.482 280.384,236.048 280.019,236.226 279.686 C 236.405 279.354,236.658 279.148,236.790 279.229 C 236.922 279.311,237.263 279.105,237.548 278.772 C 237.834 278.439,238.254 278.166,238.484 278.166 C 238.713 278.166,239.085 277.821,239.311 277.400 C 239.536 276.978,239.841 276.708,239.987 276.798 C 240.134 276.889,240.472 276.744,240.739 276.477 C 241.007 276.209,241.460 275.989,241.747 275.986 C 242.198 275.982,242.205 275.940,241.803 275.680 C 241.390 275.413,241.391 275.378,241.811 275.374 C 242.072 275.371,242.663 274.939,243.124 274.414 C 243.620 273.848,244.112 273.551,244.329 273.685 C 244.535 273.812,244.614 273.778,244.508 273.608 C 244.339 273.334,245.296 272.261,245.710 272.261 C 246.002 272.261,250.816 267.342,250.816 267.044 C 250.816 266.691,251.799 265.786,252.214 265.756 C 252.385 265.744,252.525 265.583,252.525 265.398 C 252.525 265.214,252.750 264.898,253.024 264.698 C 253.298 264.497,253.623 264.017,253.746 263.631 C 253.868 263.244,254.098 263.008,254.257 263.106 C 254.416 263.204,254.545 263.142,254.545 262.968 C 254.545 262.793,254.860 262.345,255.245 261.971 C 255.629 261.597,255.769 261.390,255.556 261.511 C 255.342 261.632,255.167 261.606,255.167 261.454 C 255.167 261.302,255.517 260.990,255.944 260.761 C 256.371 260.533,256.721 260.169,256.721 259.954 C 256.721 259.739,256.966 259.318,257.265 259.019 C 257.564 258.720,257.809 258.355,257.809 258.208 C 257.809 258.062,258.002 257.822,258.237 257.677 C 258.473 257.531,258.578 257.271,258.472 257.099 C 258.366 256.927,258.488 256.706,258.743 256.608 C 258.998 256.510,259.207 256.216,259.207 255.954 C 259.207 255.692,259.338 255.478,259.497 255.478 C 259.657 255.478,259.885 255.170,260.005 254.793 C 260.124 254.416,260.413 253.917,260.647 253.683 C 260.881 253.449,261.072 253.050,261.072 252.796 C 261.072 252.541,261.195 252.409,261.344 252.501 C 261.494 252.594,261.791 252.045,262.005 251.282 C 262.218 250.519,262.504 249.963,262.640 250.047 C 262.775 250.131,262.979 249.778,263.092 249.262 C 263.206 248.746,263.412 248.394,263.550 248.479 C 263.688 248.565,263.893 248.147,264.005 247.550 C 264.117 246.953,264.358 246.465,264.541 246.465 C 264.725 246.465,264.801 246.185,264.712 245.843 C 264.622 245.501,264.665 245.221,264.806 245.221 C 264.948 245.221,265.155 244.802,265.268 244.289 C 265.381 243.776,265.589 243.357,265.732 243.357 C 265.874 243.357,266.085 242.797,266.201 242.112 C 266.316 241.428,266.520 240.935,266.654 241.018 C 266.788 241.101,266.975 240.591,267.069 239.887 C 267.164 239.182,267.374 238.520,267.536 238.417 C 267.698 238.313,268.011 237.214,268.231 235.975 C 268.451 234.736,268.735 233.722,268.862 233.722 C 268.988 233.722,269.189 232.883,269.308 231.857 C 269.428 230.831,269.641 229.992,269.784 229.992 C 269.926 229.992,270.140 228.876,270.259 227.512 C 270.397 225.934,270.592 225.104,270.796 225.230 C 271.011 225.363,271.051 224.801,270.918 223.529 C 270.809 222.484,270.834 221.559,270.973 221.473 C 271.112 221.387,271.317 209.746,271.429 195.605 C 271.541 181.464,271.753 169.814,271.900 169.718 C 272.048 169.621,272.266 166.748,272.385 163.335 C 272.504 159.921,272.718 157.054,272.861 156.963 C 273.003 156.873,273.222 154.947,273.346 152.684 C 273.471 150.420,273.674 148.631,273.797 148.707 C 273.920 148.783,274.204 146.474,274.429 143.576 C 274.653 140.677,274.943 138.306,275.073 138.306 C 275.203 138.306,275.409 136.840,275.531 135.047 C 275.654 133.255,275.860 131.854,275.991 131.935 C 276.121 132.015,276.328 130.615,276.450 128.822 C 276.572 127.030,276.771 125.625,276.893 125.700 C 277.014 125.775,277.297 123.642,277.521 120.960 C 277.746 118.278,278.037 116.014,278.169 115.929 C 278.302 115.843,278.511 114.411,278.635 112.747 C 278.760 111.083,278.985 109.797,279.135 109.891 C 279.286 109.984,279.423 109.597,279.440 109.032 C 279.457 108.466,279.501 107.723,279.538 107.382 C 279.575 107.040,279.631 106.017,279.663 105.110 C 279.698 104.102,279.841 103.535,280.031 103.652 C 280.221 103.769,280.351 103.261,280.365 102.349 C 280.404 99.897,281.103 93.794,281.321 94.012 C 281.432 94.123,281.623 92.736,281.746 90.930 C 281.869 89.123,282.077 87.646,282.207 87.646 C 282.337 87.646,282.545 86.158,282.669 84.339 C 282.793 82.521,282.993 81.194,283.115 81.391 C 283.236 81.587,283.522 79.443,283.750 76.627 C 283.978 73.810,284.268 71.569,284.395 71.647 C 284.522 71.726,284.726 70.254,284.848 68.376 C 284.971 66.499,285.181 65.030,285.315 65.113 C 285.448 65.195,285.659 63.709,285.783 61.810 C 285.908 59.910,286.107 58.515,286.227 58.708 C 286.346 58.902,286.627 56.751,286.850 53.928 C 287.073 51.105,287.359 48.796,287.485 48.796 C 287.612 48.796,287.816 47.433,287.938 45.768 C 288.060 44.103,288.324 42.537,288.525 42.289 C 288.756 42.003,288.764 41.913,288.547 42.043 C 288.311 42.184,288.145 41.265,288.013 39.097 C 287.907 37.364,287.697 35.865,287.545 35.766 C 287.393 35.668,287.083 34.641,286.856 33.486 C 286.629 32.330,286.344 31.545,286.223 31.740 C 286.096 31.946,285.914 31.687,285.790 31.121 C 285.672 30.586,285.463 30.148,285.324 30.148 C 285.185 30.148,284.982 29.792,284.873 29.358 C 284.764 28.924,284.539 28.652,284.373 28.755 C 284.207 28.857,284.071 28.730,284.071 28.473 C 284.071 28.215,283.722 27.627,283.294 27.166 C 282.867 26.705,282.517 26.208,282.517 26.062 C 282.517 25.916,282.238 25.517,281.896 25.175 C 281.523 24.802,281.274 24.709,281.274 24.942 C 281.274 25.155,280.807 24.806,280.236 24.165 C 279.666 23.524,279.028 22.999,278.820 22.999 C 278.611 22.999,278.518 22.874,278.612 22.722 C 278.706 22.569,278.429 22.355,277.996 22.246 C 277.563 22.138,277.282 21.930,277.371 21.786 C 277.460 21.641,276.872 21.341,276.063 21.119 C 275.254 20.896,274.492 20.564,274.370 20.380 C 274.138 20.030,274.000 19.993,272.709 19.930 C 272.271 19.909,271.989 19.770,272.080 19.622 C 272.255 19.338,270.109 18.959,268.333 18.959 C 267.758 18.959,267.288 18.819,267.288 18.648 C 267.288 18.467,266.281 18.339,264.880 18.342 C 263.470 18.345,262.641 18.454,262.880 18.606 C 263.133 18.767,262.426 18.946,261.029 19.076 C 259.785 19.191,258.692 19.405,258.599 19.550 C 258.506 19.695,257.976 19.912,257.420 20.032 C 256.865 20.153,256.410 20.369,256.410 20.513 C 256.410 20.657,255.991 20.866,255.478 20.979 C 254.965 21.092,254.545 21.308,254.545 21.460 C 254.545 21.612,254.336 21.656,254.079 21.558 C 253.823 21.459,253.613 21.522,253.613 21.698 C 253.613 21.874,253.175 22.114,252.639 22.231 C 251.923 22.389,251.779 22.517,252.095 22.717 C 252.437 22.934,252.414 22.991,251.984 22.994 C 251.686 22.997,251.072 23.415,250.619 23.923 C 250.166 24.431,249.654 24.759,249.481 24.652 C 249.308 24.545,249.254 24.600,249.362 24.775 C 249.470 24.949,248.924 25.670,248.148 26.376 C 247.372 27.082,246.815 27.785,246.910 27.939 C 247.005 28.092,246.874 28.298,246.618 28.396 C 246.363 28.494,246.154 28.797,246.154 29.068 C 246.154 29.340,246.029 29.485,245.876 29.391 C 245.723 29.297,245.507 29.585,245.395 30.032 C 245.283 30.479,244.988 31.047,244.740 31.295 C 244.492 31.543,244.289 32.074,244.289 32.475 C 244.289 32.876,244.150 33.250,243.980 33.307 C 243.811 33.364,243.499 34.495,243.289 35.820 C 243.078 37.145,242.812 38.228,242.699 38.228 C 242.585 38.228,242.391 39.626,242.269 41.334 C 242.147 43.042,241.938 44.373,241.806 44.291 C 241.674 44.209,241.466 45.609,241.343 47.401 C 241.214 49.298,240.987 50.660,240.799 50.660 C 240.603 50.660,240.543 51.146,240.644 51.904 C 240.736 52.587,240.700 53.216,240.564 53.300 C 240.427 53.384,240.216 54.852,240.093 56.563 C 239.971 58.274,239.759 59.674,239.623 59.674 C 239.486 59.674,239.275 61.002,239.153 62.626 C 239.031 64.250,238.823 65.579,238.691 65.579 C 238.559 65.579,238.351 66.976,238.229 68.685 C 238.085 70.695,237.893 71.720,237.685 71.592 C 237.472 71.460,237.416 71.938,237.518 73.002 C 237.603 73.887,237.570 74.674,237.444 74.752 C 237.318 74.830,237.115 76.224,236.994 77.851 C 236.872 79.477,236.665 80.808,236.535 80.808 C 236.291 80.808,235.825 84.637,235.880 86.192 C 235.897 86.674,235.784 86.991,235.630 86.896 C 235.475 86.800,235.250 88.178,235.127 89.981 C 234.998 91.878,234.771 93.240,234.583 93.240 C 234.390 93.240,234.325 93.714,234.421 94.432 C 234.509 95.087,234.457 95.846,234.305 96.118 C 234.152 96.390,233.944 97.846,233.842 99.355 C 233.739 100.864,233.544 102.168,233.407 102.253 C 233.271 102.339,233.057 103.738,232.932 105.361 C 232.807 106.985,232.589 108.388,232.449 108.480 C 232.183 108.652,231.928 110.743,231.883 113.116 C 231.845 115.136,231.225 114.290,231.011 111.924 C 230.916 110.879,230.741 110.023,230.621 110.023 C 230.502 110.023,230.224 107.995,230.003 105.517 C 229.782 103.038,229.494 101.010,229.364 101.010 C 229.234 101.010,229.027 99.611,228.904 97.902 C 228.782 96.193,228.574 94.794,228.442 94.794 C 228.309 94.794,228.102 93.465,227.980 91.841 C 227.858 90.218,227.647 88.889,227.510 88.889 C 227.374 88.889,227.162 87.489,227.039 85.778 C 226.917 84.068,226.712 82.603,226.584 82.524 C 226.457 82.445,226.422 81.657,226.507 80.772 C 226.620 79.597,226.564 79.223,226.300 79.386 C 226.056 79.537,225.946 79.324,225.961 78.733 C 226.000 77.147,225.561 73.660,225.321 73.660 C 225.192 73.660,224.986 72.261,224.864 70.552 C 224.742 68.842,224.537 67.444,224.409 67.444 C 224.137 67.444,223.475 61.770,223.489 59.567 C 223.495 58.685,223.376 58.139,223.201 58.246 C 223.024 58.356,222.814 57.115,222.681 55.171 C 222.559 53.379,222.349 51.981,222.214 52.064 C 222.080 52.147,221.870 50.886,221.748 49.262 C 221.626 47.638,221.418 46.309,221.286 46.309 C 221.153 46.309,220.945 45.016,220.822 43.434 C 220.700 41.853,220.453 40.379,220.274 40.158 C 220.076 39.914,220.061 39.644,220.234 39.471 C 220.391 39.314,220.464 38.516,220.397 37.697 C 220.310 36.640,220.210 36.387,220.053 36.824 C 219.902 37.246,219.763 36.830,219.613 35.503 C 219.493 34.438,219.268 33.566,219.113 33.566 C 218.958 33.566,218.740 33.077,218.628 32.479 C 218.515 31.880,218.321 31.391,218.196 31.391 C 218.072 31.391,217.804 30.839,217.602 30.164 C 217.400 29.490,216.888 28.665,216.465 28.332 C 216.042 28.000,215.695 27.585,215.695 27.412 C 215.695 26.919,211.651 22.999,211.142 22.999 C 210.891 22.999,210.768 22.866,210.868 22.704 C 211.095 22.337,209.963 21.695,209.626 22.000 C 209.490 22.122,209.476 22.054,209.594 21.849 C 209.735 21.603,209.379 21.347,208.556 21.100 C 207.867 20.894,207.304 20.614,207.304 20.478 C 207.304 20.342,206.814 20.138,206.216 20.026 C 205.618 19.914,205.128 19.711,205.128 19.576 C 205.128 19.441,204.254 19.228,203.186 19.102 C 201.817 18.941,201.427 18.806,201.865 18.645 C 202.287 18.489,201.903 18.379,200.669 18.299 C 199.670 18.235,198.787 18.287,198.708 18.415 C 198.629 18.543,198.025 18.648,197.366 18.648 C 196.706 18.648,196.120 18.543,196.063 18.415 C 196.006 18.287,195.196 18.225,194.262 18.278 M201.420 26.608 C 206.369 28.077,209.882 31.313,211.689 36.067 C 212.235 37.504,212.710 40.263,214.016 49.573 C 214.948 56.225,216.103 64.165,217.090 70.707 C 217.347 72.416,217.766 75.284,218.019 77.078 C 218.273 78.873,218.976 83.699,219.582 87.801 C 220.189 91.904,220.887 96.659,221.134 98.368 C 221.381 100.078,221.871 103.364,222.222 105.672 C 222.574 107.980,223.065 111.336,223.313 113.131 C 223.706 115.967,224.612 122.186,226.440 134.577 C 226.705 136.371,227.105 139.106,227.330 140.655 C 228.469 148.507,234.479 148.722,235.542 140.948 C 235.729 139.580,236.166 136.573,236.514 134.266 C 236.861 131.958,237.351 128.601,237.601 126.807 C 237.852 125.012,238.351 121.585,238.711 119.192 C 239.071 116.799,239.554 113.512,239.785 111.888 C 240.316 108.140,241.917 97.154,242.728 91.686 C 243.557 86.105,245.472 72.999,246.000 69.308 C 246.231 67.685,246.630 64.957,246.885 63.248 C 247.140 61.538,247.785 57.063,248.318 53.302 C 250.941 34.814,250.909 34.933,254.253 31.274 C 262.691 22.042,278.034 26.562,280.339 38.959 C 280.804 41.458,280.821 41.264,278.936 54.701 C 278.253 59.572,277.676 63.810,277.116 68.065 C 276.857 70.031,276.502 72.618,276.326 73.815 C 276.151 75.012,275.511 79.627,274.905 84.071 C 274.298 88.516,273.662 93.018,273.492 94.076 C 273.321 95.135,272.980 97.582,272.733 99.515 C 272.300 102.903,271.217 110.543,270.252 117.016 C 269.544 121.759,267.905 133.511,267.585 136.131 C 267.429 137.413,267.014 140.629,266.664 143.279 C 264.919 156.486,263.869 171.267,263.869 182.621 C 263.869 187.181,263.800 187.339,262.559 185.584 C 257.971 179.095,249.501 173.121,241.150 170.483 C 235.336 168.646,232.966 168.454,216.150 168.454 L 200.815 168.454 200.701 151.282 C 200.563 130.495,200.177 128.565,194.993 122.755 C 194.072 121.723,193.318 120.795,193.318 120.694 C 193.318 120.592,193.113 119.164,192.864 117.520 C 192.409 114.528,190.926 104.072,190.024 97.506 C 189.761 95.587,189.356 92.688,189.125 91.064 C 188.893 89.441,188.550 86.993,188.362 85.625 C 188.175 84.258,187.819 81.740,187.572 80.031 C 187.325 78.322,186.625 73.287,186.016 68.842 C 185.407 64.398,184.706 59.433,184.457 57.809 C 184.209 56.185,183.721 52.758,183.373 50.194 C 183.025 47.630,182.603 44.775,182.435 43.849 C 180.499 33.190,191.114 23.550,201.420 26.608 M180.661 122.322 C 186.232 123.766,190.543 127.772,192.444 133.274 C 193.159 135.345,193.162 135.420,193.162 151.826 L 193.162 168.298 178.555 168.460 C 165.836 168.601,163.746 168.691,162.393 169.156 C 161.538 169.450,160.734 169.692,160.606 169.694 C 159.969 169.703,160.354 135.947,161.016 133.804 C 162.918 127.647,167.478 123.482,173.893 122.045 C 175.334 121.722,178.910 121.869,180.661 122.322 M139.823 140.475 C 145.661 141.582,150.901 146.561,152.438 152.460 C 153.134 155.133,153.132 181.942,152.435 184.897 C 148.613 201.113,124.803 201.485,120.794 185.392 C 119.912 181.850,119.934 154.604,120.821 151.800 C 123.387 143.698,131.456 138.888,139.823 140.475 M232.851 176.368 C 250.054 178.658,262.676 192.524,263.697 210.256 C 264.965 232.294,254.664 255.067,236.985 269.308 C 192.898 304.824,127.702 277.594,120.570 220.687 C 119.996 216.102,119.654 198.912,120.138 198.912 C 120.230 198.912,121.035 199.444,121.925 200.094 C 132.062 207.498,144.794 206.621,153.495 197.921 C 154.785 196.630,155.508 196.107,155.651 196.359 C 163.396 209.967,171.613 214.946,186.908 215.299 L 193.396 215.449 190.948 217.832 C 181.895 226.649,179.021 234.151,179.021 248.963 L 179.021 256.677 180.068 257.787 C 181.874 259.702,185.068 259.187,186.056 256.823 C 186.365 256.084,186.480 254.165,186.480 249.761 C 186.480 246.434,186.630 242.618,186.812 241.281 C 188.733 227.213,200.158 216.528,214.356 215.519 C 218.773 215.205,220.047 214.318,220.047 211.552 C 220.047 207.944,220.169 207.966,199.378 207.836 C 178.639 207.706,178.274 207.655,172.266 204.036 C 160.764 197.107,156.020 178.868,165.047 176.278 C 166.902 175.746,228.794 175.828,232.851 176.368 " stroke="none" fill="#3c4445" fill-rule="evenodd"></path><path id="path1" d="M196.819 18.249 C 197.291 18.321,197.990 18.319,198.373 18.245 C 198.755 18.171,198.368 18.113,197.514 18.115 C 196.659 18.118,196.346 18.178,196.819 18.249 M261.849 18.648 C 261.744 18.819,261.953 18.959,262.315 18.959 C 262.678 18.959,262.887 18.819,262.782 18.648 C 262.676 18.477,262.466 18.337,262.315 18.337 C 262.165 18.337,261.955 18.477,261.849 18.648 M267.754 18.648 C 267.644 18.827,267.932 18.957,268.435 18.954 C 269.113 18.950,269.204 18.882,268.842 18.648 C 268.245 18.262,267.993 18.262,267.754 18.648 M213.267 24.709 C 213.639 25.136,214.051 25.486,214.183 25.486 C 214.315 25.486,214.098 25.136,213.702 24.709 C 213.306 24.281,212.894 23.932,212.787 23.932 C 212.679 23.932,212.896 24.281,213.267 24.709 M195.245 26.425 C 186.253 27.735,181.322 35.421,182.887 45.688 C 183.161 47.483,183.545 50.315,183.740 51.981 C 184.121 55.229,184.255 55.453,185.070 54.209 C 190.601 45.768,202.542 43.354,211.609 48.844 C 214.019 50.302,213.951 50.302,213.740 48.873 C 213.645 48.232,213.413 46.589,213.224 45.221 C 211.956 36.055,211.184 33.890,208.051 30.706 C 205.557 28.172,198.304 25.193,196.947 26.146 C 196.917 26.167,196.151 26.293,195.245 26.425 M262.622 26.729 C 255.737 27.897,251.200 33.503,250.047 42.269 C 249.946 43.038,249.711 44.548,249.525 45.624 C 249.093 48.117,249.153 48.152,251.330 46.683 C 259.453 41.205,269.675 42.329,276.682 49.470 C 278.840 51.669,279.098 51.846,279.224 51.211 C 280.387 45.388,280.544 39.001,279.587 36.519 C 276.877 29.492,269.938 25.488,262.622 26.729 M288.112 41.355 C 288.112 41.900,288.243 42.225,288.418 42.116 C 288.772 41.897,288.717 40.404,288.355 40.404 C 288.221 40.404,288.112 40.832,288.112 41.355 M220.979 45.359 C 220.979 45.710,221.119 45.998,221.290 45.998 C 221.461 45.998,221.601 45.797,221.601 45.551 C 221.601 45.304,221.461 45.016,221.290 44.911 C 221.119 44.805,220.979 45.007,220.979 45.359 M287.179 49.573 C 287.179 49.829,287.319 50.039,287.490 50.039 C 287.661 50.039,287.801 49.829,287.801 49.573 C 287.801 49.316,287.661 49.106,287.490 49.106 C 287.319 49.106,287.179 49.316,287.179 49.573 M175.296 50.583 C 175.310 51.264,175.904 51.716,175.908 51.049 C 175.911 50.664,175.773 50.350,175.602 50.350 C 175.431 50.350,175.294 50.455,175.296 50.583 M221.911 51.611 C 221.911 51.963,222.051 52.165,222.222 52.059 C 222.393 51.953,222.533 51.665,222.533 51.419 C 222.533 51.173,222.393 50.971,222.222 50.971 C 222.051 50.971,221.911 51.259,221.911 51.611 M176.224 57.324 C 176.224 57.571,176.364 57.859,176.535 57.964 C 176.706 58.070,176.845 57.868,176.845 57.516 C 176.845 57.164,176.706 56.876,176.535 56.876 C 176.364 56.876,176.224 57.078,176.224 57.324 M239.316 59.070 C 239.316 59.422,239.456 59.624,239.627 59.518 C 239.798 59.413,239.938 59.125,239.938 58.878 C 239.938 58.632,239.798 58.430,239.627 58.430 C 239.456 58.430,239.316 58.718,239.316 59.070 M238.384 64.802 C 238.384 65.058,238.524 65.268,238.695 65.268 C 238.866 65.268,239.005 65.058,239.005 64.802 C 239.005 64.545,238.866 64.336,238.695 64.336 C 238.524 64.336,238.384 64.545,238.384 64.802 M285.004 65.890 C 285.004 66.470,285.087 66.553,285.377 66.263 C 285.667 65.973,285.667 65.807,285.377 65.517 C 285.087 65.227,285.004 65.310,285.004 65.890 M224.087 66.804 C 224.087 67.156,224.227 67.444,224.398 67.444 C 224.569 67.444,224.709 67.242,224.709 66.996 C 224.709 66.749,224.569 66.462,224.398 66.356 C 224.227 66.250,224.087 66.452,224.087 66.804 M284.071 72.416 C 284.071 72.758,284.211 73.038,284.382 73.038 C 284.553 73.038,284.693 72.758,284.693 72.416 C 284.693 72.075,284.553 71.795,284.382 71.795 C 284.211 71.795,284.071 72.075,284.071 72.416 M179.332 79.565 C 179.332 79.907,179.472 80.186,179.643 80.186 C 179.814 80.186,179.953 79.907,179.953 79.565 C 179.953 79.223,179.814 78.943,179.643 78.943 C 179.472 78.943,179.332 79.223,179.332 79.565 M235.276 86.247 C 235.276 86.503,235.416 86.713,235.587 86.713 C 235.758 86.713,235.897 86.503,235.897 86.247 C 235.897 85.991,235.758 85.781,235.587 85.781 C 235.416 85.781,235.276 85.991,235.276 86.247 M227.195 87.938 C 227.195 88.290,227.335 88.578,227.506 88.578 C 227.677 88.578,227.817 88.377,227.817 88.130 C 227.817 87.884,227.677 87.596,227.506 87.490 C 227.335 87.385,227.195 87.586,227.195 87.938 M228.132 93.784 C 228.130 94.169,228.267 94.483,228.438 94.483 C 228.828 94.483,228.828 94.153,228.438 93.551 C 228.195 93.174,228.136 93.219,228.132 93.784 M281.190 94.360 C 281.065 94.485,280.963 94.801,280.963 95.063 C 280.963 95.413,281.055 95.448,281.309 95.194 C 281.499 95.004,281.601 94.688,281.536 94.491 C 281.470 94.294,281.315 94.236,281.190 94.360 M229.060 100.078 C 229.060 100.658,229.143 100.741,229.433 100.451 C 229.723 100.161,229.723 99.995,229.433 99.705 C 229.143 99.415,229.060 99.498,229.060 100.078 M233.100 101.321 C 233.100 101.663,233.240 101.943,233.411 101.943 C 233.582 101.943,233.722 101.663,233.722 101.321 C 233.722 100.979,233.582 100.699,233.411 100.699 C 233.240 100.699,233.100 100.979,233.100 101.321 M182.440 101.769 C 182.440 102.015,182.580 102.303,182.751 102.409 C 182.922 102.514,183.061 102.313,183.061 101.961 C 183.061 101.609,182.922 101.321,182.751 101.321 C 182.580 101.321,182.440 101.522,182.440 101.769 M230.303 109.073 C 230.303 109.425,230.443 109.713,230.614 109.713 C 230.785 109.713,230.925 109.511,230.925 109.265 C 230.925 109.018,230.785 108.730,230.614 108.625 C 230.443 108.519,230.303 108.721,230.303 109.073 M278.788 110.663 C 278.788 111.015,278.928 111.217,279.099 111.111 C 279.270 111.005,279.409 110.717,279.409 110.471 C 279.409 110.225,279.270 110.023,279.099 110.023 C 278.928 110.023,278.788 110.311,278.788 110.663 M183.822 110.983 C 183.707 111.169,183.768 111.476,183.959 111.667 C 184.213 111.921,184.305 111.831,184.305 111.329 C 184.305 110.578,184.143 110.463,183.822 110.983 M175.530 113.978 C 176.089 114.047,176.928 114.046,177.395 113.975 C 177.862 113.904,177.405 113.847,176.379 113.849 C 175.354 113.851,174.971 113.909,175.530 113.978 M277.855 116.706 C 277.855 116.962,277.995 117.172,278.166 117.172 C 278.337 117.172,278.477 116.962,278.477 116.706 C 278.477 116.449,278.337 116.239,278.166 116.239 C 277.995 116.239,277.855 116.449,277.855 116.706 M173.582 122.414 C 164.990 124.260,160.419 130.688,160.384 140.974 C 160.371 144.731,160.424 144.812,161.861 143.220 C 169.631 134.620,182.578 134.336,191.127 142.578 C 192.058 143.476,192.862 144.211,192.914 144.211 C 193.174 144.211,192.959 136.246,192.660 134.825 C 190.855 126.254,182.130 120.578,173.582 122.414 M276.612 126.340 C 276.612 126.597,276.752 126.807,276.923 126.807 C 277.094 126.807,277.234 126.597,277.234 126.340 C 277.234 126.084,277.094 125.874,276.923 125.874 C 276.752 125.874,276.612 126.084,276.612 126.340 M275.680 132.556 C 275.680 132.813,275.820 133.023,275.991 133.023 C 276.162 133.023,276.301 132.813,276.301 132.556 C 276.301 132.300,276.162 132.090,275.991 132.090 C 275.820 132.090,275.680 132.300,275.680 132.556 M152.292 136.630 C 152.292 137.515,152.191 137.712,151.810 137.566 C 151.533 137.460,151.408 137.512,151.517 137.688 C 152.004 138.476,152.603 137.959,152.603 136.752 C 152.603 136.068,152.533 135.509,152.448 135.509 C 152.362 135.509,152.292 136.013,152.292 136.630 M274.747 139.220 C 274.747 139.572,274.887 139.860,275.058 139.860 C 275.229 139.860,275.369 139.659,275.369 139.412 C 275.369 139.166,275.229 138.878,275.058 138.772 C 274.887 138.667,274.747 138.868,274.747 139.220 M134.577 140.357 C 125.190 142.033,120.290 148.336,120.282 158.741 C 120.279 162.394,120.300 162.413,122.158 160.500 C 129.878 152.552,142.664 152.419,150.605 160.205 C 152.973 162.527,152.914 162.559,152.914 158.957 C 152.914 147.242,144.397 138.604,134.577 140.357 M273.504 149.513 C 273.504 149.865,273.644 150.067,273.815 149.961 C 273.986 149.856,274.126 149.568,274.126 149.321 C 274.126 149.075,273.986 148.873,273.815 148.873 C 273.644 148.873,273.504 149.161,273.504 149.513 M272.577 158.586 C 272.580 159.352,272.654 159.484,272.883 159.130 C 273.277 158.519,273.277 157.576,272.883 157.576 C 272.712 157.576,272.574 158.030,272.577 158.586 M272.333 163.481 C 272.333 164.079,272.397 164.324,272.475 164.025 C 272.553 163.726,272.553 163.236,272.475 162.937 C 272.397 162.638,272.333 162.883,272.333 163.481 M271.639 172.165 C 271.639 173.213,271.777 174.048,271.950 174.048 C 272.121 174.048,272.261 173.287,272.261 172.357 C 272.261 171.427,272.121 170.580,271.950 170.474 C 271.756 170.354,271.639 170.989,271.639 172.165 M164.760 176.443 C 163.625 176.666,161.190 179.293,160.753 180.766 C 159.948 183.476,160.955 190.207,162.032 189.322 C 163.610 188.025,164.135 188.009,201.125 188.115 C 235.558 188.213,236.428 188.231,239.161 188.864 C 248.191 190.957,254.459 194.559,260.839 201.323 C 263.065 203.682,263.067 203.654,261.023 198.446 C 257.457 189.358,248.803 181.024,240.004 178.204 C 233.945 176.262,237.752 176.436,199.845 176.363 C 180.956 176.327,165.168 176.363,164.760 176.443 M271.458 199.223 C 271.458 202.385,271.504 203.679,271.560 202.098 C 271.617 200.517,271.617 197.929,271.560 196.348 C 271.504 194.767,271.458 196.061,271.458 199.223 M271.428 207.925 C 271.428 209.037,271.485 209.491,271.554 208.936 C 271.622 208.380,271.622 207.471,271.554 206.915 C 271.485 206.360,271.428 206.814,271.428 207.925 M271.444 214.452 C 271.444 216.247,271.495 216.981,271.558 216.084 C 271.621 215.186,271.621 213.718,271.558 212.821 C 271.495 211.923,271.444 212.657,271.444 214.452 M112.268 218.981 C 112.234 219.396,112.344 219.736,112.513 219.736 C 112.877 219.736,112.930 218.597,112.576 218.378 C 112.441 218.295,112.303 218.566,112.268 218.981 M270.401 226.030 C 270.405 226.595,270.463 226.640,270.707 226.263 C 271.096 225.660,271.096 225.330,270.707 225.330 C 270.536 225.330,270.398 225.645,270.401 226.030 M131.779 265.268 C 131.779 265.354,132.059 265.703,132.401 266.045 C 133.099 266.743,133.222 266.490,132.590 265.657 C 132.196 265.137,131.779 264.938,131.779 265.268 M244.134 273.504 C 243.824 273.846,243.663 274.126,243.775 274.126 C 243.887 274.126,244.258 273.846,244.600 273.504 C 244.942 273.162,245.103 272.883,244.959 272.883 C 244.814 272.883,244.443 273.162,244.134 273.504 M196.814 292.988 C 197.113 293.066,197.603 293.066,197.902 292.988 C 198.201 292.910,197.956 292.846,197.358 292.846 C 196.760 292.846,196.515 292.910,196.814 292.988 " stroke="none" fill="#9acaea" fill-rule="evenodd"></path><path id="path2" d="M196.659 18.557 C 197.044 18.631,197.673 18.631,198.057 18.557 C 198.442 18.482,198.127 18.422,197.358 18.422 C 196.589 18.422,196.274 18.482,196.659 18.557 M195.109 26.327 C 195.495 26.401,196.055 26.399,196.352 26.321 C 196.649 26.243,196.333 26.182,195.649 26.186 C 194.965 26.189,194.722 26.253,195.109 26.327 M198.527 26.327 C 198.914 26.401,199.473 26.399,199.771 26.321 C 200.068 26.243,199.751 26.182,199.068 26.186 C 198.384 26.189,198.141 26.253,198.527 26.327 M254.907 30.664 L 253.147 32.425 255.012 30.761 C 256.037 29.845,256.935 29.053,257.006 29.000 C 257.077 28.948,257.030 28.904,256.901 28.904 C 256.772 28.904,255.874 29.696,254.907 30.664 M275.991 30.925 C 276.571 31.523,277.115 32.012,277.200 32.012 C 277.286 32.012,276.881 31.523,276.301 30.925 C 275.722 30.326,275.177 29.837,275.092 29.837 C 275.006 29.837,275.411 30.326,275.991 30.925 M208.547 31.235 C 209.127 31.834,209.671 32.323,209.757 32.323 C 209.842 32.323,209.438 31.834,208.858 31.235 C 208.278 30.637,207.734 30.148,207.648 30.148 C 207.563 30.148,207.967 30.637,208.547 31.235 M182.225 41.181 C 182.227 42.207,182.285 42.589,182.354 42.030 C 182.423 41.472,182.422 40.632,182.351 40.165 C 182.280 39.698,182.224 40.155,182.225 41.181 M280.441 41.647 C 280.441 42.758,280.498 43.213,280.567 42.657 C 280.636 42.102,280.636 41.193,280.567 40.637 C 280.498 40.082,280.441 40.536,280.441 41.647 M258.881 43.493 C 256.749 43.886,253.364 45.312,251.363 46.661 C 250.382 47.322,249.471 47.863,249.338 47.863 C 249.205 47.863,248.694 50.695,248.202 54.157 C 247.710 57.618,247.119 61.709,246.888 63.248 C 246.657 64.786,246.268 67.444,246.023 69.153 C 245.437 73.241,243.515 86.386,242.728 91.686 C 241.917 97.154,240.316 108.140,239.785 111.888 C 239.554 113.512,239.071 116.799,238.711 119.192 C 238.351 121.585,237.852 125.012,237.601 126.807 C 237.351 128.601,236.861 131.958,236.514 134.266 C 236.166 136.573,235.729 139.580,235.542 140.948 C 234.479 148.722,228.469 148.507,227.330 140.655 C 227.105 139.106,226.705 136.371,226.440 134.577 C 224.612 122.186,223.706 115.967,223.313 113.131 C 223.065 111.336,222.574 107.980,222.222 105.672 C 221.871 103.364,221.381 100.078,221.134 98.368 C 220.887 96.659,220.189 91.904,219.582 87.801 C 218.976 83.699,218.273 78.873,218.019 77.078 C 217.766 75.284,217.347 72.416,217.090 70.707 C 216.569 67.254,215.580 60.542,214.892 55.789 C 214.644 54.079,214.353 51.936,214.246 51.027 C 214.138 50.117,213.954 49.528,213.837 49.718 C 213.696 49.946,212.947 49.653,211.629 48.856 C 205.827 45.343,199.057 44.857,193.162 47.530 C 189.955 48.984,188.128 50.487,184.869 54.351 L 184.034 55.340 184.473 58.051 C 184.715 59.542,185.410 64.398,186.018 68.842 C 186.626 73.287,187.325 78.322,187.572 80.031 C 187.819 81.740,188.175 84.258,188.362 85.625 C 188.550 86.993,188.893 89.441,189.125 91.064 C 189.356 92.688,189.761 95.587,190.024 97.506 C 190.926 104.072,192.409 114.528,192.864 117.520 C 193.113 119.164,193.318 120.592,193.318 120.694 C 193.318 120.795,194.072 121.723,194.993 122.755 C 200.177 128.565,200.563 130.495,200.701 151.282 L 200.815 168.454 216.150 168.454 C 232.966 168.454,235.336 168.646,241.150 170.483 C 249.501 173.121,257.971 179.095,262.559 185.584 C 263.800 187.339,263.869 187.181,263.869 182.621 C 263.869 171.267,264.919 156.486,266.664 143.279 C 267.014 140.629,267.429 137.413,267.585 136.131 C 267.905 133.511,269.544 121.759,270.252 117.016 C 271.217 110.543,272.300 102.903,272.733 99.515 C 272.980 97.582,273.321 95.135,273.492 94.076 C 273.662 93.018,274.298 88.516,274.905 84.071 C 275.511 79.627,276.151 75.012,276.326 73.815 C 276.502 72.618,276.857 70.031,277.116 68.065 C 277.558 64.701,277.740 63.361,278.903 54.862 C 279.159 52.985,279.309 51.388,279.234 51.314 C 279.160 51.239,279.099 51.348,279.099 51.556 C 279.099 51.763,278.015 50.828,276.690 49.478 C 271.925 44.622,265.140 42.342,258.881 43.493 M188.034 126.651 C 188.963 127.591,189.792 128.361,189.878 128.361 C 189.963 128.361,189.273 127.591,188.345 126.651 C 187.416 125.711,186.587 124.942,186.501 124.942 C 186.416 124.942,187.106 125.711,188.034 126.651 M160.445 136.441 C 160.445 137.040,160.509 137.284,160.587 136.985 C 160.665 136.686,160.665 136.197,160.587 135.897 C 160.509 135.598,160.445 135.843,160.445 136.441 M172.650 137.023 C 168.538 137.908,164.636 140.149,161.861 143.220 C 161.241 143.907,160.653 144.387,160.553 144.288 C 160.454 144.189,160.373 149.865,160.373 156.902 C 160.373 163.939,160.478 169.695,160.606 169.694 C 160.734 169.692,161.538 169.450,162.393 169.156 C 163.746 168.691,165.836 168.601,178.555 168.460 L 193.162 168.298 193.174 152.448 C 193.181 143.730,193.142 138.310,193.087 140.404 C 192.977 144.624,192.986 144.603,191.847 143.250 C 187.555 138.149,179.523 135.543,172.650 137.023 M147.009 143.998 C 147.009 144.051,147.463 144.506,148.019 145.008 L 149.029 145.921 148.116 144.911 C 147.265 143.969,147.009 143.758,147.009 143.998 M132.449 154.782 C 128.559 155.604,124.983 157.591,122.158 160.500 C 120.306 162.407,120.313 162.413,120.212 158.586 C 120.164 156.748,120.174 161.608,120.234 169.386 C 120.354 184.998,120.436 185.782,122.298 189.122 C 129.441 201.937,149.067 199.186,152.435 184.897 C 152.938 182.762,153.162 161.873,152.681 161.978 C 152.552 162.006,151.567 161.170,150.491 160.120 C 145.915 155.658,138.576 153.486,132.449 154.782 M182.075 176.146 C 191.020 176.192,205.565 176.192,214.398 176.146 C 223.231 176.100,215.913 176.063,198.135 176.063 C 180.357 176.063,173.130 176.100,182.075 176.146 M162.027 178.166 C 161.681 178.551,161.287 179.075,161.151 179.332 C 160.888 179.826,160.960 179.759,162.219 178.322 C 162.631 177.852,162.898 177.467,162.812 177.467 C 162.727 177.467,162.374 177.782,162.027 178.166 M252.836 186.169 C 253.504 186.853,254.120 187.413,254.205 187.413 C 254.291 187.413,253.815 186.853,253.147 186.169 C 252.479 185.486,251.863 184.926,251.777 184.926 C 251.692 184.926,252.168 185.486,252.836 186.169 M271.437 188.967 C 271.437 190.420,271.491 191.014,271.556 190.287 C 271.622 189.561,271.622 188.372,271.556 187.646 C 271.491 186.919,271.437 187.514,271.437 188.967 M163.947 188.547 C 163.092 188.810,162.230 189.160,162.030 189.324 C 161.784 189.526,161.553 189.441,161.316 189.062 C 160.759 188.171,161.212 189.657,162.310 192.329 C 165.283 199.557,171.336 204.798,179.327 207.063 C 181.563 207.697,182.423 207.730,199.378 207.836 C 220.169 207.966,220.047 207.944,220.047 211.552 C 220.047 214.318,218.773 215.205,214.356 215.519 C 200.158 216.528,188.733 227.213,186.812 241.281 C 186.630 242.618,186.480 246.434,186.480 249.761 C 186.480 254.165,186.365 256.084,186.056 256.823 C 185.068 259.187,181.874 259.702,180.068 257.787 L 179.021 256.677 179.021 248.963 C 179.021 234.151,181.895 226.649,190.948 217.832 L 193.396 215.449 186.908 215.299 C 171.613 214.946,163.396 209.967,155.651 196.359 C 155.508 196.107,154.785 196.630,153.495 197.921 C 144.794 206.621,132.062 207.498,121.925 200.094 C 121.035 199.444,120.230 198.912,120.138 198.912 C 119.654 198.912,119.996 216.102,120.570 220.687 C 127.702 277.594,192.898 304.824,236.985 269.308 C 255.974 254.011,266.929 227.333,263.192 205.484 C 262.191 199.632,250.381 191.465,239.161 188.864 C 235.352 187.981,166.718 187.692,163.947 188.547 " stroke="none" fill="#248bdb" fill-rule="evenodd"></path></g></svg>