<svg width="400" height="607" viewBox="0 0 400 607" fill="none" xmlns="http://www.w3.org/2000/svg">
<g id="knight" clip-path="url(#clip0)">
<path id="path0" fill-rule="evenodd" clip-rule="evenodd" d="M195.1 37.5C195 37.6 194.8 39.7 194.8 42C194.8 44.3 194.6 50 194.4 54.6C194.2 59.2 193.8 67.7 193.6 73.4C192.7 96.9 192.4 103 191.8 111.8C191.5 116.9 191 125.1 190.8 130.2C190.6 135.3 190.1 143.9 189.8 149.4C188.8 164.9 188.2 180.9 188.5 181C188.6 181.1 190.6 180.3 192.9 179.2C197.4 177 208.5 172.4 211 171.6C211.9 171.3 213.1 170.9 213.8 170.6C215.3 170 219.9 168.1 232 163.4C235.2 162.2 238.2 161 238.8 160.7C251.3 155.5 249.5 155.3 257.6 161.9C260.2 164 263.1 166.3 263.9 166.9C264.7 167.5 267.3 169.7 269.6 171.8C271.9 173.8 274.7 176.2 276 177.2C277.3 178.2 282.3 183 287.3 187.9C293.1 193.6 296.5 196.7 296.6 196.3C296.7 196 297.1 191.1 297.4 185.5C298.6 165.9 299.6 151.6 300.8 136.3C301.5 127.8 302.4 115.3 302.8 108.5C303.2 101.7 303.8 93.9 304 91.3C304.6 83.9 305.7 56.9 305.5 53.2L305.4 49.9L300.8 53C298.2 54.7 293.4 58 290 60.3C284.3 64.2 280.7 66.7 262.5 79.1C258.9 81.6 254.8 84.3 253.5 85.2C249.8 87.8 250 87.8 246.6 84.5C244.9 82.9 238 76.5 231.3 70.2C224.6 64 217.7 57.6 216.1 56C214.4 54.4 212.2 52.4 211.1 51.4C210 50.4 206.3 47 202.9 43.8C195.7 37.3 195.4 37.1 195.1 37.5ZM245.8 164.1C245.4 164.4 243.7 165 242.2 165.6C240.7 166.2 236.5 167.8 233 169.3C229.5 170.8 224 173 220.8 174.3C213.2 177.4 204.6 181 202.6 182C196.7 184.8 188.5 188.8 188.2 189.2C187.7 189.6 187.6 192.1 186.4 222.6C186 234.3 185.6 247.9 185.6 253C185.6 258.1 185.5 262.6 185.4 263C185.2 263.8 184.9 263.8 175.3 264.1C169.9 264.2 161.2 264.6 156 264.9C150.8 265.2 142.5 265.7 137.4 265.9C114.6 266.9 104.3 268 93.2 270.5C89.8 271.3 84 272.5 80.4 273.3C75.9 274.3 72 275.4 68 277C64.8 278.2 60 280.1 57.2 281.1C50.9 283.5 51.1 283.2 52.7 287C53.4 288.7 54.5 291.4 55.1 292.9C55.7 294.4 56.7 296.8 57.2 298.1C60.4 305.8 62.1 310 62.9 312.3C63.4 313.7 64.4 316.3 65.1 318.1C67.9 325.4 70.7 333 70.7 333.4C70.7 333.9 69.2 339.4 66.9 347.1C66.1 349.9 65.1 353.2 64.7 354.5C63 360.4 59.7 370.8 57.7 376.9C55 385.1 54.3 388.6 54.3 395.2C54.3 401.2 53.8 400.8 59.9 399.5C68.4 397.8 90.4 396.1 115.3 395.4C133.3 394.9 176.9 395.1 177.4 395.6C177.6 395.8 177.6 397.8 177.4 400.4C177.2 402.8 176.6 413.7 176.1 424.6C175.5 435.5 174.8 449.3 174.5 455.3C174.2 461.3 173.9 468.7 173.9 471.6C173.9 474.6 173.8 478.6 173.7 480.5L173.4 484L179.7 487.1C189.9 492.1 220 506.8 225.5 509.6L230.6 512.1L234.1 510.4C236 509.4 240.6 507.1 244.4 505.3C264.7 495.2 280.7 486.2 281.7 484.2C282 483.7 282.4 481.2 282.6 478.7C282.8 476.2 283.2 473.2 283.4 471.9C283.6 470.7 284.3 464.1 284.8 457.2C285.4 450.4 286.3 439.6 286.8 433.2C287.3 426.8 288.1 417.9 288.5 413.4L289.2 405.2L291.2 405.1C300.1 404.5 330.8 407.2 348.4 410.3C353.7 411.2 358.7 412 359.5 412.2L361 412.4V409.2C361 407.5 361.2 404.1 361.4 401.6C362.2 392.1 362.7 379.1 363 355.7C363.2 342.3 363.5 328.9 363.8 326C364.8 313.9 365.5 296.5 365 296C363.1 293.7 345.3 286 336.9 283.8C333.6 282.9 328.6 281.6 325.9 280.8C323.1 280 318.5 278.9 315.5 278.4C312.5 277.9 308.1 277 305.7 276.6C303.3 276.1 299.8 275.6 297.9 275.5L294.5 275.2L294.6 267.4C294.8 254.9 295.9 215.2 296.1 210.6L296.4 206.4L294.3 204.1C293.2 202.8 292.2 201.5 292.2 201.3C292.2 200.1 267.1 176.3 261.2 172C251.8 164.8 247.9 162.9 245.8 164.1ZM345.3 312.5C348.5 313 348.6 313.3 346.1 314.1C345.1 314.5 342.9 315.2 341.4 315.8C339 316.7 328.4 318.2 323 318.4C322.1 318.4 321.7 318.1 326.1 320.9C337.9 328.4 341.9 346.7 334.3 357.9C327.5 368 309.2 371.1 298.2 364.1C285.1 355.8 284.6 331.5 297.3 321.1L299 319.7L294.2 319.5C285.6 319.1 289.8 316.1 300.8 314.7C326.1 311.6 336.4 311.1 345.3 312.5ZM201.2 430.6C202.4 431.2 203.6 433 203.6 434.1C203.6 435.8 218.8 442.1 225.1 443.1C230.3 443.9 248.4 443.4 254.8 442.3C261.8 441.1 265.1 442.5 265.1 446.6C265.1 450.1 263.4 451.3 256.9 451.9C254.3 452.2 251.2 452.6 250.1 452.8C246.7 453.5 228.3 453.7 225 453.1C219.6 452.1 215.6 451 209 448.5C205.7 447.2 206.1 447.2 205.3 448.9C202.9 453.9 196.7 452.5 195.4 446.7C195.1 445.3 194.3 442.9 193.7 441.5C190.6 434.1 195.1 427.5 201.2 430.6ZM113 464.1C112.6 466 111.9 468 111.6 468C111.4 468 111.2 468.7 111 469.6C110.8 470.5 110.5 471.3 110.2 471.5C109.4 471.9 103.8 490.9 103 495.6C102.7 497.7 102.2 500.4 102 501.6C101.8 502.8 100.9 510.4 100 518.4C98.2 535.2 97 545.3 93.2 576.8C92.3 583.9 92.1 595.4 92.8 595.8C93.4 596.2 93.3 596.9 92.6 596.7C92.1 596.5 92 596.9 92 599.1C92 600.6 91.8 601.7 91.6 601.7C91.4 601.7 91.2 602.7 91.2 603.9V606.1H200.9H310.6L310.4 601.4C310 593 309 579.2 308.5 575.5C308.3 573.5 307.6 567.7 307.1 562.5C306.1 552.6 304.7 539.7 303.3 528.2C302.9 524.4 302.1 518.9 301.5 516C301 513.1 300 507.5 299.3 503.7C298.6 499.8 297.8 496 297.5 495.2C297.2 494.4 296.9 493.3 296.9 492.7C296.9 492.1 296.6 491.6 296.1 491.5C295.3 491.2 295 490.1 295.7 490.1C295.9 490.1 296.1 489.8 296.1 489.5C296.1 489.2 295.8 488.9 295.3 488.9C294.1 488.9 293.2 489.3 293.5 489.8C293.7 490.1 293.5 490.1 293 489.9C291.9 489.5 288.8 491.1 288.8 492.1C288.8 493 287.8 493.1 287.4 492.4C287.2 492 287.1 492 286.9 492.4C286.8 492.7 286.4 492.9 286.2 492.9C285.6 492.9 283.1 494.1 282.8 494.5C282.7 494.7 281.7 495.1 280.6 495.5C279.5 495.9 278.5 496.3 278.4 496.5C278.3 496.7 277.3 497.1 276.2 497.5C275.1 497.9 273.9 498.5 273.6 498.7C273.3 499 272.4 499.4 271.7 499.7C271 500 270.4 500.3 270.4 500.5C270.4 500.6 269.8 501 269 501.3C268.2 501.6 267.2 502.3 266.8 502.8C266.3 503.4 265.9 503.7 265.8 503.6C265.2 503 263.2 504.2 263.5 505C263.6 505.4 263.5 505.8 263.3 505.8C263.1 505.8 262.9 505.6 262.9 505.4C262.9 505 260.1 506 259.7 506.6C259.6 506.8 258.6 507.2 257.6 507.6C256.6 508 255.7 508.5 255.7 508.7C255.7 508.9 255.4 509 255.1 509C254.8 509 254.5 509.2 254.5 509.4C254.5 509.6 254.1 509.8 253.5 509.8C253 509.8 252.3 510 252 510.3C251.7 510.6 250.7 511.2 249.9 511.6C249 512 248.1 512.6 247.8 512.9C247.5 513.2 247 513.4 246.7 513.4C246.1 513.4 244.5 514.2 244.1 514.7C244 514.8 243.5 515 243.1 515.1C242.6 515.2 242.2 515.6 242.2 516.1C242.1 517 241.3 517.4 241.3 516.6C241.3 515.8 236.2 517.7 235.8 518.7C235.7 518.9 234.8 519.3 233.7 519.6C231.9 520.2 231.8 520.4 232 521.2C232.1 521.8 232.1 522.2 231.8 522.2C231.6 522.2 231.4 521.9 231.4 521.6C231.4 521.2 231 521 230 521C229.2 521 228.6 520.8 228.5 520.7C228.2 520 219.6 516 219.5 516.5C219.2 517.3 218.2 517.1 218.2 516.2C218.2 515.4 217.5 515 216.2 515C215.8 515 215.4 514.7 215.4 514.4C215.4 513.9 215.1 513.8 214 514C212.9 514.2 212.6 514.1 212.6 513.7C212.6 513.4 212.4 513 212.2 512.9C212 512.8 211.9 513.3 212 514.2C212.4 517.3 212.5 517.5 214 517.7C214.8 517.8 215.4 518.1 215.4 518.3C215.4 518.6 217.6 519.2 220.2 519.7C221 519.8 221.7 520.1 221.8 520.3C221.9 520.5 222.6 520.8 223.2 520.9C225.3 521.2 227.8 522 227.8 522.3C227.8 522.5 229.2 522.9 231 523.3L234.2 524.1L234.1 527.5C234.1 529.4 233.9 531 233.7 531.1C233.5 531.2 233.1 533.1 232.8 535.3C232.4 537.5 231.9 540.3 231.6 541.5C231.3 542.7 230.8 545.5 230.6 547.8C230 553.1 230.7 552.7 219.3 553.2C214 553.4 209.5 553.7 209.3 553.9C209.2 554 208.6 555.8 208 557.8C207.4 559.8 206.5 562.7 206 564.4C205.5 566.1 204.8 568.4 204.4 569.7C204 571 203.5 572.2 203.1 572.4C201 573.5 191.9 573.9 185.4 573.3C183.3 573.1 179.4 572.7 176.6 572.5C170.6 572.1 171.1 573.1 170.8 562C170.7 556.9 170.5 552.7 170.4 552.6C170.3 552.5 169.5 552.3 168.7 552.1C167.3 551.8 160.9 550.4 155.1 549.2C153.8 548.9 152.4 548.5 152.2 548.4C151.7 548.1 151.9 525.2 152.4 521.9C152.6 520.4 152 520.6 164.2 517.8C172.9 515.8 174.6 515.1 173.3 514.1C172.9 513.8 172.5 512.8 172.4 511.8C172.2 510.4 172.3 510.1 172.7 510.5C173.6 511.4 173.8 511.1 174.3 507.5C174.6 505.6 174.9 503.9 175.1 503.8C176.1 503.1 176 500.2 174.9 500.2C174.1 500.2 173.9 500 173.9 499.4C173.9 498.7 174.2 498.6 175.4 498.6C176.3 498.6 176.7 498.5 176.4 498.3C175.8 497.9 175.9 497 176.5 496.6C177 496.2 176.4 494.9 175.9 495.3C175.7 495.4 175.5 495.4 175.5 495.2C175.5 495 174.7 494.5 173.7 494.1C172.7 493.7 171.9 493.3 171.9 493.1C171.9 492.9 171.2 492.6 170.3 492.3C169.4 492 168.6 491.6 168.4 491.3C168.2 491 167.3 490.5 166.2 490.1C165.2 489.7 164.3 489.3 164.3 489.1C164.3 488.9 163.4 488.5 162.4 488.1C161.4 487.7 160.4 487.3 160.3 487.1C160.2 486.9 159.3 486.5 158.3 486.1C157.3 485.7 156.4 485.3 156.3 485.1C156.2 484.9 155.3 484.5 154.3 484C153.3 483.6 152.2 482.9 151.8 482.5C151.4 482.1 150.6 481.8 150.1 481.8C149.5 481.8 149.1 481.6 149.1 481.2C149.1 480.5 148.4 480.4 148.2 481.1C148.1 481.4 148 481.4 148 481C148 480.7 147.3 480.1 146.5 479.8C145.7 479.5 144.9 479.1 144.7 478.8C144.5 478.5 144.3 478.5 144.2 478.9C143.9 479.7 142.9 479.5 142.9 478.6C142.9 478.1 142.5 477.7 141.9 477.6C141.4 477.5 140.9 477.2 140.9 477.1C140.9 476.9 137.4 475 134.7 473.8C134 473.5 133.4 473.1 133.2 472.9C133 472.6 132.8 472.7 132.7 473C132.4 473.7 131.4 473.6 131.4 472.9C131.4 472.6 131.6 472.2 131.9 472.1C132.2 472 132 472 131.5 472.1C131 472.2 130.6 472.1 130.6 471.9C130.6 471.7 130.2 471.6 129.8 471.7C129.2 471.9 129 471.7 129 471.1C129 470.2 127.3 469.4 125.5 469.4C124.9 469.4 124 468.9 123.2 468C122.5 467.2 121.7 466.6 121.5 466.6C120.9 466.6 118.4 465.3 118.1 464.9C118 464.7 117.7 464.8 117.6 465.2C117.5 465.5 117.2 465.8 116.9 465.8C116.3 465.8 116.4 464.6 117 464.6C117.6 464.6 115 463.4 114.3 463.4C113.5 462.8 113.1 463.4 113 464.1ZM114.8 463.6C114.8 463.8 114.6 464 114.4 464C114.2 464 114 464.3 114 464.6C114 464.9 113.8 465.2 113.6 465.2C113 465.2 113.1 464.5 113.7 463.8C114.3 463.1 114.8 463 114.8 463.6ZM119.9 466.7C120 467 119.8 467.2 119.4 467.2C119.1 467.2 118.8 466.9 118.8 466.6C118.8 465.9 119.7 466 119.9 466.7ZM120 468.2C120 468.5 119.7 468.8 119.4 468.8C119.1 468.8 118.8 468.5 118.8 468.2C118.8 467.9 119.1 467.6 119.4 467.6C119.7 467.6 120 467.9 120 468.2ZM125.6 470.6C125.6 470.9 125.3 471.2 125 471.2C124.7 471.2 124.4 470.9 124.4 470.6C124.4 470.3 124.7 470 125 470C125.3 470 125.6 470.3 125.6 470.6ZM118.3 473.3C118.2 473.6 117.8 473.9 117.4 473.9C116.7 474 116.7 474 117.2 473.4C117.8 472.7 118.5 472.6 118.3 473.3ZM116.6 474C116.8 474.8 116.6 475.5 116.2 475.1C115.8 474.6 115.5 473.1 115.9 473.1C116.2 473.2 116.5 473.6 116.6 474ZM120 474.6C120 474.9 119.7 475.2 119.4 475.2C119.1 475.2 118.8 474.9 118.8 474.6C118.8 474.3 119.1 474 119.4 474C119.7 474 120 474.3 120 474.6ZM132.4 474.6C132.4 474.9 132.2 475.2 132 475.2C131.8 475.2 131.6 474.9 131.6 474.6C131.6 474.3 131.8 474 132 474C132.2 474 132.4 474.3 132.4 474.6ZM135 475.4C135.8 475.7 135.8 476.8 135 476.8C134.7 476.8 134.4 476.7 134.4 476.6C134.4 476.5 134.3 476.1 134.2 475.8C133.9 475.1 134 475.1 135 475.4ZM138.8 476.2C138.8 476.5 138.6 476.8 138.4 476.8C138.2 476.8 138 476.5 138 476.2C138 475.9 138.2 475.6 138.4 475.6C138.6 475.6 138.8 475.9 138.8 476.2ZM124 476.6C124 476.9 123.7 477.2 123.4 477.2C123.1 477.2 122.8 476.9 122.8 476.6C122.8 476.3 123.1 476 123.4 476C123.7 476 124 476.3 124 476.6ZM140.4 478.2C140.4 478.5 140.2 478.8 140 478.8C139.8 478.8 139.6 478.5 139.6 478.2C139.6 477.9 139.8 477.6 140 477.6C140.2 477.6 140.4 477.9 140.4 478.2ZM122.4 478.6C122.4 478.9 122.2 479.2 122 479.2C121.8 479.2 121.6 478.9 121.6 478.6C121.6 478.3 121.8 478 122 478C122.2 478 122.4 478.3 122.4 478.6ZM151.6 482.6C151.6 482.9 151.3 483.2 151 483.2C150.7 483.2 150.4 482.9 150.4 482.6C150.4 482.3 150.7 482 151 482C151.3 482 151.6 482.3 151.6 482.6ZM149.6 484.2C149.6 484.5 149.3 484.8 149 484.8C148.7 484.8 148.4 484.5 148.4 484.2C148.4 483.9 148.7 483.6 149 483.6C149.3 483.6 149.6 483.9 149.6 484.2ZM136 484.6C136 484.9 135.7 485.2 135.4 485.2C135.1 485.2 134.8 484.9 134.8 484.6C134.8 484.3 135.1 484 135.4 484C135.7 484 136 484.3 136 484.6ZM134.7 485.8C135 486.6 134.5 487.1 134 486.4C133.5 485.6 133.5 485.2 134 485.2C134.2 485.2 134.5 485.5 134.7 485.8ZM158 487.2C158 487.4 157.7 487.6 157.4 487.6C157.1 487.6 156.8 487.4 156.8 487.2C156.8 487 157.1 486.8 157.4 486.8C157.7 486.8 158 487 158 487.2ZM136 487.6C136 487.8 135.7 488 135.4 488C135.1 488 134.8 487.8 134.8 487.6C134.8 487.4 135.1 487.2 135.4 487.2C135.7 487.2 136 487.4 136 487.6ZM159.6 487.6C159.6 487.8 159.3 488 159 488C158.7 488 158.4 487.8 158.4 487.6C158.4 487.4 158.7 487.2 159 487.2C159.3 487.2 159.6 487.4 159.6 487.6ZM165.6 490.8C165.6 491.2 165.3 491.7 164.9 491.8C164 492.1 163.9 492 164.2 490.9C164.5 489.8 165.6 489.7 165.6 490.8ZM148 492.2C148 492.6 146.8 493.7 146.6 493.5C146.2 493.1 146.9 492 147.5 492C147.7 492 148 492.1 148 492.2ZM148 494.6C148 494.9 147.7 495.2 147.4 495.2C147.1 495.2 146.8 494.9 146.8 494.6C146.8 494.3 147.1 494 147.4 494C147.7 494 148 494.3 148 494.6ZM177 495.9C176.5 496.3 176.3 497.2 176.8 497.2C177 497.2 177.2 496.8 177.4 496.4C177.6 495.5 177.6 495.5 177 495.9ZM292 496.6C292 496.9 292.2 497.2 292.5 497.2C292.9 497.2 292.9 497.3 292.5 497.7C292 498.2 291.8 498.1 291.4 496.9C291.2 496.4 291.3 496 291.5 496C291.8 496 292 496.3 292 496.6ZM149.8 497.5C149.9 497.9 150 498.3 149.8 498.4C149.7 498.5 149.6 498.4 149.6 498.1C149.6 497.8 149.3 497.6 149 497.6C148.7 497.6 148.4 497.4 148.4 497.2C148.4 496.5 149.5 496.7 149.8 497.5ZM284.8 501.2C284.8 501.4 284.5 501.6 284.2 501.6C283.9 501.6 283.6 501.4 283.6 501.2C283.6 501 283.9 500.8 284.2 500.8C284.5 500.8 284.8 501 284.8 501.2ZM158 501.6C158 501.8 157.7 502 157.4 502C157.1 502 156.8 501.8 156.8 501.6C156.8 501.4 157.1 501.2 157.4 501.2C157.7 501.2 158 501.4 158 501.6ZM271.2 502.2C271.2 502.5 270.9 502.8 270.6 502.8C270.3 502.8 270 502.5 270 502.2C270 501.9 270.3 501.6 270.6 501.6C270.9 501.6 271.2 501.9 271.2 502.2ZM285.2 502.6C285.2 502.9 284.9 503.2 284.6 503.2C284.3 503.2 284 502.9 284 502.6C284 502.3 284.3 502 284.6 502C284.9 502 285.2 502.3 285.2 502.6ZM173.6 504.6C173.6 504.9 173.3 505.2 173 505.2C172.7 505.2 172.4 504.9 172.4 504.6C172.4 504.3 172.7 504 173 504C173.3 504 173.6 504.3 173.6 504.6ZM276.6 505.4C277.3 506.1 277.3 506.8 276.6 506.8C276.3 506.8 276 506.6 276 506.4C276 506.2 275.9 505.7 275.8 505.4C275.5 504.6 275.9 504.6 276.6 505.4ZM172.7 508.1C172.5 509.1 171.6 509.6 171.6 508.6C171.6 508.2 171.8 508.1 172.1 508.2C172.4 508.4 172.5 508.3 172.3 507.8C172.2 507.4 172.2 507.1 172.5 507.1C172.7 507.2 172.8 507.6 172.7 508.1ZM260 508C260 508.4 259.7 508.8 259.4 508.8C259.1 508.8 258.8 508.4 258.8 508C258.8 507.6 259.1 507.2 259.4 507.2C259.7 507.2 260 507.6 260 508ZM172.8 511.6C172.8 512 173 512.4 173.2 512.4C173.4 512.4 173.6 512 173.6 511.6C173.6 511.2 173.4 510.8 173.2 510.8C173 510.8 172.8 511.2 172.8 511.6ZM267.2 512.8C267.2 513 266.9 513.2 266.6 513.2C266.3 513.2 266 513.4 265.9 513.7C265.8 514 265.6 514.1 265.4 513.9C265 513.6 266 512.4 266.7 512.4C267 512.4 267.2 512.6 267.2 512.8ZM215.2 516.2C215.2 516.5 214.9 516.8 214.6 516.8C214.3 516.8 214 516.5 214 516.2C214 515.9 214.3 515.6 214.6 515.6C214.9 515.6 215.2 515.9 215.2 516.2ZM258 516.8C258 517 257.7 517.2 257.4 517.2C257.1 517.2 256.8 517 256.8 516.8C256.8 516.6 257.1 516.4 257.4 516.4C257.7 516.4 258 516.6 258 516.8ZM221.2 517.6C221.2 517.8 220.9 518 220.6 518C220.3 518 220 517.8 220 517.6C220 517.4 220.3 517.2 220.6 517.2C220.9 517.2 221.2 517.4 221.2 517.6ZM239.6 518.1C239.6 518.7 238 520.2 237.7 519.9C237.6 519.8 237.7 519.2 238 518.7C238.5 517.6 239.6 517.2 239.6 518.1ZM257.6 519.2C258.4 519.7 258 520 256.9 519.8C256.4 519.7 256.1 519.4 256.2 519.2C256.5 518.7 256.8 518.7 257.6 519.2ZM253.6 521.2C253.6 521.4 253.3 521.6 253 521.6C252.7 521.6 252.4 521.4 252.4 521.2C252.4 521 252.7 520.8 253 520.8C253.3 520.8 253.6 521 253.6 521.2ZM235.2 521.6C235.2 521.8 234.9 522 234.6 522C234.3 522 234 521.8 234 521.6C234 521.4 234.3 521.2 234.6 521.2C234.9 521.2 235.2 521.4 235.2 521.6ZM249.6 522.2C249.6 522.5 249.3 522.8 249 522.8C248.7 522.8 248.4 522.5 248.4 522.2C248.4 521.9 248.7 521.6 249 521.6C249.3 521.6 249.6 521.9 249.6 522.2ZM236 523C236 523.3 235.6 523.6 235.2 523.6C234.8 523.6 234.4 523.3 234.4 523C234.4 522.7 234.8 522.4 235.2 522.4C235.6 522.4 236 522.7 236 523ZM249.6 523.6C249.6 523.8 249.3 524 249 524C248.7 524 248.4 523.8 248.4 523.6C248.4 523.4 248.7 523.2 249 523.2C249.3 523.2 249.6 523.4 249.6 523.6ZM235.6 527.2C235.6 527.4 235.3 527.6 235 527.6C234.7 527.6 234.4 527.4 234.4 527.2C234.4 527 234.7 526.8 235 526.8C235.3 526.8 235.6 527 235.6 527.2ZM101.2 603.8C101.2 604.1 101 604.4 100.8 604.4C100.6 604.4 100.4 604.1 100.4 603.8C100.4 603.5 100.6 603.2 100.8 603.2C101 603.2 101.2 603.5 101.2 603.8Z" fill="#F7F7F7"/>
<path id="path1" fill-rule="evenodd" clip-rule="evenodd" d="M203.2 0.199997C202.2 0.299997 197.5 0.599997 192.8 0.799997C188.1 0.999997 184.1 1.4 184.1 1.6C183.9 2.1 182.2 2.1 181.9 1.6C181.7 1.2 179.3 1.5 179.3 1.9C179.3 2.2 175.2 2.6 170.3 2.9C169.2 3 168.2 3.2 168.2 3.5C168.1 3.8 167.3 3.9 166 3.7C164.7 3.6 164.2 3.6 164.7 3.8C165.2 4 164 4.3 160.8 4.7C158.2 5 156.1 5.4 156.1 5.6C156.1 5.8 155.6 6 155.2 6C154.8 6 154.4 5.8 154.4 5.6C154.4 5.4 154.1 5.3 153.8 5.4C153.5 5.5 153.3 5.8 153.4 5.9C153.5 6.1 152.2 6.4 150.5 6.7C148.8 7 147.3 7.4 147.1 7.7C146.9 8 146.7 8 146.6 7.7C146.5 7.5 146 7.3 145.4 7.5C144.8 7.6 144.6 7.8 144.9 8C145.2 8.2 144.1 8.5 142.6 8.8C141.1 9.1 139.7 9.5 139.5 9.8C139.3 10.1 139.1 10.1 139 9.8C138.9 9.5 138.5 9.4 138.2 9.5C137.9 9.6 137.7 9.9 137.9 10.1C138.1 10.4 137.8 10.4 137.3 10.3C136.8 10.2 136.3 10.2 136.2 10.4C136.1 10.6 135.1 10.8 134 11C132.9 11.2 132 11.4 132 11.6C132 11.8 131.5 11.8 130.9 11.7C130.3 11.6 129.9 11.7 130.1 11.9C130.2 12.1 129.3 12.5 128 12.8C126.7 13.1 125.6 13.5 125.6 13.7C125.6 13.9 125 14 124.3 13.8C123.5 13.6 123.2 13.7 123.5 13.9C124.1 14.3 120.9 15.3 120.3 14.9C120.1 14.8 119.9 15 119.7 15.3C119.5 15.7 119.2 15.9 118.7 15.7C118.2 15.6 118 15.6 118.1 15.8C118.2 16 117.4 16.4 116.1 16.7C114.9 17 113.9 17.4 113.9 17.6C113.9 17.8 113.4 17.8 112.8 17.7C112.2 17.5 111.8 17.6 112 17.8C112.1 18 111.3 18.4 110.2 18.7C109.1 19 108 19.4 107.8 19.7C107.6 20 107.5 20 107.5 19.7C107.5 19.4 107.1 19.3 106.7 19.5C106.1 19.7 106 19.8 106.4 20C106.7 20.2 106 20.5 104.6 20.8C103.4 21.1 102.3 21.5 102.3 21.6C102.3 21.8 102 21.8 101.6 21.7C101.2 21.5 101 21.6 101.2 21.9C101.5 22.4 99.7 23 99 22.6C98.8 22.5 98.6 22.6 98.6 22.8C98.6 23 98.3 23.2 98 23.2C97.7 23.2 97.4 23.4 97.4 23.5C97.4 23.7 96.3 24.2 95 24.6C93.7 25 92.6 25.5 92.6 25.6C92.6 25.9 90.5 26.5 89.3 26.5C89.1 26.5 88.7 26.8 88.3 27.2C87.6 27.8 85.8 28.5 84.7 28.5C84.4 28.5 83.9 28.8 83.5 29.2C83.1 29.6 81.8 30.2 80.6 30.6C79.4 31 78.4 31.4 78.2 31.6C77.9 32.1 74.9 33.2 74.6 33C74.4 32.9 74.2 33 74.2 33.4C74.2 33.8 73.4 34.3 72.1 34.7C70.9 35.1 69.9 35.6 69.8 35.8C69.7 36 69.4 36.2 69.3 36.2C68.9 36.2 66 37.4 65.8 37.7C65.7 37.9 64.7 38.3 63.7 38.7C62.7 39.1 61.8 39.5 61.8 39.7C61.8 39.8 60.9 40.3 59.8 40.7C58.7 41.1 57.8 41.6 57.8 41.7C57.8 42 54.6 43.2 54.1 43C54.1 42.8 54 43 54 43.4C54 43.9 52.3 44.7 51.5 44.5C51.3 44.5 51.2 44.6 51.2 44.8C51.2 45 50.9 45.2 50.6 45.2C50.1 45.2 50 46 50 49.8C50 53 49.9 54.3 49.6 54.2C49.3 54 49.2 55.8 49.2 60.5C49.3 70.3 47.9 111.8 47.6 112.1C47.4 112.2 47.3 114.5 47.3 117.1C47.4 123.3 47.4 122 46.7 141.7C46.4 151 46.1 161.5 46.1 164.9C46.1 169.3 45.9 170.9 45.7 170.5C45.4 170.1 45.3 171.9 45.4 176.5C45.4 180.1 45.4 184.3 45.2 185.7C45.1 187.1 44.9 192.5 44.7 197.7C44.2 223.5 43.9 230.5 43.7 230.5C43.6 230.5 43.2 240.7 43 253.2C42.4 282.2 42.6 280.4 40.1 282.3C39 283.1 38 283.8 37.8 283.8C37.3 283.8 36.4 284.6 36.7 284.9C36.9 285.2 36.2 286 35.5 286.1C34.9 286.2 33.8 286.9 34.3 286.9C34.5 286.9 34 287.6 33.2 288.3C32.4 289.1 31.6 289.6 31.4 289.5C31.2 289.4 30.8 289.8 30.4 290.4C30 291 29.2 291.8 28.5 292C27.8 292.3 27.4 292.7 27.5 292.9C27.6 293.1 27.5 293.3 27.3 293.3C27 293.3 26.9 299.3 26.9 312.6C26.9 334.5 27.3 350.1 27.8 349.8C28 349.7 28.1 352 28.1 354.9C28.1 359.6 28.3 363.1 29.1 373.4C29.2 374.7 29.4 375.9 29.6 376C29.8 376.1 30.2 378.1 30.6 380.4C31 382.7 31.4 384.7 31.6 384.8C32 385.1 33.1 388.4 33 389.1C33 389.4 33.2 389.6 33.5 389.6C34.1 389.6 34.6 390.7 34.3 391.2C34.2 391.4 34.3 391.6 34.5 391.6C34.7 391.6 35 392 35.2 392.4C35.3 392.8 35.6 393.1 35.8 393C36.1 392.8 36.6 393.7 36.6 394.6C36.6 394.8 37.1 395.2 37.6 395.5C38.1 395.8 38.6 396.3 38.6 396.6C38.6 396.9 39.1 397.5 39.7 397.9C41.7 399.2 43.4 400.9 43.1 401.4C43 401.6 43 401.7 43.2 401.6C43.6 401.3 45.2 402.3 45.3 402.9C45.3 403.1 45.4 403.5 45.4 403.8C45.4 404.1 45.6 404.1 45.8 403.7C46.1 403.2 46.2 403.2 46.2 403.6C46.2 405.2 47.1 413.9 47.3 414.5C47.4 414.8 47.5 415.9 47.4 416.8C47.4 417.7 47.5 418.5 47.7 418.5C47.9 418.5 48.2 419.7 48.3 421.2C48.4 422.7 48.6 424.1 48.6 424.4C48.6 424.7 49.4 425.1 50.2 425.4C51 425.7 51.6 426 51.5 426.3C51.4 426.5 51.4 426.6 51.7 426.4C51.9 426.3 52.8 426.6 53.6 427.1C54.4 427.7 55.3 428.1 55.6 428.1C55.9 428.1 56.3 428.3 56.4 428.6C56.6 428.9 57.3 429.4 58 429.7C60 430.5 59.9 430.8 57.5 431.6C56.3 432 55.4 432.4 55.5 432.6C55.6 432.8 55.2 433 54.6 433.2C54 433.4 53.4 433.5 53.3 433.6C53.2 433.6 52.7 433.8 52.2 434C51.7 434.2 51.4 434.4 51.5 434.6C51.6 434.8 51.1 435.1 50.4 435.4C49.7 435.7 48.3 436.5 47.3 437.2C46.3 437.9 45.2 438.4 44.9 438.3C44.6 438.2 44.5 438.3 44.6 438.5C44.7 438.7 44.3 439.4 43.6 439.9C42.9 440.5 41.9 441.3 41.4 441.7C40.9 442.1 40.4 442.4 40.3 442.2C40.1 442 40.1 442.1 40.2 442.3C40.3 442.5 39.5 443.6 38.5 444.7C35.8 447.6 35.5 448 34.7 449.4C34.3 450.1 33.9 450.8 33.7 451C33.5 451.1 33 451.8 32.6 452.6C32.2 453.4 31.6 453.9 31.4 453.9C31.1 453.8 31 454 31.2 454.1C31.5 454.5 30.1 457.5 29.8 457.2C29.7 457.1 29.3 457.8 28.9 458.9C28.5 459.9 27.9 461.1 27.5 461.5C27.1 461.9 26.8 462.4 26.8 462.5C26.7 463.5 26.1 465.4 25.8 465.4C25.6 465.4 25.2 466.7 24.8 468.2C24.3 469.9 23.9 471 23.5 471C23.2 471 23.1 471.2 23.2 471.4C23.5 471.8 22.2 478.4 21.8 478.6C20.3 479.7 20.4 503 21.9 503C22.1 503 22.2 503.5 22.2 504C22.2 504.6 22 505 21.8 505C21.6 505 21.2 505.6 21 506.3C20.8 507 20.2 507.8 19.9 508.1C19.5 508.4 19.4 508.6 19.7 508.4C20.5 508 20.3 508.8 19.4 509.4C19 509.7 18.7 510.2 18.8 510.4C18.9 510.7 18.6 511.3 18.1 511.8C17.6 512.3 17.4 512.6 17.7 512.4C18.5 511.9 18.3 512.7 17.4 513.4C17 513.7 16.7 514.1 16.8 514.3C17 514.6 16.2 516.7 15.7 517.1C15.6 517.2 15.1 518.2 14.7 519.2C14.3 520.2 13.8 521.1 13.6 521.1C13.4 521.1 13.3 521.4 13.3 521.7C13.3 522.1 13.1 522.2 12.8 522C12.5 521.8 12.4 521.9 12.6 522.1C13 522.7 12.5 523.8 12 523.5C11.7 523.3 11.7 523.6 11.8 524.1C11.9 524.6 11.9 525 11.7 525C11.5 525 11.2 525.6 10.9 526.4C10.6 527.2 10.3 527.7 10.1 527.6C9.9 527.5 9.7 527.6 9.7 528C9.7 529 8.2 531.9 7.9 531.6C7.7 531.4 7.7 531.6 7.8 531.9C7.9 532.2 7.7 532.7 7.4 532.9C6.9 533.3 6.6 534.1 6.5 535.4C6.5 535.7 6.3 535.8 6 535.6C5.7 535.4 5.6 535.6 5.8 536.2C5.9 536.7 5.9 537 5.7 537C3.9 537 4.6 540.5 6.6 541.6C7.3 542 8.3 542.8 8.8 543.6C9.5 544.5 9.9 544.8 10.1 544.5C10.3 544.2 10.4 545.2 10.4 546.6C10.4 548.5 10.3 549 10 548.4C9.7 547.8 9.7 548.3 9.8 549.9C9.9 551.2 9.8 552.3 9.7 552.4C9.5 552.5 9.2 554.5 8.9 556.8C8.6 559.4 8.2 560.9 8 560.8C7.7 560.6 7.7 561.1 7.9 562.2C8 563.1 8 563.9 7.8 563.9C7.6 563.9 7.2 565.8 7 568.1C6.7 571 6.4 572.2 6.1 571.8C5.9 571.4 5.8 571.9 6 573.2C6.2 574.3 6.1 575.1 5.9 575.1C5.7 575.1 5.3 577.1 5 579.5C4.7 582.3 4.3 583.7 4.1 583.4C3.9 583.1 3.9 583.7 4 584.8C4.2 585.9 4.1 586.7 3.9 586.7C3.7 586.7 3.3 588.5 3 590.7C2.6 593.5 2.4 594.6 2.1 594.2C1.8 593.8 1.8 594.2 2 595.4C2.1 596.3 2.1 597.1 1.9 597.1C1.7 597.1 1.4 598.6 1.1 600.5C0.799997 602.4 0.499997 604.5 0.399997 605.1L0.199997 606.3H45.2H90.2L90.7 602.2C91 599.9 91.5 595 91.8 591.1C92.5 582.6 93.2 576.3 93.4 575.5C93.5 575.2 94 570.7 94.6 565.7C95.2 560.7 95.8 555.1 96 553.3C96.7 547.8 99.2 525.7 100.2 516.5C100.7 511.7 101.3 506.6 101.5 505.3C101.7 504 102.1 501.4 102.3 499.5C102.8 495.7 104 490.1 105.2 486.5C105.6 485.2 106.4 482.5 107 480.5C108.9 473.9 113 462.4 113.6 461.7C113.9 461.4 120.5 464.5 129.4 469.3C130.7 470 137 473.3 143.4 476.6C149.8 479.9 158.2 484.3 162 486.3C165.8 488.3 180 495.4 193.4 502.1C228.1 519.3 229.7 520.1 231.2 519.7C232.2 519.5 252.1 509.6 256.8 507C263.3 503.4 266.3 501.8 275.9 496.8C281.5 493.9 295.2 487.6 296.4 487.4C297.1 487.3 297 487 298.6 495.7C299.2 498.8 300.1 503.7 300.6 506.7C301.2 509.7 302 514.1 302.4 516.5C303.2 521.1 304.5 531.7 306.2 548.1C306.7 553.4 307.3 558 307.4 558.3C307.5 558.6 307.9 562 308.2 565.7C308.5 569.4 309.1 574.8 309.4 577.7C309.7 580.6 310.3 587.6 310.6 593.3C310.9 599 311.3 604.3 311.4 605L311.6 606.3H314.8H318L317.8 604.6C317.6 602.9 317.1 597.9 315.6 584.1C315.2 579.9 314.9 576.4 315.1 576.2C315.4 575.9 317.4 575.5 324.3 574.4C326.4 574.1 328.6 573.6 329.3 573.2C330 572.9 331.5 572.3 332.6 571.9C336.7 570.5 334.1 570.3 326.5 571.4C322.4 572 313.6 572.3 313.4 571.9C313.3 571.7 312.9 568.6 312.5 565C312.1 561.4 311.7 558.1 311.5 557.6C311.3 557.2 311 554.4 310.7 551.4C310.5 548.4 310.2 545 310.1 543.8C310 542.6 309.7 538.8 309.5 535.4C308.5 519.6 307.9 512.9 306.5 504C305.7 498.7 305 493.8 304.9 493C304.8 492.2 304.5 489.6 304.2 487.2C303.8 483.4 303.8 482.8 304.3 482.5C304.6 482.3 308.1 480.2 312.1 477.9C316.1 475.6 323.6 471.1 328.9 468C341.2 460.7 340.5 460.9 344.5 462.8C346.2 463.6 347.8 464.3 348.1 464.3C348.3 464.3 350 465.6 351.7 467.1C353.5 468.7 356.2 471 357.7 472.3C369.5 481.9 380.1 501.3 381.5 515.5C381.7 517.4 382 520.4 382.2 522.3C382.4 524.2 382.7 529.5 382.7 534.2L382.8 542.7L381.4 544.2C380.6 545 377.2 547.9 373.8 550.7C367.4 555.9 366.4 556.8 366.8 556.8C367.2 556.8 374.5 553.1 379 550.5C383.9 547.8 384.9 547.4 385.5 548.4C386.5 550.1 392.8 565.5 392.9 566.8C393.1 568.5 391.9 569.9 381.8 580C370.1 591.7 351.9 602.2 336.4 606.1C336 606.2 349.3 606.3 366.1 606.3H396.6L396.8 605.3C396.9 604.7 396.8 604.3 396.5 604.3C396.2 604.3 395.8 603.1 395.5 601.3C395.2 599.6 394.8 598.2 394.6 598.1C394.4 598 394.4 597.5 394.5 597.1C394.6 596.7 394.6 596.3 394.4 596.3C394.2 596.3 393.8 595 393.5 593.5C393.2 592 392.9 590.7 392.7 590.7C392.5 590.7 392.5 590.3 392.6 589.9C392.7 589.5 392.6 589.1 392.4 589.1C392.2 589.1 391.8 588.1 391.5 586.9C391.2 585.7 390.9 584.7 390.7 584.7C390.5 584.7 390.5 584.3 390.6 583.8C390.8 583.2 390.7 583 390.4 583.2C390.1 583.4 389.9 583.2 389.9 582.7C389.9 582.2 390.3 581.7 390.9 581.4C391.4 581.2 391.9 580.7 391.9 580.4C391.9 580.1 392.1 579.9 392.3 579.9C392.5 579.9 392.6 579.7 392.5 579.5C392.4 579.3 392.4 579.1 392.6 579C392.8 578.9 393.3 578.3 393.8 577.6C394.3 576.9 394.9 576.4 395.1 576.5C395.3 576.6 395.4 576.6 395.4 576.4C395.3 575.8 395.9 574.7 396.3 574.9C396.5 575 396.7 574.9 396.7 574.7C396.7 574.1 398.1 572.3 398.4 572.5C398.5 572.6 398.9 572 399.3 571.1C400 569.6 399.3 565.4 398.3 564.6C398.2 564.5 397.7 563.4 397.3 562.1C396.9 560.8 396.5 559.8 396.3 559.8C396.1 559.8 395.7 558.6 395.3 557.2C394.9 555.8 394.5 554.6 394.3 554.6C394.1 554.6 393.8 553.7 393.5 552.6C393.2 551.5 392.8 550.6 392.6 550.6C392.4 550.6 392.4 550.3 392.5 550C392.6 549.7 392.6 549.4 392.3 549.4C392 549.4 391.6 548.2 391.2 546.8C390.8 545.4 390.4 544.3 390.3 544.4C390.2 544.5 389.7 543.4 389.2 542C388.7 540.5 388.2 539.6 388.1 539.9C388 540.2 387.8 535.6 387.6 529.7C387.1 513 387 510.7 386.4 509.4C386.1 508.7 385.5 507.2 385.2 506C384.8 504.8 384.4 504 384.2 504.1C383.9 504.3 383.2 501.8 383.2 500.3C383.2 500 383 499.7 382.7 499.6C382.4 499.5 382.3 499.1 382.5 498.6C382.7 498 382.6 497.8 382.3 498C382 498.2 381.8 498 381.8 497.7C381.7 496.7 381.7 496.5 381.1 495.6C380.8 495.1 380.7 494.5 380.7 494.2C380.8 493.9 380.6 493.7 380.4 493.8C380.2 493.8 379.7 493.2 379.5 492.3C379.2 491.4 378.8 490.7 378.6 490.7C378.4 490.7 378.3 490.3 378.4 489.8C378.6 489.2 378.5 489.1 378.3 489.4C378 489.8 377.8 489.6 377.4 488.5C377.1 487.7 376.7 487.1 376.5 487.1C376.3 487.1 376.2 486.7 376.4 486.2C376.6 485.6 376.5 485.5 376.3 485.9C376 486.3 375.8 486.1 375.4 485C375.1 484.2 374.7 483.5 374.6 483.5C374.4 483.5 374 482.8 373.6 482C373.2 481.2 372.6 480.2 372.3 479.9C371.2 478.7 370.3 477.5 370.5 477.5C370.6 477.5 370.2 477 369.5 476.3C368.3 475.1 367.9 474.4 368.7 474.9C369 475.1 369.1 475 368.9 474.7C368.7 474.4 368.5 474.3 368.4 474.4C368.2 474.6 365.5 471.9 365.5 471.5C365.5 471 361.5 467.1 361.1 467.1C360.9 467.1 360.8 466.9 360.8 466.6C360.9 466.3 360.7 466.1 360.5 466.1C359.5 466 357.5 464.6 357.5 464.1C357.5 463.7 357.3 463.6 357 463.8C356.7 464 356.1 463.6 355.6 462.9C355.1 462.3 354.7 462 354.7 462.2C354.7 462.5 354.4 462.5 354 462C353.1 461.1 351.3 459.9 350.2 459.3C349.7 459.1 349.4 458.6 349.4 458.4C349.5 458.2 349.3 458 349 458.2C348.7 458.4 348.2 458.1 348 457.8C347.3 457 348.2 455.8 349.1 456.2C349.4 456.3 349.6 456.3 349.5 456.2C349.1 455.8 350.1 454.9 350.8 455.1C351.1 455.2 351.3 455.2 351.1 455C351 454.8 351.5 454.2 352.3 453.7C353.1 453.2 353.6 453 353.4 453.3C353.3 453.6 353.5 453.4 353.8 452.9C354.1 452.4 354.7 452 355 452C355.3 452 355.7 451.6 356 451.2C356.2 450.8 356.6 450.4 356.9 450.4C357.1 450.4 357.8 450 358.4 449.6C359 449.2 359.6 448.9 359.8 449C359.9 449.1 360 449.1 359.9 448.9C359.8 448.8 360.3 448.3 361 447.8C361.7 447.3 362.7 446.7 363.3 446.3C363.9 445.9 364.4 445.7 364.6 445.8C364.8 445.9 365 445.8 365.2 445.5C365.4 445.2 365.3 445.1 365 445.4C364.6 445.6 364.6 445.6 364.8 445.2C365 444.9 365.4 444.8 365.7 444.9C366 445 366.2 444.9 366 444.7C365.9 444.5 366.2 444.1 366.7 443.9C368 443.4 368.2 442.8 368.2 437.9C368.2 434.7 368.4 433.4 368.8 432.8C369.1 432.3 369.2 431.8 369.1 431.7C368.6 431.4 368.5 426.8 369 426.5C369.2 426.4 369.4 425 369.4 423.5C369.4 420.8 370.8 418.3 372.3 418.3C372.5 418.3 373 417.9 373.4 417.5C373.8 417.1 374.9 416.3 375.7 415.9C376.5 415.5 377 415.1 376.8 415.1C376.6 415.1 376.6 414.9 376.9 414.8C377.2 414.6 377.6 412.9 377.9 410.8C378.2 408.3 378.5 407.3 378.7 407.8C378.9 408.2 378.9 407.6 378.8 406.4C378.7 405.2 378.7 404.3 378.9 404.3C379.1 404.3 379.5 402.2 379.8 399.7C380.1 396.7 380.5 395.3 380.7 395.6C380.9 395.9 381 395.4 380.8 394.2C380.7 393.2 380.7 392.3 380.9 392.3C381.1 392.3 381.5 390.2 381.8 387.6C382.2 384.4 382.4 383.2 382.7 383.7C382.9 384.2 383 383.6 382.9 382.2C382.8 380.9 382.9 379.9 383 379.9C383.1 379.9 383.6 377.5 383.8 374.6C384.2 371.1 384.4 369.6 384.7 370.1C384.9 370.6 384.9 370.1 384.8 368.8C384.7 367.7 384.8 366.4 385 366C385.5 365.1 386.2 358.4 386.2 355.1C386.2 353.4 386.3 352.7 386.6 352.9C386.9 353.1 387 352.1 387 349.8C386.9 345.1 388.2 326.9 388.6 326.7C388.8 326.6 388.9 326 388.9 325.4C388.9 324.3 388.6 323.8 386.5 321.6C386.1 321.2 385.7 320.6 385.7 320.3C385.7 320 385.4 319.7 385.1 319.6C384.5 319.4 382.7 316.6 382.8 316.1C382.8 315.9 382.7 315.9 382.4 316C382.2 316.2 381.9 315.9 381.7 315.4C381.6 314.9 381 314.3 380.5 313.9C380 313.5 379.6 313.2 379.7 313.1C379.8 313 379.2 312.2 378.3 311.3C377.4 310.4 376.8 309.5 376.9 309.4C377 309.2 376.9 308.9 376.6 308.8C376.3 308.6 376.2 308.7 376.5 309C376.7 309.3 376.7 309.4 376.4 309.3C376.2 309.2 375.8 308.5 375.5 307.8C375.2 307.1 374.8 306.6 374.6 306.6C374.4 306.6 374.4 306.4 374.5 306.1C374.7 305.8 374.6 305.7 374.4 305.9C374 306.1 372.8 305.1 372.9 304.6C373 304.1 372.5 303.4 372.2 303.6C372 303.7 371.9 302.3 371.9 300.3C371.9 298.1 372 297.1 372.3 297.6C372.5 298.1 372.7 297.2 372.8 294.9C372.9 293 372.8 291.4 372.6 291.4C372.4 291.4 372.4 290.5 372.5 289.3C372.8 286.9 373.8 261.1 373.9 254.2C373.9 251.4 374.1 249.9 374.3 250.4C374.5 250.9 374.7 250.1 374.8 247.9C374.9 246.1 374.8 244.6 374.6 244.6C374.2 244.6 374.2 239.1 374.7 238.3C375 237.7 376 211.3 375.9 203.9C375.9 202.7 376 201.9 376.2 202C376.4 202.1 376.5 200.3 376.4 198C376.3 195.5 376.4 193.6 376.6 193.3C376.8 193 377.2 187.7 377.5 181.5C377.8 175.1 378.2 170.4 378.4 170.7C378.7 171.2 378.8 170.7 378.7 168.2C378.7 167.9 378.6 166.5 378.5 165.1C378.4 163.6 378.4 162.6 378.7 162.6C378.9 162.6 379.2 160.3 379.3 157.5C379.4 154.7 379.6 151.1 379.7 149.6C379.8 148.1 379.9 145.4 379.9 143.6C379.9 141.4 380.1 140.6 380.3 141C380.7 141.6 381 137.9 380.7 136.8C380.3 135.6 380.3 132.9 380.6 132.7C381 132.5 381.9 114.9 381.9 107.2C381.9 104.4 382 103.4 382.3 104C382.5 104.5 382.6 102.7 382.5 98.6C382.4 95.2 382.5 92.2 382.6 92C383.3 91.1 383.6 58.6 382.9 58.3C382.5 58.2 382.3 57.9 382.3 57.7C382.3 57.5 382.5 57.4 382.8 57.6C383.1 57.8 383.2 57.7 383 57.5C382.8 57.3 382.5 57.1 382.4 57.1C381.7 57.1 380.3 55.8 380.8 55.6C381.2 55.4 381.2 55.4 380.8 55.4C380.2 55.4 378 53.8 378.6 53.8C378.8 53.8 378.3 53.4 377.6 52.9C375.9 51.8 370.1 46.1 370.3 45.6C370.4 45.4 370 45.2 369.6 45.1C369.2 45 368.8 44.7 368.8 44.5C368.8 44.3 368.6 44.2 368.4 44.4C368.2 44.5 367.8 44.3 367.5 43.9C367.2 43.5 366.6 42.9 366.1 42.7C365.6 42.4 365.2 42 365.3 41.8C365.4 41.5 365.2 41.3 365 41.3C364.3 41.2 362.6 40.2 362.1 39.4C361.8 39 361.3 38.7 361 38.7C360.7 38.7 360.3 38.5 360.1 38.2C359.9 37.9 359.2 37.4 358.5 37C357.8 36.6 357.3 36.2 357.4 35.9C357.5 35.7 357.4 35.5 357.1 35.5C356.4 35.5 354.4 34.5 354.1 34C354 33.8 353.1 33.3 352.3 32.9C351.4 32.5 350.6 32 350.5 31.9C350.4 31.8 348.9 30.9 347.1 30C345.3 29.1 343.7 28.2 343.5 28C343.3 27.8 342.1 27.3 340.9 26.9C339.7 26.5 338.4 25.9 338.1 25.5C337.8 25.1 337.3 24.9 337.1 24.8C336.1 24.8 334.1 24.1 334.1 23.8C334.1 23.6 333.2 23.2 332.1 22.8C331 22.4 330.1 22 330.1 21.8C330.1 21.6 329.3 21.3 328.3 21C327 20.6 326.6 20.4 327 20.1C327.4 19.8 327.3 19.8 326.6 19.9C326.1 20 325.7 20 325.7 19.8C325.7 19.6 324.7 19.3 323.5 19C322 18.6 321.4 18.4 321.8 18.1C322.1 17.9 321.9 17.8 321.2 17.9C320.6 18 320.1 17.9 320.1 17.8C320.1 17.6 319 17.3 317.7 17C316 16.6 315.4 16.4 315.8 16.1C316.2 15.9 316 15.8 315.2 16C314.6 16.1 314.1 16.1 314.1 15.9C314.1 15.7 312.7 15.2 311.1 14.8C309.5 14.4 308.1 13.9 308.1 13.8C308.1 13.7 307.2 13.3 306.1 13C305 12.7 304.2 12.4 304.3 12.1C304.4 11.9 304.1 11.8 303.5 12C302.9 12.1 302.5 12.1 302.5 11.9C302.5 11.7 301.9 11.4 301.2 11.3C300.5 11.2 299.6 10.8 299.2 10.4C298.8 10 298.1 9.8 297.7 10C297.3 10.1 296.9 10.1 296.9 9.9C296.9 9.7 295.5 9.3 293.9 9.1C292.2 8.8 291.1 8.5 291.3 8.3C291.6 8.1 291.3 7.9 290.5 7.8C289.8 7.7 289.2 7.8 289.1 8C289 8.3 288.8 8.3 288.6 8C288.4 7.8 286.6 7.3 284.5 7C282.5 6.7 281 6.3 281.2 6.2C281.5 6 281.4 5.8 280.8 5.7C280.3 5.6 280 5.6 280 5.8C280 6 279.6 6.2 279.2 6.2C278.8 6.2 278 5.8 278 5.7C278 5.6 276.4 5.1 274.4 4.8C272.3 4.5 271 4.1 271.3 4C271.6 3.8 271 3.8 270.1 3.9C269 4 268.4 4 268.4 3.7C268.4 3.5 267.9 3.2 267.3 3.2C266.7 3.2 266.1 3.1 265.9 3C265.8 2.9 263.7 2.7 261.3 2.6C258.9 2.5 256.8 2.2 256.7 2C256.5 1.7 255.6 1.7 254.1 1.9C252.6 2.1 251.7 2 251.5 1.8C251.2 0.899997 209.4 -0.300003 203.2 0.199997ZM238.8 6.2C244 6.5 249.6 7 251.2 7.2C252.9 7.4 256.9 8 260.2 8.4C263.5 8.9 268.7 9.6 271.6 10C274.5 10.4 278 11 279.2 11.3C280.4 11.6 283.9 12.5 287 13.2C295 15 295.8 15.3 307.8 19.2C313.7 21.2 321.1 23.9 324.2 25.2C327.3 26.5 332.2 28.7 335.2 30C349.3 36.1 357 41.6 370.7 55L376.4 60.6V73.6C376.4 80.7 376.2 93.1 376 101C375.6 114.5 375.3 120.3 374.4 134.4C373.7 145.7 373.2 157.5 373 168.2C372.9 174.4 372.6 180.7 372.2 183C371.6 187.4 371.1 194.5 370.4 208.4C370.2 213.4 369.8 220.6 369.6 224.6C369.4 228.6 369 235.1 368.8 239.2C368.6 243.3 368.2 251.5 368 257.4C367.6 267.2 367.3 273.4 366.5 284.3C366.2 288.4 366.1 288.5 363.6 287.2C362 286.4 361.7 285.9 362.4 285.4C363.1 285 362.8 282.6 362.1 281.6C361.7 281.1 360.9 279.7 360.3 278.4C359.2 276.2 354.1 269.2 350.1 264.4C348.9 263 347.5 261.1 346.9 260.2C346.3 259.3 344.8 257.1 343.4 255.3C342.1 253.5 340.5 251.2 339.9 250.3C339.3 249.3 337.6 247 336.1 245.1C334.6 243.2 331.4 239 329 235.7C326.6 232.4 323.6 228.7 322.4 227.3C321.2 226 319 223.5 317.6 221.9C316.2 220.3 314.1 217.9 313 216.7C311.9 215.5 309.6 212.9 308 211C306.4 209.1 304.4 206.7 303.6 205.8C302 203.9 302 204.8 303 187.9C303.3 182.1 303.8 174.2 304 170.5C304.2 166.8 304.6 159 304.8 153.3C305 147.6 305.5 138.9 305.8 133.9C306.1 129 306.6 121.3 306.8 117C307 112.6 307.5 106.4 307.8 103.2C308.1 100 308.8 90.6 309.2 82.3C310.5 58.8 311.1 48.4 311.3 43.8C311.6 38.9 311.6 38.9 308.6 41C307.4 41.8 304.3 43.9 301.7 45.7C299.1 47.5 295.1 50.2 292.9 51.7C290.7 53.2 286.1 56.3 282.7 58.6C279.3 60.9 274.9 63.9 272.9 65.3C270.9 66.7 266.8 69.5 263.7 71.6C260.6 73.7 256.5 76.5 254.5 77.9C250 81 251.3 81.4 243.7 74.3C240.1 70.9 236 67 234.4 65.6C232.9 64.1 230.6 62.1 229.4 61C227.2 59.1 212 45 211.2 44.2C211 44 209.5 42.7 208 41.4C206.5 40.1 203.4 37.4 201.2 35.4C196.3 31 192.4 27.6 192.1 27.6C191.6 27.6 191 35.9 190 53.6C189.7 59.7 189.2 67.4 189 70.8C188 87 187.4 100.2 186.2 135C186 141.8 185.6 148.7 185.4 150.2C185.2 151.7 184.9 155.3 184.8 158C184.4 166.6 183.3 181.7 183.1 183.4C182.8 184.9 182.8 185 179.4 186.2C176.5 187.3 170.6 190 163.8 193.4C162.8 193.9 161.3 194.5 160.4 194.8C159.5 195.1 158.3 195.6 157.8 196.1C157.2 196.5 156.6 196.8 156.5 196.8C156.4 196.8 155 197.7 153.4 198.7C148.7 201.8 146.6 203.2 146.2 203.2C145.8 203.2 132.2 212.1 128.5 214.8C127.4 215.6 123.4 217.8 119.7 219.8C112.8 223.4 106.4 227 103.9 228.7C103.1 229.2 100.7 230.9 98.5 232.4C92.6 236.5 89.7 238.4 85.7 240.8C81.7 243.2 75.4 247.2 75.1 247.6C75 247.7 73.2 249 71.1 250.4C69 251.8 66.5 253.5 65.5 254.2C64.5 254.9 60.5 258.9 56.5 263.2C52.5 267.4 49.1 271 48.8 271C48.2 271.2 48.1 251.8 48.7 234.1C48.9 227.7 49.3 216 49.5 208.1C50 192 50.5 180.6 51.1 173.1C51.3 170.3 51.8 162.5 52.1 155.7C52.4 148.9 52.9 140.8 53.1 137.7C53.3 134.6 53.7 124 53.9 114.1C54.1 104.2 54.6 88 54.9 78.2C55.2 68.4 55.5 58.2 55.5 55.5C55.5 47.7 54.1 49.2 68.3 42.2C75 38.8 81.5 35.7 82.5 35.2C87 33.2 90.9 31.4 91.5 31.1C95.7 28.8 117.6 20.9 126.7 18.5C128.8 17.9 132.8 16.8 135.7 16.1C141.5 14.5 146.1 13.4 155.7 11.4C162.9 9.8 164.5 9.6 175.4 8.2C179.7 7.7 183.3 7.1 183.6 7C185.4 5.9 224.9 5.3 238.8 6.2ZM197.7 38.7C199.1 40 205.2 45.6 211.2 51.2C217.2 56.8 224.9 63.9 228.2 67C231.5 70 234.4 72.7 234.6 73C236.3 74.9 249.6 86.8 250.1 86.8C250.4 86.8 253.3 85 256.4 82.8C259.6 80.6 264.7 77.1 267.8 75C270.9 72.9 275.5 69.8 278 68.1C295.7 56 305.2 49.6 305.6 49.6C306.4 49.6 305.8 71.7 304.2 94.6C301.4 135.6 300.2 152.4 299.2 162.6C299 165 298.4 173.5 298 181.4C297.2 196.3 297.1 197.2 296.3 197.2C296 197.2 292.3 193.7 288 189.4C283.7 185.1 278.7 180.3 276.8 178.7C274.9 177.1 272.8 175.3 272 174.6C269 171.9 256.9 162 251.7 158.1L250 156.8L244.7 158.9C241.8 160.1 236.9 162 234 163.1C231 164.3 228.1 165.4 227.4 165.7C226.1 166.3 223 167.5 217.2 169.7C208.1 173.2 205.5 174.2 199.8 176.6C196.8 177.9 190.2 180.9 189.1 181.5C187.4 182.4 187.4 184.2 189.4 147.1C189.7 140.8 190.3 130.6 190.6 124.3C190.9 118 191.5 108.6 191.8 103.3C192.1 98 192.6 88.7 192.8 82.7C193.8 57 194.8 36.3 195.1 36.3C195.1 36.4 196.3 37.4 197.7 38.7ZM250 163.8C253.4 165.5 261.5 171.2 265.8 174.7C272.7 180.6 292.2 199.5 293.2 201.4C293.5 202.1 294.5 203.3 295.2 204.2L296.6 205.8L296.3 219C295.9 240.3 295.3 263.4 295 269.5L294.8 275.2H297.3C298.7 275.2 301.1 275.5 302.6 275.8C304.1 276.1 308.5 276.9 312.2 277.6C322.3 279.4 325.8 280.3 340.3 284.5C346 286.2 357.8 291.2 362.3 293.9L366.1 296.2V298.3C366.1 300.2 365.3 313.8 364.5 325.8C364.3 328.8 364 342.7 363.7 356.8C363.5 371.4 363.1 385.9 362.7 390.6C362.4 395.1 362 402 361.8 405.9C361.6 411.5 361.4 413 361 413C360.2 413 340.4 409.8 340.1 409.6C340 409.5 336.2 409.1 331.7 408.6C327.2 408.1 322.7 407.6 321.7 407.4C320.7 407.2 313.2 406.7 305.1 406.4C288.6 405.6 289.7 405.5 289.6 408.6C289.6 409.5 289.4 411.5 289.2 413C289 414.5 288.4 420.7 288 426.9C287.6 433.1 287 439.4 286.8 441.1C286.6 442.8 286 450.2 285.4 457.7C284.8 465.2 284.3 471.9 284.2 472.5C284.1 473.2 283.7 476.3 283.4 479.5C283.1 482.7 282.7 485.4 282.5 485.6C279.8 488.3 233.4 513.1 231 513.1C230.5 513.1 220.5 508.3 191.3 493.9L172.8 484.8L173 479.9C173.1 477.2 173.4 470.9 173.6 466C173.8 461 174.2 454.8 174.4 452.2C174.6 449.6 175.1 441.3 175.4 433.8C175.7 426.3 176.3 416.2 176.6 411.2C176.9 406.3 177.2 400.9 177.3 399.3L177.4 396.4L168.4 396.1C150.1 395.5 85.9 396.7 82.4 397.7C82.1 397.8 77.8 398.3 73 398.7C68.2 399.2 62 400 59.4 400.5C53.5 401.7 53.9 402.1 54.1 394C54.3 386 53.6 388.8 62.6 360.7C64.3 355.3 65.5 351.5 68.2 341.7L70.5 333.8L67.4 325.5C62.1 311.4 55.9 295.7 52.1 286.8C50.6 283.3 50.1 283.7 59.8 280C64.2 278.3 68.9 276.5 70.2 276C74 274.5 74.9 274.3 84.5 272.2C99.2 269 107.3 267.7 115.6 267.2C118.1 267.1 121.6 266.8 123.2 266.6C124.9 266.4 132.6 265.9 140.4 265.6C148.2 265.3 156.5 264.8 158.8 264.6C161.1 264.4 166.9 264.1 171.6 264C176.3 263.9 181.3 263.7 182.7 263.6L185.2 263.4V253.7C185.2 242.4 185.8 224.6 186.6 209.1C186.9 203.1 187.2 196.3 187.2 193.9C187.2 191.5 187.3 189.4 187.5 189.2C188.2 188.2 212.1 177.2 216 176C216.6 175.8 217.2 175.6 217.4 175.4C217.6 175.2 218.7 174.7 219.8 174.3C222 173.4 230.1 170.1 237.2 167.2C248.9 162.2 247.5 162.5 250 163.8ZM182.7 196.3C182.6 199.5 182.3 207.1 182 213C180.9 242.7 180.3 251.9 179.3 255.8C179 256.9 178.8 257 176.4 257.2C169.8 257.8 161.9 258.3 153.8 258.5C131.6 259.1 123.1 259.7 108.8 261.3C106 261.6 101.7 262.1 99.2 262.3C96.7 262.5 94 262.9 93.4 263.1C92.3 263.5 89.7 264 77.2 266.3C74.9 266.7 72.6 267.2 72.2 267.4C71.8 267.6 69.3 268.4 66.8 269.2C64.3 270 61.2 271 60 271.5C57.6 272.4 54.8 273 54.8 272.7C54.8 272.3 65.7 260.6 67.3 259.3C68.2 258.5 70.3 257.1 71.8 256.1C74.4 254.4 75.9 253.3 80.6 249.9C81.5 249.2 83.6 248 85.2 247C88.5 245.1 89.6 244.5 94.2 241.4C100.5 237.2 105 234.1 106.4 233C107.2 232.4 108.3 231.7 108.9 231.3C109.5 231 112.1 229.6 114.7 228.1C117.3 226.7 121.5 224.4 124 223.1C126.5 221.8 131.4 218.9 134.8 216.5C144.2 210.1 147.6 207.9 149.6 206.9C150.6 206.4 152.9 205 154.8 203.7C156.7 202.5 158.6 201.2 159 201C159.4 200.8 160.2 200.4 160.6 200.1C161 199.9 163.7 198.6 166.5 197.4C169.3 196.2 173.1 194.4 174.9 193.4C176.7 192.4 178.9 191.5 179.8 191.2C180.7 190.9 181.6 190.5 181.8 190.3C182.8 189.8 182.9 190.6 182.7 196.3ZM303.5 213.6C304.5 215 308.7 219.9 310.4 221.6C310.7 221.9 312.7 224.2 314.8 226.6C316.9 229 318.9 231.3 319.4 231.8C320.2 232.6 324.4 237.9 325.6 239.7C325.9 240.2 327.8 242.7 329.8 245.3C333.2 249.7 335.4 252.8 341.5 261.6C342.9 263.6 345.2 266.7 346.7 268.5C350.9 273.7 353.3 276.8 354.2 278.1C355.4 279.9 357.3 283.9 357.1 284.1C356.8 284.4 352.6 282.8 350.6 281.7C348.7 280.6 341.8 278.4 336.4 277.1C334.3 276.6 331.7 276 330.6 275.7C329 275.2 304.4 269.2 301.3 268.5L300.4 268.3V258C300.4 242.6 301.2 213 301.7 212.4C302.2 211.8 302.2 211.8 303.5 213.6ZM48.4 290.2C49.4 292.8 50.5 295.7 50.9 296.5C51.3 297.3 51.6 298.1 51.6 298.2C51.6 298.4 56.6 310.4 58.6 314.8C59.1 316 60 318 60.4 319.2C61.5 321.8 62.3 323.8 64.7 328.8L66.5 332.6L65.3 336.2C64.6 338.2 63.6 341.3 63 343.2C62.4 345.1 61.2 348.9 60.2 351.8C58.4 357.2 56.9 362.2 54.6 370.8C53.9 373.6 52.7 377.7 52.1 380C51.5 382.3 50.6 385.6 50.1 387.3C48.4 393.6 48.9 393.5 43.8 388.4C37 381.7 34.9 376.9 34.7 367.4C34.6 364.3 34.4 359.8 34.1 357.4C33.2 347.5 32.5 335.3 32.3 326.6C32.2 321.5 32 313.3 31.9 308.3L31.7 299.2L34.4 296.3C39.6 290.7 45.5 285.2 46.1 285.3C46.3 285.4 47.3 287.3 48.4 290.2ZM320 312.8C318.1 313 315.5 313.3 314.2 313.5C312.9 313.7 309.2 314.2 306 314.5C297.5 315.4 295.3 315.9 292.6 317.2L290.2 318.5L295.3 318.6C300.7 318.7 301.7 319.2 299.3 320.5C289 325.8 285.4 346.7 292.8 357.8C302 371.6 327.7 369.8 335.3 355C341.2 343.3 335.5 326.3 323.6 320.2C320.2 318.5 320.2 318.5 320.5 318.2C320.6 318.1 324.9 317.5 330 317C338.4 316.1 339.7 315.9 343.3 314.5L347.4 313L345.2 312.7C342.1 312.4 324.1 312.4 320 312.8ZM377.8 320.1L383.3 325.4L383.1 328.8C381.1 358.4 379.2 374.3 374 403C373.1 408.1 372.8 408.7 370.9 410.5C368.4 412.9 368.3 412.6 368.6 403.6C368.8 399.3 368.9 393.5 369 390.8C369.1 384.8 369.5 373.4 370 359.6C370.2 354 370.5 341.6 370.6 332.1C370.8 316.3 370.9 314.8 371.5 314.8C372 314.8 374.7 317.2 377.8 320.1ZM172.3 401.4C172.5 401.6 171.9 413.1 171.2 420.6C170.6 427.2 169.7 438.8 168.8 451.6C168.4 457.9 167.8 464.5 167.6 466.4C167.4 468.3 167.2 470.5 167.2 471.4C167.1 480.6 166.6 481.8 163.6 480.4C155.1 476.4 125.3 461.5 121.8 459.5C119.3 458.1 115.7 456.1 113.7 455.1C109.9 453.1 100.7 447.8 98.3 446.3C97.5 445.8 95.8 444.8 94.5 444.1C93.2 443.4 90 441.4 87.5 439.8C85 438.2 82.3 436.4 81.5 435.9C72.5 430.1 56.8 419.4 55.2 418C54.2 417.1 54 413.2 54.6 409.5L54.9 407.9L59.9 406.6C63.5 405.6 66.7 405.1 71.8 404.7C75.6 404.4 79.1 404 79.6 403.9C80.1 403.8 84.1 403.4 88.5 403.1C92.9 402.8 99.9 402.2 104.1 401.9C108.3 401.6 113.1 401.2 114.7 401.2C119.2 400.8 172.1 401.1 172.3 401.4ZM308.2 411C312.2 411.1 318.1 411.6 321.4 412C324.7 412.4 329.1 412.9 331.2 413.2C337.3 413.9 359.5 418.2 360.3 418.9C360.7 419.2 360.8 421.9 360.8 429.8V440.3L359.5 441.1C358.2 441.9 352.3 446 346 450.5C341.5 453.6 324.2 464.5 320.5 466.5C316.8 468.5 314.2 469.9 311.1 471.6C304.4 475.3 292 481.3 291.4 481.1C290.7 480.8 290.7 481.3 291.6 465.3C291.8 461.4 292.2 454 292.4 448.7C292.6 443.4 293 436.8 293.2 434.1C293.4 431.4 293.8 425.1 294 420.1C294.5 409.5 294.1 410.3 297.9 410.6C299.6 410.7 304.2 410.9 308.2 411ZM195.9 431C193 432.6 192.2 436.4 193.8 440.6C195.2 444.2 195.8 446.2 196.4 448.3C197.5 452.7 203.7 452.6 205.2 448.1C205.4 447.4 205.7 446.8 205.7 446.8C205.7 446.8 207.1 447.3 208.6 448C221.3 453.2 235.5 454.6 252.1 452.2C254.5 451.9 257.6 451.5 258.9 451.3C263.2 450.8 265.1 448.9 264.5 445.8C263.8 442.3 260.5 441.7 251.3 443.1C247 443.8 228.2 444.1 225 443.5C216.4 442 204 436.4 202.9 433.6C201.9 430.8 198.6 429.5 195.9 431ZM68.9 435.4C73.2 437.5 81.5 442.2 85.8 445C86.9 445.7 90.9 448 94.6 450.1C109.9 458.6 109.5 458.2 107.6 462.8C105.8 467.1 102.8 474.7 102.2 476.6C100 483.5 99.2 486.6 98.8 489C98.6 490.5 98 493.5 97.6 495.5C97.2 497.5 96.8 500.3 96.8 501.7C96.8 503.1 96.6 504.9 96.4 505.8C96 507.6 95.1 512.9 94.2 518.8C92.6 529.8 91.2 538.6 91 539.2C90.9 539.6 90.5 541.4 90.2 543.2C89.4 547.9 89.5 547.9 83.8 545.4C81.6 544.5 74.8 542 74.3 542C73.2 542 78.8 546.6 82 548.4C84.3 549.7 88.7 552.9 88.9 553.5C89 553.8 88.8 556 88.5 558.5C88.2 561 87.5 567.1 86.9 572C86.1 579.8 84.7 590 84.5 590.3C84.4 590.5 79.2 588.2 76.5 586.8C72.9 584.9 63.8 579.1 60.2 576.4C59.2 575.6 57 574 55.4 572.9C42.8 563.8 38.7 560.6 37.4 559.3C36.9 558.8 36.4 558.4 36.2 558.4C36 558.4 33.7 556.7 31.2 554.6C28.6 552.5 26 550.4 25.4 549.9C20.5 546.1 17.3 542.9 12.4 537C11.1 535.5 11.1 534.8 12.3 532.7C12.9 531.6 14.3 528.8 15.4 526.5C16.5 524.2 18.2 521.1 19.2 519.6C20.2 518.1 21.4 516.3 21.8 515.5C26.5 507.5 26.6 507.5 30.2 510.8C35.1 515.4 36.3 516.5 36.6 516.5C36.7 516.5 36.6 516.2 36.2 515.8C29.6 509.2 26.7 499.3 28 488.4C30.7 466.6 34 458.9 46.2 446.4C50.7 441.8 52 440.6 55.4 438.6C56.1 438.2 58.2 436.8 60.2 435.5C64.4 432.7 63.4 432.7 68.9 435.4ZM388.1 532.4C388.1 533.4 388.2 533.8 388.3 533.3C388.4 532.8 388.4 532 388.3 531.5C388.2 531 388.1 531.4 388.1 532.4Z" fill="#0F0F10"/>
<path id="path2" fill-rule="evenodd" clip-rule="evenodd" d="M203.2 6C200.7 6.2 195.4 6.5 191.6 6.8C187.7 7 182.7 7.5 180.4 7.8C178.1 8.1 173.4 8.7 170 9.2C166.6 9.6 163.1 10.2 162.2 10.4C161.3 10.6 157.5 11.4 153.8 12.2C146.8 13.7 139.9 15.3 134 17C132.1 17.5 128.6 18.5 126.2 19.2C116.5 21.9 101.3 27.4 91.8 31.6C80.5 36.6 57.2 48.1 56.5 49C56.1 49.5 55.9 53.9 55.6 66.6C54.8 102.6 54.3 117.1 53.4 137.9C52.9 149.8 52.2 161.6 52 164.1C51.8 166.6 51.4 172.6 51.2 177.3C51 182 50.6 189.4 50.4 193.7C49.8 204.5 49.3 228.3 49 251.3L48.8 270.7L52.5 266.9C54.6 264.8 58 261.2 60.2 258.9C64.5 254.3 75.9 246 85.1 240.8C88.7 238.8 96.3 233.7 101.8 229.7C104.6 227.7 111.7 223.6 120 219.3C125.1 216.6 129.3 214 140.4 206.4C142.1 205.3 144.7 203.7 146.2 202.8C147.7 202 150.8 200.1 153 198.6C155.2 197.2 158.7 195.2 160.8 194.3C162.9 193.4 167.3 191.3 170.5 189.8C173.8 188.2 177.9 186.4 179.8 185.7L183.2 184.5V182.6C183.2 180.9 183.7 173.5 184.7 159.5C185.3 151.2 186.1 132 187.5 93.7C187.7 87.2 188 81.6 188.1 81.3C188.2 81 188.6 73.5 189.1 64.7C189.5 55.9 190 48 190.1 47.1C190.2 46.2 190.6 41.5 190.8 36.6C191.1 31.7 191.4 27.6 191.5 27.5C191.9 27.1 194.9 29.5 200.4 34.4C203.3 37 206.6 39.9 207.7 40.9C208.9 41.9 210.3 43.2 210.9 43.7C211.5 44.2 214.2 46.8 217 49.3C223.9 55.8 227.1 58.7 230.8 61.9C233.7 64.5 237 67.5 246.4 76.6C250.7 80.7 249.9 80.6 254.1 77.8C255.9 76.5 258.1 75 259 74.5C260.8 73.3 266.2 69.6 266.8 69.2C267 69 269.4 67.4 272 65.6C274.6 63.8 279.2 60.7 282.2 58.7C285.2 56.7 289.8 53.5 292.6 51.6C295.4 49.7 299.7 46.8 302.2 45.1C304.7 43.4 307.4 41.6 308 41C308.7 40.5 309.4 40.1 309.6 40.1C309.8 40.1 310.3 39.8 310.7 39.4C311.9 38.4 311.9 39.1 311.3 49.9C311 55.4 310.4 66.7 309.9 74.9C309.5 83.1 308.9 92 308.7 94.5C308.5 97 308 103.2 307.7 108.3C307.4 113.4 306.9 119.6 306.7 122.1C306.5 124.6 306 133 305.7 140.7C305.4 148.4 304.9 157.6 304.7 161.1C304.5 164.6 304 173.4 303.7 180.7C303.4 188 302.9 195.1 302.7 196.6C301.8 202.9 302 203.6 305.2 207.1C306.8 208.9 309 211.4 310.1 212.8C312.4 215.5 319.3 223.4 322.7 227.1C323.9 228.4 326.9 232.2 329.3 235.4C331.7 238.7 334.9 242.8 336.3 244.6C337.7 246.4 340 249.6 341.4 251.7C345.4 257.7 348.7 262.2 351.4 265.6C357.5 273.2 359.3 275.7 360.6 278.3C361.4 279.8 362.4 281.5 362.8 282.1C363.7 283.2 363.8 284.5 363 285.6C362.4 286.4 362.5 286.5 363.8 287.1C366.4 288.4 366.3 289 366.8 275.5C367 269.8 367.4 262.9 367.6 260.3C367.8 257.7 368.1 252.1 368.2 247.9C368.4 238.9 369 225.8 369.6 219.1C369.8 216.5 370.1 210.4 370.2 205.7C370.5 195.6 371 188.8 371.8 184.1C372.2 182 372.5 175.8 372.6 167.5C372.7 160.2 372.9 153.5 373 152.5C374.8 127.2 375.8 101.7 376.2 76.7L376.4 61.9L374.2 59.3C363.4 46.6 349.5 36.7 331.7 29C328.6 27.7 324.7 25.9 322.9 25.1C318.4 23 298.2 16.3 292.9 15C290.5 14.4 287 13.6 285.3 13.2C278.4 11.5 272.6 10.4 266.5 9.6C263 9.1 258.6 8.5 256.7 8.2C254.8 7.9 249.4 7.3 244.5 7C239.7 6.7 235.6 6.3 235.4 6.2C235 5.8 207.8 5.7 203.2 6ZM180.8 191.7C180.2 191.9 177.5 193.3 174.6 194.6C171.7 196 168.8 197.4 168 197.7C162.2 200.3 159.1 201.9 155.7 204.1C153.5 205.5 150.6 207.3 149.1 208.2C146.7 209.5 137.9 215.3 131.4 219.8C130.1 220.7 125.8 223.1 121.8 225.2C113.9 229.3 107.8 232.8 105.5 234.5C102 237.2 89.9 245.1 86.1 247.2C84.5 248.1 82.2 249.5 80.9 250.5C77.9 252.7 77.7 252.9 72.7 256.2C70.4 257.7 67 260.5 65.1 262.4C61.7 265.8 55.7 272.4 56 272.4C56.1 272.4 57.5 271.9 59.1 271.4C60.7 270.8 63.1 270.1 64.5 269.8C65.8 269.5 67.4 268.9 68.1 268.6C68.8 268.3 70.2 267.8 71.3 267.6C72.4 267.3 73.7 267 74.1 266.8C74.5 266.6 76.9 266.1 79.3 265.6C89.8 263.7 93.8 262.9 94.2 262.6C94.4 262.4 97.7 262.1 101.4 261.7C105.1 261.4 109.4 260.9 110.9 260.7C118.2 259.7 123.5 259.4 148.5 258.3C168.4 257.5 178.1 256.9 178.6 256.6C178.8 256.4 179.3 253.9 179.5 251C179.8 248.1 180.1 244.6 180.3 243.3C180.5 242 180.9 233.7 181.1 224.9C181.5 209.5 182 197.6 182.5 193.2C182.9 191 182.7 190.8 180.8 191.7ZM301.8 213.6C301.5 214.7 300.6 253 300.6 261.7V267.7L302.4 268.4C303.4 268.8 305.4 269.3 306.8 269.5C308.2 269.8 310 270.2 310.7 270.4C312 270.8 317.8 272.2 322.8 273.4C324.2 273.7 325.8 274.2 326.4 274.4C326.9 274.6 328.9 275.2 330.8 275.6C335.7 276.7 339.6 277.6 341.6 278.3C342.6 278.6 344.4 279.2 345.7 279.5C347 279.8 349.5 280.8 351.2 281.7C354.3 283.2 356.4 284 356.4 283.6C356.4 282.3 351.8 275.7 345 267.3C343.1 265 339.7 260.2 336.5 255.5C335.5 254 333.1 250.7 331.3 248.3C329.5 245.9 326.1 241.5 323.9 238.5C321.7 235.5 319 232.2 317.9 231.1C316.9 230 314.7 227.5 313.1 225.6C311.5 223.7 308.9 220.7 307.4 219C305.9 217.3 304 215.1 303.3 214.3C302.1 212.7 302 212.7 301.8 213.6ZM41.9 288.9C39.8 290.9 36.7 294.1 35 295.9L32 299.3V306.3C32 317.7 33.7 353.6 34.4 357.9C34.7 359.7 35 362.8 35.2 366C35.2 366.5 36 366.3 36 365.8C36 365.5 36.6 365.1 37.6 365C39 364.8 41.7 363.6 46 361.4C46.4 361.2 46.8 360.9 46.8 360.7C46.8 360.5 47 360.4 47.2 360.4C47.4 360.4 48.2 359.8 48.9 359.1C49.6 358.4 50.5 357.7 50.9 357.5C51.3 357.4 51.8 356.6 52.2 355.9C52.6 355.2 53.6 353.7 54.6 352.7C55.6 351.6 56.4 350.6 56.4 350.4C56.4 350.2 56.6 349.9 56.9 349.7C57.2 349.5 57.8 348.7 58.2 347.9C58.6 347.1 60 345.1 61.2 343.5C64.5 339.1 67.1 330.8 65.1 330.8C64.9 330.8 64.7 330.6 64.7 330.3C64.7 330 63.6 327.5 62.3 324.6C61 321.8 59.9 319.3 59.9 319.1C59.9 318.9 58.7 316 57.3 312.7C53.9 304.9 51.9 300.2 49.7 294.4C47.2 288.1 46.3 285.8 46 285.5C45.9 285.4 44.1 286.9 41.9 288.9ZM371.2 326.3C371.2 332.6 371 341.7 370.8 346.4C369.4 378.5 369.4 379.2 371.9 380.3C372.7 380.7 374 381.4 374.8 381.9C377.3 383.5 377.4 383.3 378.6 372C378.9 368.8 379.4 365.4 379.6 364.4C379.8 363.4 380.3 359.2 380.6 355C380.9 350.8 381.4 346.8 381.6 346C381.8 345.2 382.2 340.3 382.4 335L382.9 325.4L377.4 320.1C374.4 317.2 371.7 314.8 371.6 314.8C371.5 314.8 371.2 320 371.2 326.3ZM119.8 401.2C118.5 401.4 112.8 401.7 107.2 402C101.6 402.3 95.7 402.6 94 402.8C92.3 403 86.6 403.5 81.2 404C67.6 405.1 62.4 405.9 58.2 407.4C57.3 407.7 56.3 408 56 408C55.5 408 55.3 408.7 55.1 411.1C54.8 414.4 55 415 56 414.7C56.8 414.5 58.9 415.4 62.6 417.5C63.9 418.3 65.5 419.1 66.1 419.4C66.7 419.7 67.2 420.1 67.2 420.4C67.2 420.7 67.7 420.9 68.2 420.9C68.8 420.9 69.2 421.1 69.2 421.3C69.2 421.5 69.7 421.7 70.2 421.7C70.8 421.7 71.2 421.8 71.2 422C71.2 422.2 71.6 422.5 72.1 422.7C72.6 422.9 75 424.2 77.4 425.5C79.8 426.8 83.5 428.7 85.6 429.8C87.7 430.9 89.5 431.9 89.5 432.1C89.6 432.3 89.8 432.5 90 432.5C90.6 432.5 100.1 437.3 101 438C101.2 438.2 102.3 438.7 103.3 439.1C104.3 439.5 105.2 439.9 105.2 440.1C105.2 440.3 105.9 440.6 106.7 440.9C107.5 441.2 108.4 441.6 108.6 441.9C108.8 442.2 109.7 442.6 110.6 442.9C111.5 443.2 112.4 443.6 112.6 443.9C112.8 444.2 113.7 444.6 114.6 444.9C115.5 445.2 119.1 446.8 122.6 448.5C137.2 455.6 140.6 457.2 141.6 457.5C142.1 457.7 142.7 457.9 142.8 458C142.9 458.1 143.8 458.6 144.8 459C145.8 459.4 146.7 460 146.9 460.3C147.1 460.6 147.8 460.9 148.5 461C149.2 461.1 151.6 462.1 153.8 463.2C162.7 467.5 165.5 468.8 165.9 468.8C166.2 468.8 166.4 469.3 166.4 469.8C166.4 470.4 166.6 470.8 166.7 470.8C166.8 470.8 167.3 467.2 167.5 462.9C167.8 458.6 168.2 453.3 168.4 451.2C168.6 449.1 169 443.3 169.4 438.4C169.7 433.5 170.3 426.4 170.6 422.8C171.2 416.6 172 404.4 172 402.6C172 401.8 171.9 401.7 164.5 401.7C160.4 401.7 154.5 401.5 151.4 401.2C144.9 400.7 123.3 400.8 119.8 401.2ZM294.6 411.4C294.5 411.7 294.4 414.4 294.4 417.2C294.4 422.6 293.9 433.1 293.2 440.6C292.6 446.8 291.8 469.1 292.1 469.5C292.2 469.6 293.1 469.5 294.1 469.1C295 468.7 296.1 468.4 296.5 468.4C296.9 468.4 297.2 468.2 297.2 467.9C297.2 467.6 297.9 467.1 298.8 466.8C299.7 466.5 300.4 466.1 300.4 466C300.4 465.9 301.3 465.4 302.3 465C303.3 464.6 304.3 464.2 304.4 464C304.7 463.7 310.6 460.8 311 460.8C311.6 460.8 320.4 456.3 320.4 456C320.4 455.8 320.9 455.6 321.5 455.4C322.5 455.2 330.1 451.6 332.8 450.2C333.4 449.9 335 449.1 336.4 448.4C340.1 446.6 344.5 444.4 345.2 444C345.5 443.8 349.1 442.1 353.1 440.1L360.4 436.6V427.9C360.4 420.5 360.3 419.2 359.8 419C359.5 418.9 357 418.3 354.3 417.8C345.9 416.1 341.9 415.3 340.4 414.9C339.6 414.7 337 414.3 334.6 414C332.2 413.7 328.8 413.3 327.2 413C324.3 412.5 318.8 412.1 304.4 411.2C295.3 410.7 294.9 410.7 294.6 411.4ZM53.4 440.5C51.7 441.5 43.3 450 40.8 453.2C33.5 462.9 31 469.6 28.9 484.9L27.9 492.8L29.8 496.7C35.3 507.8 50.8 518.3 65.8 521.2C79.9 523.9 93.6 520.2 94.5 513.4C94.7 512.3 95.1 510 95.4 508.4C95.7 506.8 96.1 503.8 96.2 501.8C96.3 499.8 96.6 497.3 96.9 496.2C97.2 495.1 97.8 492.3 98.1 490.1C98.4 487.9 99.3 484.1 100.1 481.8L101.5 477.6L100.7 475.7C100.2 474.7 99.5 473.4 99 472.8C98.5 472.3 97.4 470.6 96.6 469.2C92.6 462.4 89.4 458.8 83.1 454.1C69 443.4 57.5 438.1 53.4 440.5ZM342 467.2C333.6 470.5 326.6 474.1 321.6 477.6C319.2 479.3 315.4 481.9 313.1 483.5C306.5 488 304.1 490.4 304.7 492.1C304.9 492.9 305.5 496.2 306 499.5C306.4 502.8 307 506.1 307.2 506.9C307.4 507.7 307.8 510.8 308 513.9C308.2 517 308.6 522.8 309 526.9C309.4 531 309.7 537.3 309.9 540.9C310.1 544.6 310.3 547.8 310.5 548.1C311.1 549 327.7 550.7 331.9 550.3C337.7 549.7 355.3 542.7 358.9 539.5C359.2 539.2 360.5 538.3 361.8 537.4C369 532.5 379.6 521.1 380.5 517.3C382.5 509.1 374.7 491.8 362.8 478.1C360.1 475 348.8 464.9 348.2 464.9C347.9 464.8 345.2 465.9 342 467.2ZM21.9 516C19.4 520 17.2 523.4 17.2 523.7C17.1 524.2 23.8 530.4 29.1 534.6C30.8 535.9 32.5 537.4 33 537.9C33.5 538.4 34.1 538.8 34.4 538.8C34.7 538.8 35.8 539.5 36.9 540.4C38 541.3 39 542 39.3 542C39.5 542 39.7 542.2 39.7 542.4C39.7 542.6 39.9 542.7 40.1 542.6C40.3 542.5 40.5 542.5 40.5 542.8C40.5 543.1 40.7 543.2 40.9 543.2C41.1 543.2 41.9 543.6 42.5 544C43.1 544.4 44.2 545 45 545.2C45.7 545.4 47.3 546.1 48.5 546.6C51.6 548.1 66.9 547.8 76.5 546L77.8 545.8L76.5 544.8C75.8 544.2 74.6 543.2 74 542.5C73.4 541.8 72.6 541.2 72.4 541.2C72.2 541.2 71.3 540.7 70.4 540C69.5 539.3 68.6 538.8 68.4 538.8C68.2 538.8 67.3 538.3 66.4 537.6C65.5 536.9 64.6 536.4 64.4 536.4C64.1 536.4 63.2 535.9 62.4 535.2C61.5 534.5 60.7 534 60.5 534C60.3 534 60 533.8 59.7 533.6C58.5 532.6 55 530.4 54.6 530.4C54.4 530.4 54.2 530.2 54.2 530C54.2 529.8 53.4 529.2 52.5 528.8C51.6 528.4 50.1 527.4 49.3 526.6C48.5 525.8 47.6 525.2 47.3 525.2C47 525.2 46.6 524.8 46.3 524.4C46 524 45.6 523.6 45.3 523.6C45 523.6 44.6 523.3 44.2 523C41.8 520.7 37.9 517.6 37.6 517.6C37.4 517.6 35 515.6 32.4 513.2C29.8 510.8 27.4 508.8 27.2 508.8C26.7 508.8 24.4 512 21.9 516ZM178.4 519.4C176.8 519.9 173.1 520.9 170.2 521.6C167.3 522.3 163.2 523.2 161.1 523.7L157.2 524.6V533.2C157.2 537.9 157.4 542 157.5 542.3C157.9 542.9 163.7 544.9 168.2 546C176 547.8 175.6 547.3 175.6 556C175.6 559.8 175.8 563.8 175.9 564.8L176.2 566.6L181.6 566.9C184.6 567.1 190 567.3 193.6 567.3L200.2 567.4L201.6 563.6C202.4 561.5 203.7 557.6 204.6 555L206.3 550.2L207.9 549.9C208.8 549.7 213.1 549.5 217.6 549.3C226.6 549 226.2 549.2 226.9 545.8C227.2 544.5 227.7 542.3 228.1 541C230.3 533.9 230.5 534.1 220.7 533.9L213.9 533.8L209.5 531.8C204.6 529.6 193.7 524.1 187.2 520.7C182.3 518.1 182.4 518.1 178.4 519.4ZM382.2 548.7C381.1 549.3 378.9 550.5 377.4 551.4C374.8 552.9 371.7 554.5 361.2 559.9C354.6 563.3 350.2 565.2 344.4 567.1C342.1 567.9 339.5 568.8 338.7 569.3C337.9 569.7 336.9 570.1 336.6 570.1C336.3 570.1 336 570.3 336 570.6C336 570.9 335 571.4 333.5 571.8C329 573.1 329 573.2 334 575.6C352.8 584.4 369.6 581.4 385.6 566.4C390.5 561.8 390.7 561.4 389.6 559.1C389.2 558.2 388.2 556.1 387.6 554.4C385.6 549.7 384.7 547.6 384.4 547.6C384.3 547.6 383.3 548.1 382.2 548.7Z" fill="#1380E6"/>
<path id="path3" fill-rule="evenodd" clip-rule="evenodd" d="M229.9 5.9C230.4 6 231.1 6 231.5 5.9C231.9 5.8 231.5 5.7 230.6 5.7C229.7 5.7 229.4 5.8 229.9 5.9ZM196.9 6.3C197.5 6.4 198.5 6.4 199.1 6.3C199.7 6.2 199.2 6.1 198 6.1C196.8 6.1 196.3 6.2 196.9 6.3ZM236.3 6.3C236.8 6.4 237.5 6.4 237.9 6.3C238.3 6.2 237.9 6.1 237 6.1C236.1 6.1 235.8 6.2 236.3 6.3ZM184.4 6.9C183.2 7.1 182.1 7.4 182 7.5C181.9 7.6 182.5 7.6 183.4 7.4C184.3 7.2 187.3 7 190.2 6.8L195.4 6.5H191C188.6 6.5 185.6 6.7 184.4 6.9ZM242.2 6.8C247.2 7.2 251.5 7.2 247.4 6.8C245.9 6.6 243.3 6.5 241.6 6.5H238.6L242.2 6.8ZM169.8 8.8C168.5 9 167.2 9.2 167 9.3C166.5 9.5 170.6 9.1 173.2 8.7C175.9 8.3 172.9 8.4 169.8 8.8ZM260.8 8.8C261.8 9 263.1 9.1 263.8 9.1C264.7 9.1 264.5 9 263.2 8.8C262.2 8.6 260.9 8.5 260.2 8.5C259.3 8.5 259.5 8.6 260.8 8.8ZM158.6 10.8C157.1 11.2 156.2 11.5 156.6 11.5C157 11.5 158.7 11.2 160.2 10.8C161.7 10.4 162.6 10.1 162.2 10.1C161.8 10.1 160.1 10.4 158.6 10.8ZM276.2 11C277.7 11.3 279 11.5 279.1 11.4C279.3 11.2 275.3 10.4 274.3 10.4C273.8 10.5 274.6 10.7 276.2 11ZM149.4 12.8C147.9 13.2 146.9 13.5 147.2 13.6C147.5 13.6 149.1 13.3 150.8 12.9C152.4 12.5 153.4 12.2 153 12.1C152.6 12 150.9 12.4 149.4 12.8ZM281.6 12.2C281.9 12.5 287.3 13.7 287.5 13.5C287.6 13.4 286.4 13 284.9 12.7C281.9 12 281.4 11.9 281.6 12.2ZM141.6 14.5C140.6 14.7 140.1 15 140.4 15.1C140.7 15.2 141.8 15 142.8 14.7C144.9 14 144.2 13.9 141.6 14.5ZM290 14.1C290.3 14.4 295.4 15.6 295.5 15.4C295.6 15.3 295 15.1 294.1 14.9C291.6 14.2 289.8 13.9 290 14.1ZM133.5 16.7C132.2 17 131.3 17.4 131.4 17.5C131.6 17.7 136.5 16.5 136.8 16.2C137.1 15.9 135.9 16.1 133.5 16.7ZM300 16.8C301.2 17.2 302.2 17.5 302.3 17.4C302.5 17.2 298.8 15.9 298.2 16C298 16 298.8 16.4 300 16.8ZM126.3 18.7C125 19 124.1 19.4 124.2 19.5C124.4 19.7 129.3 18.5 129.6 18.2C129.9 17.9 128.7 18.1 126.3 18.7ZM306.4 19C308.2 19.7 308.9 19.7 307.4 19C306.7 18.7 305.9 18.5 305.6 18.5C305.3 18.5 305.6 18.7 306.4 19ZM120.3 20.5C119 20.9 118 21.4 118.1 21.5C118.2 21.6 119.5 21.2 121 20.7C122.5 20.2 123.5 19.7 123.2 19.7C122.9 19.7 121.6 20 120.3 20.5ZM312 20.8C313.2 21.2 314.2 21.5 314.3 21.4C314.5 21.2 310.8 19.9 310.2 20C310 20 310.8 20.4 312 20.8ZM113.7 22.7C112.8 23 112 23.4 112.1 23.5C112.2 23.6 113.2 23.3 114.4 22.9C115.6 22.5 116.3 22.1 116 22.1C115.7 22.1 114.6 22.3 113.7 22.7ZM317 22.6C317.7 22.9 318.6 23.3 319.2 23.4L320.2 23.7L319.2 23.1C318.6 22.8 317.7 22.4 317 22.3L315.8 22.1L317 22.6ZM107.7 24.7C106.8 25 106 25.4 106.1 25.5C106.2 25.6 107.2 25.3 108.4 24.9C109.6 24.5 110.3 24.1 110 24.1C109.7 24.1 108.6 24.3 107.7 24.7ZM322 24.6C322.5 24.9 323.2 25.2 323.4 25.2C323.6 25.2 323.4 24.9 322.8 24.6C322.3 24.3 321.6 24 321.4 24C321.2 24 321.5 24.3 322 24.6ZM327 26.8C328.3 27.4 329.6 27.9 329.8 27.9C330 27.9 329.1 27.4 327.8 26.7C326.5 26.1 325.2 25.6 325 25.6C324.8 25.7 325.7 26.2 327 26.8ZM102.1 26.7C101.2 27 100.4 27.4 100.5 27.5C100.7 27.7 104.4 26.5 104.4 26.2C104.4 25.9 103.9 26 102.1 26.7ZM191.4 28.9C191.3 29.8 191.2 31.6 191.3 32.8L191.5 35L191.6 32.4C191.6 31 191.8 29.2 192 28.5C192.2 27.8 192.2 27.2 192 27.2C191.8 27.2 191.5 28 191.4 28.9ZM97.6 28.6C97.1 28.9 96.8 29.2 97 29.2C97.2 29.2 97.8 28.9 98.4 28.6C98.9 28.3 99.2 28 99 28C98.8 28 98.2 28.3 97.6 28.6ZM195 29.7C196.1 30.7 199.5 33.7 202.6 36.5C205.7 39.3 208.3 41.5 208.4 41.4C208.5 41.3 207.9 40.6 207 39.9C206.2 39.2 203.2 36.6 200.4 34.1C197.6 31.6 194.8 29.2 194.2 28.7C193.6 28.2 193.9 28.7 195 29.7ZM331.6 28.8C332.4 29.2 333.2 29.6 333.4 29.6C333.6 29.6 333.2 29.3 332.4 28.8C331.6 28.4 330.8 28 330.6 28C330.4 28 330.8 28.4 331.6 28.8ZM93.7 30.2C91.4 31.2 90.8 31.9 92.9 31C94.7 30.2 96.7 29.2 96.2 29.2C96 29.3 94.9 29.7 93.7 30.2ZM336 30.6C337.2 31.2 338.2 31.5 338.3 31.5C338.4 31.4 337.7 31 336.7 30.6C334 29.5 333.6 29.5 336 30.6ZM88.9 32.4C88 32.8 87.2 33.3 87.2 33.4C87.2 33.6 89.5 32.7 90.7 32C91.8 31.4 90.7 31.6 88.9 32.4ZM338.8 31.8C338.8 32 341.8 33.6 342.3 33.6C342.5 33.6 342.2 33.3 341.8 33C340.8 32.3 338.8 31.5 338.8 31.8ZM84.5 34.4C83.6 34.8 82.8 35.2 82.8 35.4C82.8 35.6 86.4 34.1 86.8 33.8C87.1 33.4 86.1 33.7 84.5 34.4ZM342.8 33.7C342.8 34 345.7 35.6 345.8 35.5C345.9 35.4 345.2 35 344.3 34.5C343.5 34 342.8 33.6 342.8 33.7ZM347 36.2C347.9 36.9 350.4 38.3 349.8 37.7C349.6 37.5 348.7 36.9 347.8 36.4C346.9 35.9 346.6 35.8 347 36.2ZM71.6 40.6C66.5 43.1 62.4 45.3 62.4 45.4C62.4 45.6 80.8 36.5 81.2 36.2C81.7 35.6 80 36.4 71.6 40.6ZM190.9 37.6C190.9 38.4 191 38.7 191.1 38.3C191.2 37.9 191.2 37.3 191.1 36.9C191 36.5 190.9 36.8 190.9 37.6ZM350.6 38.4C350.7 38.6 351.2 39 351.7 39.3C352.3 39.6 352.4 39.6 352.3 39.3C352.2 39.1 351.7 38.7 351.2 38.4C350.5 38 350.4 38 350.6 38.4ZM311 39.1C310.9 39.3 310.9 39.6 311.2 39.6C311.5 39.7 311.4 43.4 311 50.5C310.5 60.7 310.4 64.1 310.9 59.4C312 49.9 312 37.6 311 39.1ZM352.8 39.7C352.9 39.9 354.1 40.7 355.5 41.7C358.6 43.8 371.4 55.8 374.2 59.1C375.4 60.5 376.3 61.4 376.3 61.1C376.3 60.1 359.2 43.7 355.5 41.3C353.5 39.9 352.5 39.4 352.8 39.7ZM307.2 41.6C304.9 43.3 303.5 44.6 305.2 43.4C309.1 40.8 310 40.2 310 40C310 39.8 309.2 40.2 307.2 41.6ZM190.3 46.6C189.8 51.8 189.2 63.2 189.3 65.6C189.3 66.8 189.7 62.6 190.1 56.2C190.7 45.2 190.9 39.6 190.3 46.6ZM211.4 44.3C215.3 48 228 59.6 229.6 61C230.8 62.1 233.1 64.1 234.6 65.6C236.1 67.1 240.3 71 243.9 74.3C247.5 77.7 250.5 80.4 250.7 80.4C251.1 80.4 259.1 75.1 259.8 74.3C260.6 73.5 257.7 75.3 254.4 77.6C250.2 80.6 250.9 80.7 246.6 76.5C237.1 67.4 233.9 64.4 231 61.8C227.1 58.3 223.7 55.2 217.1 49C214.3 46.4 211.8 44.1 211.5 44C211.2 44 211.1 44 211.4 44.3ZM302.7 44.8C301.8 45.6 301.8 45.6 302.6 45.2C303.1 45 303.6 44.6 303.7 44.4C304.2 43.8 303.8 43.9 302.7 44.8ZM299.9 46.6C299.1 47.1 298.4 47.7 298.4 47.8C298.4 48.1 300.8 46.7 301.3 46.1C301.9 45.4 301.6 45.5 299.9 46.6ZM58.3 47.3C57 48 56 48.7 56 48.9C56 49.1 56.3 49 56.7 48.7C57.1 48.4 58.3 47.6 59.4 47.1C60.5 46.5 61.2 46.1 61 46.1C60.8 46 59.6 46.6 58.3 47.3ZM296.6 49L295.4 50L296.7 49.1C297.4 48.6 298 48.2 298 48.1C298 47.9 297.8 48 296.6 49ZM55.7 52.6C55.7 54.1 55.8 54.7 55.9 53.9C56 53.1 56 51.8 55.9 51.1C55.8 50.4 55.7 51.1 55.7 52.6ZM293.9 50.8C293 51.6 293 51.6 293.8 51.2C294.3 51 294.8 50.6 294.9 50.4C295.4 49.8 295 49.9 293.9 50.8ZM289.7 53.6C288.1 54.7 286.8 55.7 286.8 55.8C286.8 55.9 288.2 55.1 289.8 53.9C292.4 52.1 293.1 51.5 292.7 51.5C292.6 51.6 291.3 52.5 289.7 53.6ZM49.2 53.2C49.2 53.6 49.4 54.1 49.6 54.2C49.8 54.3 50 54.1 50 53.6C50 53.2 49.8 52.7 49.6 52.6C49.4 52.5 49.2 52.7 49.2 53.2ZM282.6 58.4C279.2 60.7 277.3 62.1 278.8 61.3C280 60.6 286.4 56.2 286.4 56.1C286.4 55.9 286.3 55.9 282.6 58.4ZM276.6 62.6L275.4 63.6L276.7 62.7C277.4 62.2 278 61.8 278 61.7C278 61.5 277.8 61.6 276.6 62.6ZM271.2 66.2C269.1 67.6 267.2 68.8 267 68.9C266.8 69 266.7 69.2 266.8 69.3C267 69.5 271.8 66.4 274.6 64.2C276.5 62.8 274.7 63.8 271.2 66.2ZM49.2 65.9C49.1 66.7 49.1 67.1 49.3 66.8C49.5 66.6 49.6 66 49.5 65.5C49.4 64.7 49.3 64.8 49.2 65.9ZM55.3 69C55.3 71 55.4 71.8 55.5 70.9C55.6 70 55.6 68.4 55.5 67.3C55.4 66.3 55.3 67 55.3 69ZM310 67.2C309.8 69.2 308.5 96.2 308.6 96.3C308.8 96.5 309.2 91.3 309.8 78.6C310.1 72.4 310.3 67.3 310.2 67.2C310.1 67.1 310 67.1 310 67.2ZM188.9 71C188.9 72.3 189 72.8 189.1 72.1C189.2 71.4 189.2 70.3 189.1 69.7C189 69.1 188.9 69.7 188.9 71ZM264.7 70.6C263.9 71.2 263.2 71.7 263.2 71.8C263.2 71.9 263.9 71.5 264.8 70.9C266.2 70 266.7 69.5 266.3 69.5C266.2 69.6 265.5 70.1 264.7 70.6ZM261.5 72.8C260.6 73.6 260.6 73.6 261.4 73.2C261.9 73 262.4 72.6 262.5 72.4C263 71.8 262.6 71.9 261.5 72.8ZM188.3 79.8C188.1 82 187.9 86.7 187.8 90.2C187.6 96.3 187.6 96.1 188.2 87.6C188.5 82.7 188.7 78 188.7 77.2C188.6 76.4 188.5 77.6 188.3 79.8ZM54.7 87.8C54.1 112.1 53.9 120.6 54.1 120.4C54.4 120.1 55.4 78.7 55.1 78C55 77.7 54.8 82.1 54.7 87.8ZM376.2 85.6C376.2 88.8 376.3 90.1 376.3 88.5C376.3 86.9 376.4 84.3 376.3 82.7C376.2 81.1 376.2 82.4 376.2 85.6ZM304.5 86.6C304.5 87.7 304.6 88.1 304.7 87.5C304.8 86.9 304.8 86 304.7 85.5C304.6 85 304.5 85.5 304.5 86.6ZM382.3 91.8C382.1 92 382 92.4 382 92.7C382 93.1 382.1 93.2 382.4 92.9C382.6 92.7 382.8 92.2 382.7 92C382.7 91.8 382.5 91.7 382.3 91.8ZM187.3 101.6C187.3 103.7 187.4 104.5 187.5 103.5C187.6 102.5 187.6 100.7 187.5 99.7C187.4 98.7 187.3 99.5 187.3 101.6ZM375.7 101C375.7 102.8 375.8 103.4 375.9 102.5C376 101.6 376 100.1 375.9 99.3C375.8 98.5 375.7 99.2 375.7 101ZM308.1 101.4C308.1 102.3 308.2 102.6 308.3 102.1C308.4 101.6 308.4 100.9 308.3 100.5C308.2 100.1 308.1 100.5 308.1 101.4ZM307.4 106.5C307 110.8 306.3 123.7 306.5 123.9C306.6 124 306.8 122.6 306.9 120.7C307 118.9 307.3 114.3 307.6 110.6C308.1 103.9 308 101 307.4 106.5ZM375.1 115.3C375 120.6 374.8 126.2 374.7 127.6L374.5 130.2L374.8 128C375.2 125.5 375.8 105.6 375.5 105.6C375.4 105.6 375.2 110 375.1 115.3ZM47.2 111C47.2 111.6 47.4 112 47.6 112C47.8 112 48 111.7 48 111.2C48 110.7 47.8 110.3 47.6 110.2C47.4 110.1 47.2 110.4 47.2 111ZM186.9 113.6C186.9 115 187 115.6 187.1 114.9C187.2 114.2 187.2 113 187.1 112.3C187 111.6 186.9 112.2 186.9 113.6ZM186.3 128.4C186.1 132.7 185.9 139 185.8 142.4C185.7 145.8 185.7 148.5 185.8 148.4C186.1 148.1 187 122.5 186.8 121.4C186.6 121 186.4 124.1 186.3 128.4ZM53.7 125.8C53.7 127.6 53.8 128.2 53.9 127.3C54 126.4 54 124.9 53.9 124.1C53.8 123.3 53.7 124 53.7 125.8ZM306.1 129.6C306.1 130.6 306.2 131 306.3 130.5C306.4 130 306.4 129.2 306.3 128.7C306.2 128.2 306.1 128.6 306.1 129.6ZM301.3 135.2C301.3 136 301.4 136.3 301.5 135.9C301.6 135.5 301.6 134.9 301.5 134.5C301.4 134.1 301.3 134.4 301.3 135.2ZM53.3 135.8C53.3 136.7 53.4 137 53.5 136.5C53.6 136 53.6 135.3 53.5 134.9C53.4 134.5 53.3 134.9 53.3 135.8ZM305.6 135.6C305.6 136.4 305.4 140.3 305.2 144.4C304.5 159.1 304.3 163.4 304.5 163.2C304.8 162.9 306.1 135.3 305.8 134.7C305.8 134.4 305.6 134.8 305.6 135.6ZM374.1 136C374.1 136.8 374.2 137.1 374.3 136.7C374.4 136.3 374.4 135.7 374.3 135.3C374.2 134.9 374.1 135.2 374.1 136ZM189.7 140.6C189.7 141.5 189.8 141.8 189.9 141.3C190 140.8 190 140.1 189.9 139.7C189.8 139.3 189.7 139.7 189.7 140.6ZM373.7 142.8C373.7 144 373.8 144.5 373.9 143.9C374 143.3 374 142.3 373.9 141.7C373.8 141.1 373.7 141.6 373.7 142.8ZM52.7 145.5C52.4 150.2 52 161.6 52.2 160.8C52.4 159.9 53.3 142.3 53.1 142.1C53 142 52.8 143.6 52.7 145.5ZM373 152.9C372.8 156.2 372.8 158.9 372.9 159C373.2 159.3 373.7 148.7 373.5 147.7C373.4 147.4 373.2 149.7 373 152.9ZM185.3 150.4C185.3 151.2 185.4 151.5 185.5 151.1C185.6 150.7 185.6 150.1 185.5 149.7C185.4 149.3 185.3 149.6 185.3 150.4ZM372.9 160.8C372.9 161.6 373 161.9 373.1 161.5C373.2 161.1 373.2 160.5 373.1 160.1C373 159.7 372.9 160 372.9 160.8ZM372.5 163.6C372.5 164.4 372.6 164.7 372.7 164.3C372.8 163.9 372.8 163.3 372.7 162.9C372.6 162.5 372.5 162.8 372.5 163.6ZM184.2 165.7C183.7 171 183.1 182.1 183.3 182.3C183.4 182.4 183.5 182.3 183.5 182C183.5 181.7 183.8 177.4 184.1 172.5C184.4 167.6 184.6 163.5 184.5 163.4C184.4 163.3 184.4 164.3 184.2 165.7ZM372.7 167C372.6 168 372.5 171.5 372.5 174.7L372.6 180.5L372.9 172.9C373 168.7 373.1 165.3 373.1 165.2C372.9 165.2 372.8 166 372.7 167ZM304.1 170C304.1 171.9 304.2 172.6 304.3 171.7C304.4 170.8 304.4 169.2 304.3 168.3C304.2 167.4 304.1 168.1 304.1 170ZM303.6 175.8C303.6 176.7 303.3 181.9 303 187.5C302.4 197.2 302.4 200.9 302.9 195.4C303.4 190.6 304.1 174.6 303.8 174.4C303.7 174.4 303.6 175 303.6 175.8ZM50.7 180.3C50.4 185.4 50 197.7 50.3 196.6C50.5 195.4 51.3 176.7 51.2 176.5C51 176.4 50.8 178.1 50.7 180.3ZM179.2 185.8C177.3 186.5 173.3 188.3 170.2 189.8C167.1 191.3 162.9 193.3 160.8 194.2C158.7 195.1 155.2 197 153 198.5C150.8 199.9 147.7 201.8 146.2 202.7C144.7 203.5 142.1 205.2 140.4 206.3C129.3 213.9 125.1 216.5 120 219.2C111.7 223.5 104.6 227.6 101.8 229.6C96.2 233.6 88.6 238.7 85.1 240.7C76 245.9 64.6 254.2 60.2 258.8C58 261.1 54.5 264.7 52.5 266.8L48.8 270.6L49 248.4C49.1 235.2 49.1 229.8 48.9 235C48.4 250.7 48.4 271.3 49 271.1C49.3 271 52.7 267.5 56.7 263.3C60.7 259.1 64.7 255 65.7 254.3C66.7 253.6 69.2 251.9 71.3 250.5C73.4 249.1 75.2 247.8 75.3 247.7C75.6 247.3 81.9 243.2 85.9 240.9C89.9 238.5 92.8 236.6 98.7 232.5C100.9 231 103.3 229.3 104.1 228.8C106.6 227.1 113 223.5 119.9 219.9C123.6 218 127.6 215.7 128.7 214.9C132.4 212.2 146 203.3 146.4 203.3C146.8 203.3 148.9 202 153.6 198.8C155.2 197.7 156.6 196.9 156.7 196.9C156.8 196.9 157.4 196.6 158 196.2C158.6 195.8 159.8 195.2 160.7 194.9C161.6 194.6 162.9 194.1 163.7 193.7C168.8 191.1 177.5 187.1 179.9 186.2C181.4 185.7 182.9 185 183.1 184.8C183.6 184.2 182.8 184.4 179.2 185.8ZM371.1 188.8C370.9 190.2 370.8 192.5 370.9 193.8C370.9 195.8 371 195.4 371.3 192C371.7 187.3 371.5 184.8 371.1 188.8ZM280 188.2C280.7 189 281.4 189.6 281.6 189.6C281.7 189.6 281.2 189 280.4 188.2C279.6 187.4 279 186.8 278.8 186.8C278.7 186.8 279.3 187.4 280 188.2ZM181.8 190.8C181.6 191 180.7 191.4 179.8 191.7C178.9 192 176.7 193 174.9 193.9C173.1 194.8 169.3 196.6 166.5 197.9C163.7 199.1 161 200.4 160.6 200.6C160.2 200.8 159.4 201.3 159 201.5C158.6 201.7 156.6 203 154.8 204.2C152.9 205.4 150.6 206.9 149.6 207.4C147.7 208.4 144.3 210.6 134.8 217C131.4 219.3 126.5 222.3 124 223.6C121.5 224.9 117.3 227.1 114.7 228.6C112.1 230 109.5 231.5 108.9 231.8C108.3 232.1 107.2 232.9 106.4 233.5C105 234.6 100.5 237.7 94.2 241.9C89.6 245 88.5 245.6 85.2 247.5C83.6 248.4 81.5 249.7 80.6 250.4C75.9 253.9 74.4 255 71.8 256.6C70.3 257.6 68.2 259 67.3 259.8C65.7 261.1 54.8 272.8 54.8 273.2C54.8 273.5 57.7 272.8 60 271.9C61.2 271.4 63 270.9 64 270.6C65 270.3 65.6 270.1 65.4 270C65 269.9 59.2 271.6 56.4 272.6C55.6 272.9 60.8 267.1 65.2 262.7C67.1 260.8 70.5 258 72.8 256.5C77.7 253.2 78 253 81 250.8C82.3 249.8 84.6 248.4 86.2 247.5C90 245.4 102.1 237.5 105.6 234.8C107.9 233 114 229.5 121.9 225.5C125.9 223.5 130.2 221 131.5 220.1C138 215.6 146.8 209.8 149.2 208.5C150.7 207.7 153.7 205.9 155.8 204.4C159.2 202.2 162.3 200.6 168.1 198C168.9 197.7 171.8 196.3 174.7 194.9C177.6 193.5 180.6 192.2 181.4 191.9C182.2 191.6 182.9 191.2 182.9 191.1C182.8 190.3 182.3 190.3 181.8 190.8ZM376.3 193C376.1 193.2 376 193.6 376 193.9C376 194.3 376.1 194.4 376.4 194.1C376.6 193.9 376.8 193.4 376.7 193.2C376.7 193 376.5 192.9 376.3 193ZM294 195.3C295.7 197.1 296 197.4 296 197.1C296 197 295.1 196.2 294.1 195.2L292.2 193.4L294 195.3ZM296.9 195.2C296.9 196 297 196.3 297.1 195.9C297.2 195.5 297.2 194.9 297.1 194.5C297 194.1 296.9 194.4 296.9 195.2ZM182.2 197.7C181.8 203.3 181.2 220.8 181.2 225.6C181.2 228.6 181.4 227.1 181.6 221C181.8 215.9 182.1 207.9 182.3 203.2C182.8 194.8 182.7 191.2 182.2 197.7ZM370.5 202C370.5 204.1 370.6 204.9 370.6 203.9C370.7 202.9 370.7 201.1 370.6 200.1C370.6 199.1 370.5 199.9 370.5 202ZM302.1 202.2C302.1 203.1 302.2 203.4 302.3 202.9C302.4 202.4 302.4 201.7 302.3 201.3C302.2 200.9 302.1 201.3 302.1 202.2ZM49.7 204.4C49.7 206.3 49.8 207 49.9 206.1C50 205.2 50 203.6 49.9 202.7C49.8 201.8 49.7 202.5 49.7 204.4ZM302.4 204.2C302.4 204.4 303.4 205.8 304.7 207.2C306 208.6 307.9 210.8 309 212.2C310.1 213.5 311.9 215.6 313 216.8C314.1 218 316.2 220.3 317.6 222C319 223.6 321.2 226.1 322.4 227.4C323.6 228.7 326.6 232.5 329 235.8C331.4 239.1 334.6 243.3 336.1 245.2C337.6 247.1 339.3 249.4 339.9 250.4C340.5 251.4 342.1 253.6 343.4 255.4C344.7 257.2 346.3 259.4 346.9 260.3C347.5 261.2 348.9 263.1 350.1 264.5C354 269.2 359.1 276.3 360.3 278.5C360.9 279.7 361.7 281.1 362.1 281.7C362.9 282.7 363.1 285.1 362.4 285.5C361.7 285.9 361.9 286.4 362.9 286.9C363.7 287.3 363.7 287.3 363.1 286.8C362.5 286.3 362.5 286.2 363 285.5C363.8 284.4 363.7 283.2 362.8 282C362.4 281.5 361.4 279.8 360.6 278.2C359.3 275.6 357.5 273.1 351.4 265.5C348.7 262.1 345.4 257.5 341.4 251.6C340 249.5 338 246.8 337.1 245.6C336.1 244.4 334.1 241.7 332.6 239.7C326.7 231.7 322.4 226.4 313 216.1C311.7 214.6 309.5 212.1 308.1 210.5C304 205.5 302.4 203.8 302.4 204.2ZM370.1 209.6C370.1 210.6 370.2 211 370.3 210.5C370.4 210 370.4 209.2 370.3 208.7C370.2 208.2 370.1 208.6 370.1 209.6ZM186.5 210.8C186.5 212 186.6 212.5 186.7 211.9C186.8 211.3 186.8 210.3 186.7 209.7C186.6 209.1 186.5 209.6 186.5 210.8ZM301.7 212.5C301.1 213.2 300 256.5 300.6 256C300.7 255.9 301 246.4 301.2 234.8C301.5 223.3 301.8 213.6 301.9 213.4C302.1 213 303.5 214.5 312.9 225.4C314.6 227.4 316.9 230 317.9 231.1C318.9 232.2 321.6 235.5 323.9 238.5C326.2 241.5 329.5 245.9 331.3 248.3C333.1 250.7 335.5 254 336.5 255.5C339.7 260.2 343.1 265 345 267.3C351.7 275.6 356.4 282.3 356.4 283.6C356.4 284 355.1 283.6 352.5 282.3C349.2 280.7 348.4 280.5 350.4 281.8C352.1 282.9 356.8 284.6 357.1 284.4C357.3 284.2 355.4 280.2 354.2 278.4C353.3 277.1 350.9 274 346.7 268.8C345.2 267 342.9 263.8 341.5 261.9C335.4 253.1 333.2 250 329.8 245.6C327.8 243 325.9 240.5 325.6 240C324.3 238.1 320.2 232.8 319.4 232.1C318.9 231.7 316.9 229.3 314.8 226.9C312.7 224.5 310.8 222.2 310.4 221.9C308.7 220.1 304.5 215.3 303.5 213.9C302.2 211.8 302.2 211.8 301.7 212.5ZM369.7 219C369.7 220.8 369.8 221.4 369.9 220.5C370 219.6 370 218.1 369.9 217.3C369.8 216.5 369.7 217.2 369.7 219ZM49.4 221C49.4 223.6 49.5 224.7 49.5 223.3C49.6 221.9 49.6 219.8 49.5 218.5C49.4 217.2 49.4 218.4 49.4 221ZM369.3 225.4C369.3 226.5 369.4 226.9 369.5 226.3C369.6 225.7 369.6 224.8 369.5 224.3C369.4 223.8 369.3 224.3 369.3 225.4ZM368.9 232.4C368.9 234.7 369 235.7 369 234.5C369 233.3 369.1 231.5 369 230.3C368.9 229.1 368.9 230.1 368.9 232.4ZM180.9 235.6C180.9 237.2 181 237.9 181.1 237.1C181.2 236.3 181.2 234.9 181.1 234.1C181 233.3 180.9 233.9 180.9 235.6ZM368.5 240.2C368.5 241.7 368.6 242.3 368.7 241.5C368.8 240.7 368.8 239.4 368.7 238.7C368.6 238 368.5 238.7 368.5 240.2ZM180.3 244.1C179.9 247 179.5 252.8 179.7 252.8C180 252.8 180.9 242.8 180.7 242.6C180.6 242.4 180.4 243.1 180.3 244.1ZM170.4 257.5C169.6 257.6 162.9 257.9 155.4 258.2C147.9 258.5 143.6 258.8 145.8 258.8C151.3 258.9 170.6 258.1 172.6 257.7C174.4 257.3 173.1 257.2 170.4 257.5ZM367.5 261.6C367.3 263.7 367.1 268.4 367 272C366.8 278.1 366.9 277.9 367.4 269.2C367.7 264 367.9 259.3 367.9 258.8C367.8 258.2 367.7 259.5 367.5 261.6ZM137.7 259.1C138.3 259.2 139.3 259.2 139.9 259.1C140.5 259 140 258.9 138.8 258.9C137.6 258.9 137.1 259 137.7 259.1ZM126.5 259.5C127.3 259.6 128.7 259.6 129.5 259.5C130.3 259.4 129.6 259.3 128 259.3C126.3 259.3 125.7 259.4 126.5 259.5ZM117.4 260C112.3 260.5 111.5 260.7 116 260.5C120.9 260.2 125.5 259.7 122.8 259.7C121.8 259.7 119.4 259.9 117.4 260ZM110.1 261.1C110.5 261.2 111.1 261.2 111.5 261.1C111.9 261 111.6 260.9 110.8 260.9C110 260.9 109.7 261 110.1 261.1ZM106.3 261.5C106.8 261.6 107.6 261.6 108.1 261.5C108.6 261.4 108.2 261.3 107.2 261.3C106.2 261.3 105.8 261.4 106.3 261.5ZM98.1 262C96.3 262.2 94.7 262.4 94.5 262.5C94.3 262.7 99.1 262.4 103 261.9L105.4 261.6H103.4C102.3 261.7 99.9 261.9 98.1 262ZM87.7 264C85.7 264.4 83.9 264.8 83.7 265C83.5 265.2 83.7 265.2 84.2 265.1C84.6 265 86.7 264.6 88.8 264.2C90.9 263.8 92.7 263.5 92.8 263.4C93.1 263.1 91.5 263.3 87.7 264ZM161.9 264.3C162.4 264.4 163.1 264.4 163.5 264.3C163.9 264.2 163.5 264.1 162.6 264.1C161.7 264.1 161.4 264.2 161.9 264.3ZM77.9 265.9C76 266.3 74.3 266.7 74.2 266.8C73.9 267.1 81.5 265.8 81.9 265.4C82.2 265.1 82.2 265.1 77.9 265.9ZM70.2 267.9C69.1 268.2 68 268.7 67.8 268.8C67.6 269 68.5 268.8 69.7 268.4C70.9 268 72.1 267.6 72.2 267.4C72.6 267.1 72.6 267.1 70.2 267.9ZM300.4 268C300.4 268.3 300.8 268.5 303 269C304.6 269.4 304.2 269 302.1 268.3C301.2 268 300.4 267.8 300.4 268ZM294.9 269.2C294.9 270 295 270.3 295.1 269.9C295.2 269.5 295.2 268.9 295.1 268.5C295 268.1 294.9 268.4 294.9 269.2ZM308.2 270.2C309.3 270.5 310.5 270.8 310.8 270.8C311.8 270.8 309.9 270.2 308 269.9L306.2 269.7L308.2 270.2ZM315.6 272C320.3 273.2 320.7 273.2 320 272.8C319.3 272.4 313.9 271.1 313.1 271.2C312.8 271.3 314 271.6 315.6 272ZM323.6 274C325.2 274.4 326.7 274.7 326.7 274.6C326.9 274.4 324.2 273.7 322.2 273.4C321.3 273.3 321.9 273.6 323.6 274ZM331.2 275.9C332.7 276.4 335.6 276.8 334.6 276.4C334.2 276.2 333 275.9 332 275.8C330.8 275.7 330.5 275.7 331.2 275.9ZM340.6 278.2C341.7 278.5 342.7 278.7 342.7 278.6C342.9 278.4 339.9 277.6 339.2 277.6C338.9 277.7 339.5 277.9 340.6 278.2ZM344.4 279.4C344.5 279.5 345.5 279.8 346.7 280.2C347.9 280.6 348.7 280.7 348.5 280.5C348 280 343.9 278.9 344.4 279.4ZM366.5 280.8C366.5 281.8 366.6 282.2 366.7 281.7C366.8 281.2 366.8 280.4 366.7 279.9C366.6 279.4 366.5 279.8 366.5 280.8ZM41.6 288.9C39.5 290.9 38.4 292 39.2 291.4C41.6 289.3 45.8 285.3 45.6 285.3C45.5 285.2 43.7 286.9 41.6 288.9ZM46.7 286.8C47 287.7 47.4 288.3 47.5 288.2C47.7 288 46.5 285.2 46.3 285.2C46.1 285.2 46.3 285.9 46.7 286.8ZM372.2 287.6C372 288.1 372 288.5 372.1 288.7C372.2 288.8 372.4 288.5 372.6 288C372.8 287.5 372.8 287 372.7 286.9C372.6 286.8 372.4 287.1 372.2 287.6ZM364.4 287.6C364.7 287.8 365.3 288 365.8 288C366.8 288 366.5 287.8 365 287.5C364.1 287.2 364 287.3 364.4 287.6ZM48.6 291.6C48.7 292.1 49 292.9 49.2 293.2C49.5 293.6 49.5 293.5 49.3 292.8C49.2 292.3 48.9 291.5 48.7 291.2C48.5 290.8 48.4 290.9 48.6 291.6ZM34.4 296.1C33 297.6 32 298.8 32.2 298.7C32.7 298.5 37.4 293.6 37.2 293.4C37.1 293.4 35.8 294.6 34.4 296.1ZM50.6 296.7C51.2 298.2 51.6 298.8 51.6 298.3C51.6 297.8 50.4 295.2 50.2 295.2C50.1 295.2 50.3 295.9 50.6 296.7ZM52.4 301C52.4 301.2 52.7 301.9 53 302.4C53.3 303 53.6 303.2 53.6 303C53.6 302.8 53.3 302.1 53 301.6C52.7 301 52.4 300.8 52.4 301ZM31.7 304.4C31.7 305.4 31.8 305.8 31.9 305.3C32 304.8 32 304 31.9 303.5C31.8 303 31.7 303.4 31.7 304.4ZM53.6 303.7C53.6 304.2 55.3 308 55.4 307.8C55.5 307.7 55.1 306.7 54.6 305.5C54.1 304.4 53.6 303.5 53.6 303.7ZM56 309.4C56 309.6 56.4 310.5 56.8 311.4C57.2 312.3 57.5 312.5 57.3 312C57.1 310.9 56 308.8 56 309.4ZM58 314.2C58 314.4 58.3 315.2 58.8 316C59.3 316.8 59.6 317.2 59.6 317C59.6 316.8 59.3 316 58.8 315.2C58.4 314.4 58 314 58 314.2ZM370.9 323.4C370.8 328.2 370.7 336.7 370.6 342.2L370.4 352.2L370.8 344.2C371 339.8 371.1 331.3 371.1 325.4L371 314.6L370.9 323.4ZM377.5 320.2L382.9 325.4L382.7 330C382.6 333 382.6 333.9 382.8 332.4C383 331.2 383.1 329.1 383.2 327.8V325.4L379.3 321.6C377.2 319.5 374.7 317.2 373.8 316.4C372.9 315.6 374.6 317.3 377.5 320.2ZM32.3 327.4C32.4 332.9 32.6 339 32.8 341C33.2 345.5 32.8 331.1 32.4 323C32.2 318.9 32.1 320.1 32.3 327.4ZM60 319.2C60 319.5 60.3 320.4 60.8 321.2C61.8 323 61.8 322.3 60.8 320.2C60.4 319.3 60.1 318.9 60 319.2ZM62.2 324.2C62.9 325.8 63.6 327.1 63.6 326.8C63.6 326.4 62 322.8 61.8 322.8C61.7 322.8 61.9 323.4 62.2 324.2ZM64.3 329C64.7 330 65.1 330.8 65.2 330.8C65.5 330.8 64.4 328 63.9 327.5C63.8 327.3 64 327.9 64.3 329ZM65.8 332.8C65.8 334.1 65.9 334.3 66.2 333.6C66.4 333.1 66.4 332.4 66.2 331.9C65.9 331.3 65.8 331.5 65.8 332.8ZM64.6 336.8C64.2 337.9 64 338.9 64.1 339.1C64.2 339.2 64.6 338.4 64.9 337.2C65.7 334.4 65.5 334.1 64.6 336.8ZM382.1 339.6C382.1 340.4 382.2 340.7 382.3 340.3C382.4 339.9 382.4 339.3 382.3 338.9C382.2 338.5 382.1 338.8 382.1 339.6ZM62.6 341.9C62.2 342.5 60.9 344.1 59.9 345.4C58.8 346.7 57.9 348.2 57.8 348.7C57.7 349.2 57.4 349.6 57.2 349.6C57 349.6 56.7 349.9 56.6 350.3C56.5 350.7 55.6 351.8 54.6 352.8C53.6 353.8 52.6 355.2 52.2 356C51.9 356.7 51.3 357.4 50.9 357.6C50.5 357.7 49.6 358.4 48.9 359.2C48.2 359.9 47.4 360.5 47.2 360.5C47 360.5 46.8 360.6 46.8 360.8C46.8 361 46.5 361.3 46 361.5C41.7 363.7 39 364.9 37.6 365.1C36.6 365.3 36 365.6 36 365.9C36 366.5 35.2 366.7 35.2 366.1C35 362.4 34.7 359.6 34.4 358.3C34.1 356.9 34.1 357.1 34.2 359.4C34.3 360.9 34.5 364.6 34.5 367.6C34.7 376.8 36.9 381.7 43.6 388.4C48.8 393.5 48.2 393.6 49.9 387.3C50.4 385.6 51.3 382.3 51.9 380C52.5 377.7 53.7 373.5 54.4 370.8C56.7 362.3 58.2 357.3 60.6 350C63.9 340.5 64 339.9 62.6 341.9ZM33.3 347.4C33.3 348.9 33.4 349.5 33.5 348.7C33.6 347.9 33.6 346.6 33.5 345.9C33.4 345.2 33.3 345.9 33.3 347.4ZM381.4 346.5C381.1 347.5 380.3 358.5 380.5 358.7C380.6 358.8 380.8 358.3 380.8 357.6C380.8 356.8 381 353.9 381.3 351.1C381.8 346.3 381.8 345.3 381.4 346.5ZM33.7 353.4C33.7 354.5 33.8 354.9 33.9 354.3C34 353.7 34 352.8 33.9 352.3C33.8 351.8 33.7 352.3 33.7 353.4ZM370.1 356C370.1 357.6 370.2 358.3 370.3 357.5C370.4 356.7 370.4 355.3 370.3 354.5C370.2 353.7 370.1 354.4 370.1 356ZM379.6 363.6C379.6 363.7 379.3 365.9 379 368.6C378.4 373.5 378.3 375.1 378.6 374.8C378.9 374.5 380.1 363.9 379.8 363.7C379.7 363.6 379.6 363.5 379.6 363.6ZM369.7 369.2C369.7 371.3 369.8 372.1 369.9 371.1C370 370.1 370 368.3 369.9 367.3C369.8 366.3 369.7 367.1 369.7 369.2ZM312.3 367.5C312.8 367.6 313.5 367.6 313.9 367.5C314.3 367.4 313.9 367.3 313 367.3C312.1 367.3 311.8 367.4 312.3 367.5ZM369.4 378.4C369.3 378.7 369.1 382.8 369 387.4C368.9 392 368.7 399.3 368.5 403.6C368.2 412.6 368.3 412.9 370.8 410.5C372.8 408.6 373 408 373.9 403C376.4 388.9 377.9 380.2 377.9 379.5C377.9 379 377.7 379.6 377.5 380.7C377.1 383 376.8 383.2 374.8 381.9C374 381.4 372.7 380.7 371.9 380.3C371.1 379.9 370.2 379.2 370 378.7C369.8 378 369.6 377.9 369.4 378.4ZM362.5 389.2C362.5 390 362.6 390.3 362.7 389.9C362.8 389.5 362.8 388.9 362.7 388.5C362.6 388.1 362.5 388.4 362.5 389.2ZM111.8 401.2C108.5 401.4 105.3 401.6 104.6 401.7C102.5 402 117.3 401.5 119.8 401.2L122.2 400.9H120C118.8 400.9 115.1 401.1 111.8 401.2ZM152 401.2C154.3 401.4 159.8 401.6 164.2 401.6L172.1 401.7L171.9 405.3C171.8 407.3 171.6 411 171.5 413.5C171.3 419.5 171.8 414.3 172.3 406.2L172.6 401.1H166.4C163 401.1 157.4 401 154 400.9C148.4 400.9 148.2 400.9 152 401.2ZM99.5 402.3C100.2 402.4 101.3 402.4 101.9 402.3C102.5 402.2 101.9 402.1 100.6 402.1C99.3 402.1 98.8 402.2 99.5 402.3ZM85.2 403.2C79.4 403.7 78.9 403.9 84 403.7C86.5 403.6 89.4 403.3 90.4 403.2L92.2 402.9H90.6C89.7 402.9 87.3 403.1 85.2 403.2ZM64.1 405.5C62.7 405.8 61.7 406.2 61.8 406.3C61.9 406.4 62.8 406.3 63.7 406C64.6 405.7 66.5 405.4 67.8 405.2C70 404.9 70.1 404.9 68.4 404.9C67.4 404.9 65.5 405.1 64.1 405.5ZM56.8 407.3C54.7 407.8 54.5 408.6 54.4 414C54.4 416.6 54.5 417.1 55.3 417.8C56.9 419.2 72.6 429.9 81.6 435.7C82.4 436.2 85.1 437.9 87.6 439.6C90.1 441.2 93.3 443.2 94.6 443.9C95.9 444.6 97.6 445.6 98.4 446.1C100.8 447.6 110 452.9 113.8 454.9C115.8 456 119.4 458 121.9 459.3C125.5 461.3 155.2 476.2 163.7 480.2C166.5 481.5 166.7 481.3 166.9 477C167 474.9 167.3 472.6 167.4 471.8C167.6 470.5 167.6 470.3 167 470.5C166.5 470.7 166.4 470.5 166.4 469.7C166.4 469.1 166.2 468.7 165.9 468.7C165.5 468.7 162.7 467.4 153.8 463.1C151.6 462 149.2 461 148.5 460.9C147.8 460.8 147.1 460.4 146.9 460.2C146.7 459.9 145.8 459.4 144.8 458.9C143.8 458.5 142.9 458 142.8 457.9C142.7 457.8 142.1 457.5 141.6 457.4C140.6 457.1 137.2 455.5 122.6 448.4C119.1 446.7 115.5 445 114.6 444.8C113.7 444.5 112.8 444.1 112.6 443.8C112.4 443.5 111.5 443.1 110.6 442.8C109.7 442.5 108.8 442.1 108.6 441.8C108.4 441.5 107.5 441.1 106.7 440.8C105.9 440.5 105.2 440.1 105.2 440C105.2 439.9 104.4 439.4 103.3 439C102.3 438.6 101.2 438.1 101 437.9C100.2 437.2 90.6 432.4 90 432.4C89.8 432.4 89.5 432.2 89.5 432C89.4 431.8 87.7 430.7 85.6 429.7C83.5 428.6 79.8 426.7 77.4 425.4C75 424.1 72.6 422.9 72.1 422.6C71.6 422.4 71.2 422 71.2 421.9C71.2 421.7 70.7 421.6 70.2 421.6C69.7 421.6 69.2 421.4 69.2 421.2C69.2 421 68.8 420.8 68.2 420.8C67.7 420.8 67.2 420.6 67.2 420.3C67.2 420 66.7 419.6 66.1 419.3C65.5 419 63.9 418.2 62.6 417.4C58.9 415.2 56.8 414.3 56 414.6C54.9 414.9 54.8 414.4 55.1 411.1L55.4 408.1L56.9 407.9C57.7 407.8 58.6 407.5 58.9 407.3C59.6 406.7 59.1 406.7 56.8 407.3ZM294.7 410.7C294.6 410.8 294.4 411.2 294.4 411.4C294.4 411.7 294.5 411.7 294.7 411.4C294.9 411.1 295.8 410.9 296.8 410.8L298.6 410.6L296.8 410.5C295.8 410.4 294.8 410.5 294.7 410.7ZM304 411.2C309.3 411.6 320.6 412 318.2 411.6C317.1 411.4 312.6 411.2 308.2 411.1C302.9 410.9 301.5 411 304 411.2ZM176.5 412.4C176.5 413.2 176.6 413.5 176.7 413.1C176.8 412.7 176.8 412.1 176.7 411.7C176.6 411.3 176.5 411.6 176.5 412.4ZM328.3 413.2C329 413.4 331.1 413.6 332.9 413.8C335.1 414 335.6 413.9 334.4 413.7C331.7 413.1 326.7 412.8 328.3 413.2ZM341.8 415.2C342.3 415.4 343.5 415.7 344.6 415.8C347 416.1 345.4 415.5 342.8 415.1C341.6 414.9 341.3 414.9 341.8 415.2ZM294.2 420.4C294.2 423.2 294.3 424.3 294.3 422.9C294.3 421.5 294.4 419.3 294.3 417.9C294.2 416.5 294.2 417.6 294.2 420.4ZM349.6 416.7C350.3 417.2 357.9 418.6 358.2 418.3C358.3 418.2 356.5 417.8 354.3 417.4C352 417 349.9 416.6 349.6 416.5C349.1 416.4 349.1 416.4 349.6 416.7ZM170.9 420.2C170.9 421.3 171 421.7 171.1 421.1C171.2 420.5 171.2 419.6 171.1 419.1C171 418.6 170.9 419.1 170.9 420.2ZM359.5 418.8C360.4 419.2 360.4 419.2 360.4 427.9V436.6L353.1 440.1C349.1 442 345.5 443.8 345.2 444C344.5 444.4 340.1 446.6 336.4 448.4C335 449.1 333.4 449.9 332.8 450.2C330.1 451.7 322.5 455.2 321.5 455.4C320.9 455.5 320.4 455.8 320.4 456C320.4 456.3 311.6 460.8 311 460.8C310.6 460.8 304.7 463.7 304.4 464C304.3 464.1 303.3 464.6 302.3 465C301.3 465.4 300.4 465.8 300.4 466C300.4 466.2 299.7 466.5 298.8 466.8C297.9 467.1 297.2 467.6 297.2 467.9C297.2 468.2 296.9 468.4 296.4 468.4C295.9 468.4 295 468.7 294.2 469C291.9 469.9 291.9 470 291.9 464.9L291.8 460.2L291.5 465.6C291.3 468.6 291.1 473.2 290.9 475.9C290.6 480.2 290.7 480.8 291.2 481C291.8 481.2 304.1 475.3 310.9 471.6C314 469.9 316.6 468.5 320.3 466.5C324 464.5 341.4 453.7 345.8 450.5C352.1 446.1 358 441.9 359.3 441.1L360.6 440.3V429.8C360.6 419.1 360.5 418.3 359 418.4C358.8 418.4 358.9 418.6 359.5 418.8ZM170.3 426.2C170.1 428 169.9 431.5 169.8 434C169.6 438.4 169.6 438.3 170.2 432.2C170.5 428.7 170.7 425.2 170.7 424.4C170.6 423.6 170.5 424.4 170.3 426.2ZM293.5 429.6C293 435.4 292.7 443.4 292.9 443.2C293.2 442.9 294.1 428 293.9 427C293.8 426.6 293.6 427.7 293.5 429.6ZM367.9 433C367.7 433.4 367.7 433.9 367.8 434C368.2 434.4 368.5 433.8 368.3 433C368.2 432.2 368.2 432.2 367.9 433ZM60.1 435.5C58.2 436.8 56 438.2 55.3 438.6C44.1 445.5 33.8 459.9 30.4 473.4C30 475.1 29.6 477 29.7 477.5C29.7 478.3 29.8 478.3 29.9 477.7C33 463.4 37.6 455.2 48 445.2C54.9 438.5 56.3 438.4 65.4 442.7C78.7 449 90.6 459.1 96.6 469.1C97.4 470.5 98.5 472.1 99 472.7C99.5 473.3 100.3 474.6 100.8 475.7L101.7 477.7L102.2 476.3C103.5 472.8 106.4 465.5 107.6 462.7C109.5 458.1 109.9 458.5 94.6 450C90.9 447.9 86.9 445.6 85.8 444.9C79.5 440.8 65.4 433.1 64 433.1C63.8 433.2 62.1 434.2 60.1 435.5ZM169.3 440.8C169.3 441.8 169.4 442.2 169.5 441.7C169.6 441.2 169.6 440.4 169.5 439.9C169.4 439.4 169.3 439.8 169.3 440.8ZM292.5 446.8C292.5 448.5 292.6 449.1 292.7 448.3C292.8 447.5 292.8 446.1 292.7 445.3C292.6 444.5 292.5 445.1 292.5 446.8ZM168.9 446.6C168.9 447.5 169 447.8 169.1 447.3C169.2 446.8 169.2 446.1 169.1 445.7C169 445.3 168.9 445.7 168.9 446.6ZM168.4 449.9C168.4 450.6 168.2 453.8 168 457.1C167.8 460.4 167.6 463.6 167.7 464.2C167.8 464.8 168.1 461.7 168.4 457.3C168.7 452.8 168.8 449.1 168.7 448.9C168.5 448.8 168.4 449.2 168.4 449.9ZM292.1 457C292.1 458.8 292.2 459.4 292.3 458.5C292.4 457.6 292.4 456.1 292.3 455.3C292.2 454.5 292.1 455.2 292.1 457ZM338 462.3C336.8 462.9 332 465.7 327.4 468.4C316.5 474.9 305.7 481.3 304.5 481.9C303.5 482.4 303.5 485.8 304.4 489.2L304.7 490.3L306.9 488.2C308.1 487.1 311 484.9 313.2 483.3C315.5 481.8 319.3 479.1 321.7 477.4C329.5 471.9 347.3 464 349.1 465.2C356.9 470.7 367.8 482.8 373.1 491.9C373.7 492.9 374.3 493.8 374.4 493.8C374.8 493.8 373.6 491.6 372.3 489.7C371.5 488.6 370.4 487.1 370 486.4C367.3 482 361 474.6 357.6 471.8C356 470.5 353.3 468.2 351.6 466.6C349.8 465 348.2 463.8 348 463.8C347.8 463.8 346.2 463.2 344.5 462.4C340.6 460.9 340.8 460.9 338 462.3ZM100 482.3C98.7 486.3 97.1 495 97.8 494.3C97.9 494.2 98.3 492.3 98.6 490.1C98.9 487.9 99.8 484.4 100.5 482.4C101.2 480.4 101.6 478.6 101.5 478.5C101.4 478.5 100.7 480.1 100 482.3ZM29.2 479C29.2 479.2 28.8 482.8 28.2 487C26.6 499.3 29.3 508.8 36.2 515.8C36.6 516.2 36.7 516.5 36.6 516.5C36.3 516.5 35.1 515.4 30.2 510.8C28.8 509.5 27.4 508.5 27 508.5C26.3 508.5 22.8 513.3 21.9 515.4C21.3 516.8 21.9 516 24.2 512.5C27 508.1 26.4 508 32.2 513.3C34.8 515.7 37.2 517.7 37.4 517.7C37.8 517.7 41.6 520.8 44 523.1C44.3 523.4 44.8 523.7 45.1 523.7C45.4 523.7 45.8 524.1 46.1 524.5C46.4 524.9 46.8 525.3 47.1 525.3C47.4 525.3 48.3 525.9 49.1 526.7C49.9 527.5 51.4 528.5 52.3 528.9C53.2 529.3 54 529.9 54 530.1C54 530.3 54.2 530.5 54.4 530.5C54.8 530.5 58.3 532.7 59.5 533.7C59.8 533.9 60.1 534.1 60.3 534.1C60.5 534.1 61.3 534.6 62.2 535.3C63.1 536 64 536.5 64.2 536.5C64.5 536.5 65.4 537 66.2 537.7C67.1 538.4 68 538.9 68.2 538.9C68.4 538.9 69.3 539.4 70.2 540.1C71.1 540.8 72 541.3 72.2 541.3C72.4 541.3 73.4 542.1 74.3 543.1C75.3 544.1 76.4 545.1 76.9 545.3C77.4 545.5 76.9 544.9 75.8 543.9C74.7 542.9 74 542.1 74.3 542.1C74.8 542.1 81.5 544.5 83.8 545.5C89.4 547.9 89.4 547.9 90.2 543.3C90.5 541.5 90.9 539.6 91 539.3C91.2 538.7 92.4 531.1 94.2 518.9C94.5 516.8 94.9 513.9 95.2 512.5C95.7 509.6 95.7 508.7 95.4 509C95.3 509.1 95 510.6 94.7 512.4C93 523.9 71.7 525.8 50.9 516.2C42.6 512.3 33.2 503.8 29.7 496.9L27.8 493L28.7 486.2C29.2 482.4 29.5 479.3 29.3 479.1C29.3 478.8 29.2 478.8 29.2 479ZM304.6 492.8C305 496.7 307.5 513.3 307.7 513.5C308 513.8 307.6 508 307.2 506.8C307 506.3 306.5 502.9 306 499.4C305.3 493.8 304.2 488.7 304.6 492.8ZM178.2 494.8C178.3 495 178.1 495.9 177.6 496.7C176.3 498.9 174.8 504.9 174.3 509.6C173.7 515.5 173.8 515.4 170.3 516.1C164.3 517.3 153 520.2 152.7 520.5C152.2 521.2 152 547 152.5 547.5C152.8 547.8 154.3 548.3 156 548.6C162.7 549.9 169.9 551.5 170.3 551.8C170.5 551.9 170.8 556.1 171 561.4C171.3 572.3 171 571.5 176 571.9C177.9 572 182.1 572.3 185.4 572.6C191.4 573.1 199.1 572.8 201.8 572.1C203.2 571.7 203.3 571.6 204.3 568.2C204.9 566.3 205.8 563.4 206.3 561.7C206.8 560.1 207.6 557.4 208.1 555.9L208.9 553.1L215.6 552.8C219.3 552.7 223.8 552.5 225.6 552.5C229.4 552.5 229.5 552.4 229.9 549.1C230.1 548 230.6 544.7 231.2 541.7C231.8 538.7 232.4 534.9 232.5 533.3C232.7 531.6 233.1 529.1 233.3 527.7C233.9 524.6 234.1 524.7 227.8 522.7C225.2 521.9 222.4 520.9 221.7 520.7C220.9 520.4 218.5 519.6 216.2 518.9C211.7 517.5 212.1 517.8 211.5 513.8C211.3 512.6 211.4 512 211.7 511.7C212 511.5 208.1 509.4 201.8 506.3C196.1 503.5 188.4 499.7 184.7 497.8C181 495.9 178 494.6 178.2 494.8ZM375.1 495.8C375.5 496.6 375.8 497.1 375.9 497C376.1 496.8 374.9 494.4 374.6 494.4C374.5 494.4 374.7 495 375.1 495.8ZM96.8 496.7C96.6 497.8 96.3 500.1 96.2 501.8C96.1 503.6 96 505.8 95.8 506.8L95.6 508.6L96.1 506.6C96.4 505.5 96.7 503.4 96.7 501.9C96.7 500.4 96.9 498.3 97.2 497.2C97.8 494.6 97.4 494.1 96.8 496.7ZM376.5 498.8C376.9 500.1 378.1 502.8 378.2 502.7C378.3 502.6 377.9 501.6 377.3 500.4C376.8 499.2 376.5 498.5 376.5 498.8ZM378.4 503.2C378.4 503.3 378.7 504.7 379.2 506.2C379.8 508.3 379.9 508.6 379.8 507.3C379.6 505.8 378.5 502.5 378.4 503.2ZM380.7 513.2C381 517.3 380.3 518.8 375.7 524.3C371.6 529.2 365.7 534.6 361.7 537.4C360.4 538.2 359.2 539.2 358.8 539.5C355.2 542.7 337.6 549.8 331.8 550.3C327.5 550.7 311 549 310.3 548C310 547.6 310 547.9 310.1 548.8C310.2 549.6 310.4 551.6 310.6 553.4C310.7 555.2 311 557 311.2 557.4C311.4 557.8 311.8 561.2 312.2 564.8C312.6 568.4 313 571.5 313.1 571.7C313.4 572.1 322.1 571.8 326.2 571.2C333.4 570.2 336.8 570.4 332.8 571.6C330.3 572.3 331.1 572.5 333.7 571.7C335 571.3 336 570.8 336 570.5C336 570.2 336.3 570 336.6 570C336.9 570 337.9 569.7 338.7 569.2C339.5 568.8 342.1 567.8 344.4 567C350.2 565.1 354.6 563.2 361.2 559.8C371.5 554.5 374.9 552.7 378.9 550.4C384.7 547.1 384.5 547.2 385.4 549.1C385.8 550 386.2 550.6 386.3 550.5C386.4 550.4 386.1 549.6 385.7 548.8C384.7 546.8 384.4 546.8 378.8 550C374.2 552.6 367 556.3 366.6 556.3C366.2 556.3 367.3 555.4 373.6 550.2C377 547.4 380.4 544.5 381.2 543.7L382.6 542.2L382.5 533.5C382.4 528.7 382.1 522.8 381.8 520.4C381.5 518 381.2 515.2 381.2 514.2C381.2 513.2 381 512 380.8 511.4C380.6 511 380.5 511.5 380.7 513.2ZM19.6 518.7C18.7 519.9 17.1 522.8 16.1 525C15.1 527.2 13.5 530.3 12.7 531.9C11.2 534.9 11.1 535.4 12.4 537C17.3 542.9 20.5 546.1 25.4 549.9C26 550.4 28.6 552.5 31.2 554.6C33.8 556.7 36 558.4 36.2 558.4C36.4 558.4 36.9 558.8 37.4 559.3C38.7 560.6 42.8 563.8 55.4 572.9C57 574.1 59.2 575.7 60.2 576.4C63.8 579.1 72.8 584.9 76.5 586.8C79.2 588.2 84.4 590.5 84.5 590.3C84.7 590 86.1 579.7 86.9 572C87.4 567 88.1 561 88.5 558.5C88.8 556 89 553.8 88.9 553.5C88.6 552.9 84.3 549.7 82 548.4C81 547.8 79.7 547.1 79.1 546.7C78.3 546.1 77.6 546 76.3 546.2C63.9 548 51.4 548.2 48.3 546.7C47.1 546.1 45.6 545.5 44.8 545.3C44.1 545.1 43 544.5 42.3 544.1C41.7 543.7 41 543.3 40.7 543.3C40.5 543.3 40.3 543.1 40.3 542.9C40.3 542.7 40.1 542.6 39.9 542.7C39.7 542.8 39.5 542.8 39.5 542.5C39.5 542.3 39.3 542.1 39.1 542.1C38.9 542.1 37.8 541.4 36.7 540.5C35.6 539.6 34.5 538.9 34.2 538.9C33.9 538.9 33.2 538.5 32.8 538C32.3 537.5 30.6 536 28.9 534.7C23.6 530.5 16.9 524.3 17 523.8C17.1 523.5 18.1 521.7 19.3 519.9C21.9 515.9 22 515.3 19.6 518.7ZM187.1 520.7C193.5 524.1 204.5 529.6 209.4 531.8L213.8 533.8L220.6 533.9C230.4 534.1 230.2 533.9 228 541C227.6 542.3 227 544.5 226.8 545.8C226.1 549.2 226.6 549.1 217.5 549.3C213 549.4 208.7 549.7 207.8 549.9L206.2 550.2L204.5 555C203.6 557.6 202.2 561.5 201.5 563.6L200.1 567.4L193.5 567.3C189.9 567.3 184.5 567.1 181.5 566.9L176.1 566.6L175.8 564.8C175.7 563.8 175.5 559.8 175.5 556C175.5 547.3 175.9 547.8 168.1 546C163.6 544.9 157.8 542.9 157.4 542.3C157.2 542 157.1 537.9 157.1 533.2V524.6L161 523.7C163.1 523.2 167.2 522.2 170.1 521.6C173 521 176.7 520 178.3 519.4C182.4 518.1 182.3 518.1 187.1 520.7ZM308.6 524.8C308.7 527.1 308.9 531.7 309 535C309.1 538.3 309.4 541.2 309.5 541.5C309.8 542.2 309.6 535.5 308.9 527.4C308.7 523.6 308.5 522.4 308.6 524.8ZM386.7 552C386.8 552.5 387.3 553.6 387.6 554.4C388 555.2 388.5 556.5 388.8 557.3C389.1 558.1 389.5 558.9 389.7 559C390.1 559.3 389.1 556.5 387.5 553.2C386.9 552 386.5 551.5 386.7 552ZM390.3 560.6C390.5 561.7 390.2 562.1 386.1 566.1C372.6 579 359.5 583 343.6 579C337.2 577.4 329.3 573.8 330.3 573C331.2 572.3 330.4 572.3 328.9 573C328.3 573.3 326 573.9 323.9 574.2C317 575.3 314.9 575.7 314.6 576C314.4 576.2 314.7 579.7 315.1 583.9C315.9 591.3 317.4 605.8 317.5 606C317.5 606.1 321.8 606.1 327 606C337.5 605.8 338.9 605.6 347.3 602C362.3 595.7 372.6 588.8 383.9 577.2C392.9 568 393 567.9 392.3 565.5C391.9 563.3 389.9 558.9 390.3 560.6Z" fill="#0D4D8C"/>
<g id="eye">
<path id="Vector" fill-rule="evenodd" clip-rule="evenodd" d="M140.2 311.5C145.6 308.9 154 308 159.9 309.4Z" fill="#F7F8F8"/>
<path id="Vector_2" fill-rule="evenodd" clip-rule="evenodd" d="M159.9 309.3C168.5 311.3 178.2 320.6 179.7 328.3C179.8 328.9 180.1 330.1 180.4 331.1" fill="#F7F8F8"/>
<path id="Vector_3" fill-rule="evenodd" clip-rule="evenodd" d="M146.4 310.1C116.1 317.1 120.9 362.4 151.9 362.4C176.9 362.4 189.3 334.3 171.9 317.1C165 310.2 156.3 307.8 146.4 310.1Z" fill="#131414"/>
</g>
</g>
<defs>
<clipPath id="clip0">
<rect width="400" height="606.3" fill="white"/>
</clipPath>
</defs>
</svg>
