<svg width="395" height="512" viewBox="0 0 395 512" fill="none" xmlns="http://www.w3.org/2000/svg">
<g id="spider 3">
<g id="Group">
<path id="Vector" d="M239.08 208.373C252.563 195.915 261.16 178.229 261.16 158.453C261.16 120.864 230.568 90.272 193 90.272C155.432 90.272 124.84 120.864 124.84 158.453C124.84 178.229 133.437 195.893 146.92 208.373C108.861 231.755 83.0907 281.163 83.0907 325.408C83.0907 386.016 132.413 435.317 193 435.317C253.587 435.317 302.909 386.016 302.909 325.408C302.909 281.163 277.139 231.755 239.08 208.373Z" fill="black"/>
</g>
<g id="Group_2">
<g id="Group_3">
<path id="Vector_2" d="M337.013 21.3333V141.227C337.013 148.693 332.96 155.52 326.56 159.36L257.013 201.6L236.107 214.187C236.747 211.2 237.387 208.213 237.813 205.227C238.24 201.387 238.453 197.333 238.453 193.493C238.453 183.68 237.173 174.507 234.4 165.547L294.347 129.28V21.3333C294.347 9.6 303.733 0 315.68 0C327.413 0 337.013 9.6 337.013 21.3333Z" fill="black"/>
</g>
</g>
<g id="Group_4">
<g id="Group_5">
<path id="Vector_3" d="M337.013 370.773V490.667C337.013 502.4 327.413 512 315.68 512C303.733 512 294.347 502.4 294.347 490.667V380.587L279.627 368C280.053 365.44 280.053 362.88 280.053 360.32C280.053 340.907 276.213 321.067 268.96 302.293L329.547 354.56C334.24 358.613 337.013 364.587 337.013 370.773Z" fill="black"/>
</g>
</g>
<g id="leg-right">
<g id="Group_6">
<g id="Group_7">
<path id="Vector_4" d="M393.76 366.933C395.893 378.453 388.427 389.547 376.693 391.68C375.413 392.107 374.133 392.107 372.853 392.107C362.827 392.107 353.867 384.853 351.947 374.613L338.933 305.493L264.267 290.987C257.653 275.84 248.693 261.333 238.24 248.747C236.107 246.187 233.76 243.627 231.413 241.067L254.24 245.547L361.333 266.453C370.08 267.947 376.693 274.773 378.187 283.307L393.76 366.933Z" fill="black"/>
</g>
</g>
</g>
<g id="leg-right-front">
<g id="Group_8">
<g id="Group_9">
<path id="Vector_5" d="M393.76 124.16L378.187 207.787C376.693 216.32 370.08 223.147 361.333 224.853L254.24 245.547L238.24 248.747C236.107 246.187 233.76 243.627 231.413 241.067C230.347 239.787 229.28 238.72 228 237.44C231.627 229.973 234.4 222.293 236.107 214.187C236.747 211.2 237.387 208.213 237.813 205.227L257.013 201.6L338.933 185.6L351.947 116.48C354.08 104.96 365.173 97.0667 376.693 99.4133C388.427 101.547 395.893 112.64 393.76 124.16Z" fill="black"/>
</g>
</g>
</g>
<g id="Group_10">
<g id="Group_11">
<path id="Vector_6" d="M156.31 205.227C156.737 208.213 157.377 211.2 158.017 214.187L137.11 201.6L67.5632 159.36C61.1632 155.52 57.1099 148.693 57.1099 141.227V21.3333C57.1099 9.6 66.7099 0 78.4432 0C90.3899 0 99.7765 9.6 99.7765 21.3333V129.28L159.723 165.547C156.95 174.507 155.67 183.68 155.67 193.493C155.67 197.333 155.883 201.387 156.31 205.227Z" fill="black"/>
</g>
</g>
<g id="Group_12">
<g id="Group_13">
<path id="Vector_7" d="M114.07 360.32C114.07 362.88 114.07 365.44 114.497 367.787L99.7765 380.587V490.667C99.7765 502.4 90.3899 512 78.4432 512C66.7099 512 57.1099 502.4 57.1099 490.667V370.773C57.1099 364.587 59.8832 358.613 64.5765 354.56L125.163 302.08C117.91 320.853 114.07 340.907 114.07 360.32Z" fill="black"/>
</g>
</g>
<g id="leg-left">
<g id="Group_14">
<g id="Group_15">
<path id="Vector_8" d="M162.71 241.067C160.363 243.627 158.017 246.187 155.883 248.747C145.43 261.333 136.47 275.84 129.857 290.987L55.1899 305.493L42.1766 374.613C40.2566 384.853 31.2966 392.107 21.2699 392.107C19.9899 392.107 18.7099 392.107 17.4299 391.68C5.69657 389.547 -1.7701 378.453 0.363233 366.933L15.9366 283.307C17.4299 274.773 24.0432 267.947 32.7899 266.453L139.883 245.547L162.71 241.067Z" fill="black"/>
</g>
</g>
</g>
<g id="leg-left-front">
<g id="Group_16">
<g id="Group_17">
<path id="Vector_9" d="M166.123 237.44C164.843 238.72 163.777 239.787 162.71 241.067C160.363 243.627 158.017 246.187 155.883 248.747L139.883 245.547L32.7899 224.853C24.0432 223.147 17.4299 216.32 15.9366 207.787L0.363233 124.16C-1.7701 112.64 5.69657 101.547 17.4299 99.4133C28.9499 97.0667 40.0432 104.96 42.1766 116.48L55.1899 185.6L137.11 201.6L156.31 205.227C156.737 208.213 157.377 211.2 158.017 214.187C159.723 222.293 162.497 229.973 166.123 237.44Z" fill="black"/>
</g>
</g>
</g>
</g>
</svg>
